<mxfile host="65bd71144e">
    <diagram id="3tEctivcdIiYH9RRIa4n" name="Page-1">
        <mxGraphModel dx="549" dy="371" grid="1" gridSize="10" guides="1" tooltips="1" connect="1" arrows="1" fold="1" page="1" pageScale="1" pageWidth="850" pageHeight="1100" math="0" shadow="0">
            <root>
                <mxCell id="0"/>
                <mxCell id="1" parent="0"/>
                <mxCell id="2" value="" style="rounded=0;whiteSpace=wrap;html=1;" parent="1" vertex="1">
                    <mxGeometry x="45" y="30" width="765" height="2790" as="geometry"/>
                </mxCell>
                <mxCell id="3" value="" style="rounded=0;whiteSpace=wrap;html=1;" parent="1" vertex="1">
                    <mxGeometry x="45" y="30" width="765" height="60" as="geometry"/>
                </mxCell>
                <mxCell id="5" value="" style="rounded=0;whiteSpace=wrap;html=1;" parent="1" vertex="1">
                    <mxGeometry x="295" y="30" width="120" height="60" as="geometry"/>
                </mxCell>
                <mxCell id="6" value="" style="rounded=0;whiteSpace=wrap;html=1;" parent="1" vertex="1">
                    <mxGeometry x="555" y="30" width="120" height="60" as="geometry"/>
                </mxCell>
                <mxCell id="7" value="&lt;font style=&quot;font-size: 24px;&quot;&gt;music page&lt;/font&gt;" style="text;html=1;strokeColor=none;fillColor=none;align=center;verticalAlign=middle;whiteSpace=wrap;rounded=0;" parent="1" vertex="1">
                    <mxGeometry x="325" y="45" width="60" height="30" as="geometry"/>
                </mxCell>
                <mxCell id="8" value="&lt;span style=&quot;font-size: 24px;&quot;&gt;movie&lt;br&gt;page&lt;/span&gt;" style="text;html=1;strokeColor=none;fillColor=none;align=center;verticalAlign=middle;whiteSpace=wrap;rounded=0;" parent="1" vertex="1">
                    <mxGeometry x="585" y="45" width="60" height="30" as="geometry"/>
                </mxCell>
                <mxCell id="9" style="edgeStyle=none;html=1;exitX=0.25;exitY=1;exitDx=0;exitDy=0;entryX=0.5;entryY=1;entryDx=0;entryDy=0;fontSize=24;" parent="1" source="8" target="8" edge="1">
                    <mxGeometry relative="1" as="geometry"/>
                </mxCell>
                <mxCell id="12" value="" style="rounded=0;whiteSpace=wrap;html=1;" parent="1" vertex="1">
                    <mxGeometry x="45" y="30" width="120" height="60" as="geometry"/>
                </mxCell>
                <mxCell id="13" value="&lt;font style=&quot;font-size: 24px;&quot;&gt;LOGO&lt;/font&gt;" style="text;html=1;strokeColor=none;fillColor=none;align=center;verticalAlign=middle;whiteSpace=wrap;rounded=0;" parent="1" vertex="1">
                    <mxGeometry x="75" y="45" width="60" height="30" as="geometry"/>
                </mxCell>
                <mxCell id="15" value="" style="rounded=0;whiteSpace=wrap;html=1;fontSize=24;" parent="1" vertex="1">
                    <mxGeometry x="310" y="560" width="235" height="75" as="geometry"/>
                </mxCell>
                <mxCell id="16" value="&lt;font size=&quot;3&quot;&gt;Best Musics of 90s&lt;/font&gt;" style="text;html=1;strokeColor=none;fillColor=none;align=center;verticalAlign=middle;whiteSpace=wrap;rounded=0;" parent="1" vertex="1">
                    <mxGeometry x="349.5" y="572.5" width="160" height="50" as="geometry"/>
                </mxCell>
                <mxCell id="18" value="" style="shape=image;verticalLabelPosition=bottom;labelBackgroundColor=default;verticalAlign=top;aspect=fixed;imageAspect=0;image=data:image/jpeg,/9j/4AAQSkZJRgABAQAAAQABAAD/2wCEAAcHBwcIBwgJCQgMDAsMDBEQDg4QERoSFBIUEhonGB0YGB0YJyMqIiAiKiM+MSsrMT5IPDk8SFdOTldtaG2Pj8ABBwcHBwgHCAkJCAwMCwwMERAODhARGhIUEhQSGicYHRgYHRgnIyoiICIqIz4xKysxPkg8OTxIV05OV21obY+PwP/CABEIAyADIAMBIgACEQEDEQH/xAAcAAAABwEBAAAAAAAAAAAAAAAAAQIDBAUGBwj/2gAIAQEAAAAAldLiIz1849Hi0kiXeJzE+ts9MMBBjZ290Drry3AlBw+e5Z1lEVtRWHQmM90GWZLbcSlZJqKuJm4Rka1bmPGx/SG7M2UTUkxHnG7CnONHMdciUNpek+6KmRYyhFqrZxm0Di8zx/pdfk9dPFwb7qWkN5bAEk1G0gkbmZleiWaQpmzZiJiQcpCrYupiQM04Wi6DT81stIhDC0LSyRpQSmUnsNVZ0fG9JMgtSI1lYV7Lrji5Mlq2ZUbTNjn9lzPXa4rGUhhmv5LEJzd7ZeSw7deXTMt0SfIDsVbz9VDx+abj9gsKbQ8kwapPWanmBuPogpdS9cKOfY5mmmqr9D21njlDptKumi4dFhqr+kzxneRsPP6Zaupqrau1mGv719jKae1rspyUJ1nZM0V9luYqjdHa6G61ZzcHgbDra4eHzS9FuuS03S7vhkmVo3+YFJUmLdTqV7RHQ6XYc5rNBIx/fKDl0VjSaFddBqdzk3uhVvNgq6o5N3Vbp1mJawddh2om4jZS32dHgcEZdL6byeXtkcSlnpZ+9kVlnfZhp2e7E53QL2G1y11WaTzmp7cuc1cUa4XVdfxRV6/H1+v43R9jp+TWbKEs2Ug33Xd3ho/TK7lpnazdg3mrZCoFq1recM3dhf39YnKZzm5jo/XGZtVQ8fkN2Ok2dnFlTEPRJ+fm4DJv2nX62XGoOVOS7tznU2Ua2nVt29gtQEaApQkKXVZzS2IXJRJSSWkB51RGqGQhXL2mxhOJ0midz0RPM4xTevXaI3NqN2sd0e0vH110qxYoJdjncC4dttl5jnDRWlinBdB2KzUi8iU95PSppiusIjJEnJ880V27DOxsQagDU6DbZM1VthlLt6RIhxH21XrPPKg352iXQ1rTZ2UboV7aNxaiKmdaPV/OKxbkeHGQ9cW0zn8fc7hKAZJSAlCEtpJCUDM5/fMMnNnlGmLVHrXXlhpk1uV1ph9RdSTagQn7KXWZDNkanRHQSJhwu2Xc+RVRGUrcEGirlpQpmPYHZQ+eEo1CYSTMLSkiUHBFWlKfQkWNGXNcfbDlKbcdaWmsrGurPRcz1FvJaxusWaGY1JASonHG8nFkSZme7dpHlca2UmJJZYycO1hOCXGztvZ6STyBlSjakAKBt0WgbJJuk24lKPRnJ9NsnrTLQtiheRlz6SLXxa+whQN9ZcuO1OdUa1S4kdjnsaRGU44iokO2cnLdkv7Ohw+wRXsxJuIa0cCA6aodh0SXV8jhmpbchpyK86YCYqpEeU06lLXaObjuU9WfO1VAr23kNzFPtc8qrPoHL2aaLb6Sjnx2bhMRpmmq5bMxlAnXWR2HVG8XYZ9tyI+mS0bmP0tDZ6TP9Jc5LVVMxxpxNbcMqfMwloOVFu2H2onUYr+puWY06wgUOBkbuyRIyejVWZS9Tj8XcMTOg1siiv8AJurYr02EIXzWVfdobeh2cqNsGkZO+zT7rUmDb0kuVPpXkZiXVskSTejmQIEAA8wDUHQ2S1mCUS1mgn2XlOoSpG4590u2h6B12im1jjy2K6zrbx6PRoHPNThZN9RsA0kFAEAFggYZ2WRU6CU4pa1qM3FrUFLkP5mA1b3SCIKNby3VGtTj70jN4YbyRubFp7O1iNC4HVBqW5MdaYNjjl5zbtfTqekQck0IXJSpKTeUmRyXn+9wXXex0lwlCoy20SERybRJQuWOH89vvRspbwBDm1rXtazO9BAMAvP3OupWFzXRrEiUltL8lTYcccBGiFm+X+upSCRXSXWI6HZkltZhSAjyJ0Ln3X+p0+gS1WZ/aRihuE8tl0OrXw7A7vvseUZghzMJzdxJ6mAoAuN8d6miRno168kkPOOKZjvOhkrIFDh80623OklDvOiEkNpNsHMMiHkLo/OLW5QlLZaFRZVCGg2EJbSg39r6DhzXIjK3I0lhIkrgnImKHHuM9QnSaOPqIyJCYrqQpxAEhqSlEWt5f17cozGYfkbrYGboUeQlaBsvP2Zquk83SgjcM5jyIJkpCTMINLkjW+iocziWBcSkiJCUtNAewUI5bxTp9xZ1MizJizh1LTrjjsxL8NKEoi57m3Tu5QufRs3cWjkGlfQdxRQtTUY+fZYboPOUJARYHXbK4dmXhczzVgiAs0rk6n0dDe4TiJSKfQbLImmog2bkD19U2fMOIdKsZDAfwWYn9CxzDln0CPX80b6PoQiNHqua9TmVHYs5irLpa4eHQNJecqZ6BNy/QOZca6LztBAWV9Kzu3vWz144ui1awhGpb+k9JwH+FZvpUXjm56RyoNUx7C5wvqCos+d8L6ZZzIrrvLN/Hrs6/Jtu2YvCVGrzXR0nFgVXN9uUrvNFFkXqG+cxpOp0GIuZk6p0FF5l6LzpAAmd5svPfQL9uRvR5/Lt/PePqUTsq99LwX+G896fmcnptphlJgx+naPjPqCYfMOD9LnWzalUGxqo/Ooy9R3nM5GfpOfaJAYqqfnu2ZkdpcbNxlXMGnrbcHKjZ9ezxXnroXPUJM3XzcsXgcWPBI20oMnJtv6ciOVsPSqbNJGlwMg3HT5pwPob05KknFNENpU28aitiSaQzAXzzZIbZMki9RSORjBKUfZdfzjh+5wzei0WezZjWXGMjJQSQXVax2Bh337P1LCdqWTqGKmxsGGdJXxZVdpL8c24Dq9NNQoNhCQHZClBTqkkCjYrK7UghQKfeySyNcagDV3+XU+XWpLGvsqnKAX9jBjnAigy1UOXTwlFdd9rW4C5CCSkkpQhINsizGAsegzHnnQs0qU48AszNCFNQeT1elNbjsm0aJkGTpuKbk9HZhcNzsxYUuctINCiNJkhaIII21GtpbppZSFrBmAIrwSVz2euooBaJ1cZ+2t3DBh1jHtpW5y6hASpwwATRuGYUbKVGIE4GbL4Bg24NiQIAIdINkpTLy1toILUoNmBHfIJ03a8jnL8yiiba3PNNPv1IkmxnJ2C2Evi2MIycWYSYbNw0qCkNGS4U4zJDiFsrWZKJlRk6y+RNBQZeiSjhy3VAo8edEkIN0m9htKKi3WsdErLaGGyxc3rc0ii5Lm1vueX88cCZDBvQ5hmAmLNiPPMANt2TRtLJiQhagYShQafaWaUuxiacStwgDBhCmHAl429NedDpZVsxG0ijoaWPrtG6th487lrLl1vzZJtKMwtBGAFJUaUOmi/pYppSbjQAAAANbYcUJaGglJgEAACABEswenZi6qoVctsJixksmU2U6sU7lzmdXzpMps1GDI1KWtSjUh+NHhaujjbFDTSQ2EpQ2loiJJEgkoSpSSUCAAIGACIyEjR3NszJesUQK5tqG6JbhPTola/Uu4/pHZG1GAYAURKM1AyqvPFnR2PZwa1EagoieWaI8VqU5kOQxycSCAAM0qIEAQAKx1e7mw8rpLVyufnxMvoOa5Q+hRNFZzEQaLn/degLBBAIgDCVGADq/OVln5PYtE44mur5jK1OuAgfMMboJmm41HIGZJUlRkAZEDSAaLvZdckUU2wakKjvog8ZxJrcCBoe8JwfKPQO5JQJAAIwEkaiM67znOoGuidMIBpKmg48kiAr8rJl0nKWSNRAAgsJAIAEDJF/qdrBeuX7CRFjpTk+Xk5YXUSpJ3f2uc5p2/RMwFKNLKTJxKTJLMm2b5Oxnava7KgWswAa1LdcfWuRdL5xzZkl2U/VOrFJEUds605FfYaxkVF7tNwxKkXDE5lhDPGapzW9MJ7nmLTJ6fksL2K1weFvZk+mYiNCYdm1Lixx2Rnj0nNVVvcZE5z0JyKuTOtq2msUVY61pcPzpoHoNjvc1A2sXEKVsbOfm87ea+u4DRJ0G/6OESK/LI0ujKPxQOdXzGfvddxpD3Scfz/ALTrOSZezeWZUQXcSZVW+yC7A3xws3WleUTuwnZ5dY+9a7HJUOhexMfs2p5pz1k13vQtvR3sV3mKy6Lay8pHXso/nWgLQanoSm5b0K7pHUVvGVTu85iyRI5NUObiDh+x2fP8/oN5c8tiZIy1NhPna/IUTXSBytrNstpYHX9zxGvqFvbTq/Is92ym4sPQWu45zJsK0W06Q89HzmPJPTbE2ZDb9RwTPovdNtlkjSWr1fn40fjyE900thX0fDUnuoGP7HaZqk0Fg/V0tWZ2qyu51bGa1I5aM3K63yG0IGwhAILQgyJXTrTnGKbBuNkpa0qW64szcUpmoaRfbDfyFKEmdRyZieZZwXPQ9JQc4o3rHqnLsFca+2q7inp6hAQq2lk0TOuSMO8jOMa3I3Fo0iLWkajUa5LZNuHCjNgGZKMAJebIEREDSmZu+qzpbqWgTrrdTXuPuHEhQmHbjidBdTULbdQ0SwtwlhSLeDKq6mqS0hxSzcNoGkwabKRCgmRqSZmb5gEkAjIgCQkkNdE3VtOjupSbzkejyNQHnig1dlsb/kVIk0CcCNQfN00LeTXsKC4kVaiKURrQo0kaDUBGQSggiCnQDIGYIwAlgAm9d0+5ex+wcNKHqzH2dVCbJUOs0W0qeWRJMqBClmRk42zaLN1R1yZqo1OalEl0lGkyq7JSFAGggCbAClmQMAGkyBpZUCRuN5Mk4rVJciVTlXl9KxWPPKfjbm0reTVtroqjOSGHSXOcSuKRglxNWecpwpZJebdjh8yJUc32H2jIzacZDiGpMOUoyUUGY2HGgAi92Osg5vTZ025WfWSokhsFqaLpqMBl6W00NQciqdlNQppx2Ndm3ZKqTRtZ5ht1SEuNumTgIBIONIShaW7emNBmSgCUSjI0LJCiD1y3IVc3cGsKNXPRZlZqq6zlT8xYw6S2z0eRGnSnKkkuzSbrpbFpOi1hBq3h0zyCJ1sBJgwsB1oiNuTZV8xCFqIghRJJQNbZtvxZ64N+2tbDYZZSkIAMw0wqPts5MukPGQMNLQaVqeWSWBm76gtNY2YAcC1BRqWaiSyWVy9zoujk20xJJoktpSltIbJtHPG39B26QaVGQCjAbJJrCWvPj1Ptu5GCJJkARGYMACD51u8/vO2Bl0NOAkIfIE28kwnlHJ7LY9prI67VcZToiTDCwoA4XnFgtJ3iSAAkGswklLAQlXmxmm3vdyMhFSIst8AAwAK7zjdZvoPaY6CebjqklFEtp6O3JkAuTckt9p0xNjKJuI+ooT7U50GYOD54hjS92kGZgAAwCNRhBN+c26HoHcgZJbNSFAAgYAKu862+Y6L2NJqSREoEZEYBkguZcitdvunmVKcUpSzWqMhtuSuU3wSIWj6K3nJMgyjLUt43JKjYPStcPVT7ba1WesLR2tYdbjuLZmTo1FH2aeXW9Tu9XXc0s58ithRkE6T0m5i1dd0S/wAxzSTrdJj8hpJNhEpoSa1Z2Ggsm6Wm6w/yd6LougUHLdO/a1cGqJFi+7Ns0Zyk7gfMk0+s3eGze1gqn4ylhR0q6dZ1NjU8/wC0Ocs0ec2/RcXy7ST0ppsS4lx6+0TLaKvoO6xnLbDZdR47nJl8k5uRh1ZDbT4b7eM7E5yKVH0XYcRzW4fS4ilaYs7h+mmqczfdZvG26HW9e5NUXzdjDoINRDOb0qFYNFy/sL3JdXm9b1Xn+E0VvaUzPKSOdZ3GinlQwdNsMjzKXsNjhaHTaXSYWnh1dIQ6BO1lfhs311/jkxnQ7mmwOk3Op5TX5RLF3eSrDoeTxea7MXORQ6vYZKg1Wwtchl63O1Jvdne2GUquR9qd5Drczs97leea/XXGLxeOAsrS30O1rcZnt9qcry+Tub3N0Grs5tVmk1lCRbXS39TRc87YfGpbWj18fMaCZJq4EUIlyZM6xrI1JtxzgqjQ3cCru5yo1JIh1zqL+1U3S0Ord5/pM/oNG7CemQoUNshLfW4pTT5HR5dBbB5D7efiKcNV6mS05HtkIoaGXFkWnQYseKnDGFHPs3UE5YzioaMqg99fVdpRZ/OECLTXojSqzodXI43HtKaZo9JEOE7lkmDO4BsnbSLehyNY05ay0oahwlGkSbtCVJ21ZN5oqKme8SjUtojUpc9CzKYc+oytbNcIEogDBIbJajS8yZriiQ6knQRESVqIGRhklBTNg0G3jCgaUklaTJLByUVr8loFMCSQRrUoidDEY0Kr51pHEfTvpWk2mZDRsAqqqkS1R48hlDNklIInJjBmQUVbLdMo8yzYprB5C2wzAlLeSaYzEx+PWyJs6trpbyEoMN2hA3xBizDj1c+101blrYjOKUKLPaSZtsP6aZnKl+yuqGqkEaCWtmUapDi01WiuKKuiaK2LEzlG0FpivstEoBvSWWdqXbu5rc1KjuE4t1mQytBkIW0eytPP1F7X46wik2tL6FwENmTrHRFZCrctbulrJ9PJZckSEqj2EWEciNorinpq210lRAs2m48iqsErrVmlVtQ7R/L1zE/S1Mewqn5DUSe2iNr8ypx2k0q8obj95S2duiiDEecy9U2UKXKeoblNW5WvWtfYSoTK3ocxbMK2bbshCr7SrZaYITZDsBAOSBCltSZC64lsrJoB11yERKlkqulMT5jEBojksXhxlOSoKW2ZKUx5JypomxM0mfTLJwGEAgtISYUomjCdPnZb6EkkkpSRE2RA0qWZrLRPhJIQSUtpCSIkhCYxTJOjtbVNda0hqQ+xAsKV+fZxa/UUWKemddCSJQMwYUFGAhlnJ8z1OR9YUerBhJEQAClGQUfIOQyInqjPbJ0AEUSQsKMGYMcQ5fqZ1xbP0VcuU9pzqZbU+FMlyGocmgw0uT6EAJKHSMgk0qBgyGA4NvuZ+ss1rHApASYUCUoGo1cj41cUvqaLZTQYNuNIWajAMGfDuadKv157nTZh5MrUwJTqZdhYWFuhyrxsdn0OYDQIwa0GQWRmlWE4F0rk2lWagcq/KohGolKUpRqoaHR5r0RZKBFArW76SpakpJBrHHMZ1zTReRVKbq3o607XpK81jNXdyIytKpjIRXeymsjIEQAJRABSDynCeg8tZBLIPXZVkUwQBEkyU9oc36LsVZHDGYkuEAEGuZ0s18ZxnU9Vlefo6L0eZD5HjS6pY8i3fTZpZfnFpqaylhr6ax5+0FlbVELMpJci1nXiaiq2u8rOSa/k6CSqZbV7G70zuVOnxts5TGApzR5r0hMPmWAuKk+4y+cx49PmtCVZ6TMuNZLrFxzugte95jP7Cx85xNvYc89CDJW2uwOb2RUEFrsue4NsJKX6PKRALG80Upss/putZviW55I2aT1G7j836LqW8iuvxO7ueeUYJTuqyXpKYOYUvQKPA95k8ibTEY20jnHoBRcXyPWLXk0G/wC8Za3j6DznaXLWG9LVcJd5mcHsHaCFD6/WcM3VlvM3k+f15q0NxfbWbgsnpeh1HINpydkAb7quF590DqEbmoqMz3yx8115Ba9RlvSE5PMaPpuBy/oKfyeuKor+0weN+jzLi+V6hY89qLT0A5Lg1XAuywqzF9ut5UdzmdJp1UdfH6lF4N0G40dDmufEHdBJ1mgk5Kpv9nWce2HKWwDWHrNTpxoLbZm0hIW5p8t6XQmHmkR4aFEp8wDl9FSfFcn1PRWlRI0VykszTTZyKy80i0RMpjK7XUNbQ6HVMOxlZ9IAdmqWw8qYw3SZ3S82X0m3420NCu7wQCQD3bshjni3LOr79S1fSVIg5mLd6QA6NpyxaW/yTG6/qG2OYQAAAAAIj5bhIu8zeDlXF6mOzZZxSDSc95gxLuVsZmhjR3dbLwzIf0SYa41SQGifnZ+mUpp/oDIsgG4xuE7NMnm5ZrVzfPaHZTFVqFqIraXFnS3YzS3csl46fn7qwmQ4EhADryAYDCQaql0Gl8yBgAgagRxwpLaHwaJigAYNJkATteYSnQ6qMmovH0LlSixe0mKeJdfltOddXYCSsQnFEAFqdUDMHCkLI6WQAl4EZgJURgAMKI0tSAELUZKIwQJRA2XEhvQ6nJrd2jCFhaOcdEnCaUh7nN5kreRhZumg5h1sykk7GkOtvBRwbHV1mfpXlBDjLzIkEZE2taFsKBoQ6YQ62ttL5kAypxK2lGSLKyht3XSK6uZfq4cmSlGvr7R/AQa45lMzrYeeuqtTc+C4pLE+7zK3QnUMZRqOZEth8BQUAgyjzWDI0yYZmTiFAzBGQBIdbBk5d1T52emOqjP01uy9As50e0lZ2prgJdO8l+UTMadW2JlHKzrLttFPJZh6zLWBwzeS2lIMLJ4LaZkORn7Kg2Wkajobjx69pCCXJJ6MiM7WPO109RmSEEhaAkBLhssqavXaSS0szSkkKM0pcBqbYUbfXObWUKetZhDaWjNUxx9Ed6uYi6SNvOyxlG+lDMaG00huKzEqa5ORrHtX3FIQogkAkkkiCWm4/DmnJ3aTMAEgKQAQBJJJcxw3V+ZeicjsTh8Yl282TaS45yBXyM/n26OJrra91DDsmTNfW9FdcitWQYgzzp+G0uq70G4rhKNbSnor0ZS5RBnznDdsfQ5AgmG67CRNJboMiB8W5p2XlsSXDaTJlLuNPWFLYxabbV13PdxlHttqXcnUsx0zjnpTCeelSpLcy6sV82yGp7yCQREto1qadaBvkTXnGHMn+gwCOOTTyY5rmR1JNlo+Vc569Txc1RpmTUITea5VLiysFXinXzzOg1KM8hq2l1OZUVfXNxJ2piY8jl9FiUOl3LFWbiibWs3FE8oNrtU8lp50/raK4OgmVGDNMVwTjec5/wA6621H5cWm3M+HgqB/pM7lyeg6FvIZN/SWtVM0sVlOhtDPO5CuySIul7RObyPDgrcu1ug2WO53oLmdT5mOQmSZlpbwoWT7JIwdFPldAznM9VdTafKVSYhCy0Owj02N3W7yeD6xGzOGndfrWLB7jydrLwO+0lLYT+Z0my0dNZaeJAe2GEotNtOd1vNSHe04e93PFcgNXZ1dz2bkmFvpMuJUZ0zmz7uxjOUVb2+x5JTWT/acBzbarWzX5BFSBvLtLzOZtN/lMH01GAqL7qldf1jvH2doWY61Bh2B5XF6na5yTq6ypc6BnZ0HTchTzgH6PbiuWnKKxi4FXebHMYfRa7W4LM4gjsLHWS+jU2CpunFg6qwldFzXP9HsNlh6zn5ZsDoei3DnP8tZb/J4PqMPE08ntdw7VVvG17teS6ddTo0PneU0+5y068bgMbac/mKKlm8uaHYtrYx43nuuGul1V3qKrO6KfZ0lTTpEuVOtLWrh0u3TiaSzkbitwdzqZ8DOVAzxi63c9GWyum3GVwXSFXdOnRaAN4enLWKw9n0WVEpOYtaWyprS0kojVmksKLF30rnlIHugbkclx5K6PGo4un10F6tgZMlKdnz1Nkm+mx6CtiT6m60UV4qyiIzOxsH21B6WmHk2ttqN7Jr1zWGZ6wYAMAwbfnkmNrcSaygpYB2V4MnlAoLNBSNFYVGTnmFNuqI1ms5hrWxPKVV1VUiXLnussKpwDBaBBtlZvzqjKSRsr0kMKeVJsn2JwNiI7ODjfKGY20uZrVcoE8oZmJCSszSy7PaqM5IWhuQsyMnDdeSo0xoijEWPOMkywbhhLKUmZqKEhx4M7qDDh6FTEWVOXT260vrdjZGQokOdAdcx52iIMiHHztkiKUo4kfQaGVj8nMeZr3QakuKbmOmtK0Vdi7HrUTreLXuySDYTCcWApZV8qS7Gj6SjmK07capVMKmuXFXRvNY5cC9bRrdxW88sZDUaQGsTqzjMHITXbfS5fOZGyt4mffjrUuWpl5tZsrcq9PZUdC1e6Isa+hZkh2G47EUyZt3morc9Gkri2dy9VNurSxNajS41tLxrMt5UC665Q43QwIMfQZW0YfRDfiPXdVsrTn1LTHqY1LdVBnJrJJoa0MWLLkUNzbZWufVrouYvoQiWlHIC2TkNBYe0UXMTXyFzaKo5EBt6BMiWrIvpuKYQ4m4gTRZaqVm4blHf18iruWWrt2gUjOObGvIrm5ezVaGdI2eXlMWt9Fp6Y2UNZkjcnE0w9HmGthLxS3RXBJ7eo3TTSFRWYkJ5LKJyzloYfaiF0KrnRq8NsGhE80QXno5sP3L70bpLxHEImkJU4pLIS+tRzCOg43jZLbKSIyCjCSURg1gxuLXsLhJSRk2lkmmI5TSjk1U8u6daadbzakBRMuEbQJpTa49LU9FkKBECJqAqMa7cAGDJNVxTKerMtqM7JfaajR2W22GkNtNNNUmI3tn2IiJJpQ8hRpMnjBAQuCdSudAwtRJKSmrtXlJBNGlRUGU6G+oJIyELIJSxM3KgAARVfEsx6p55O4Z0GdJ33Jb7bY/OdAt5Di3EHmfOPRbHqrrzCibJ9tCiAfSSyVC4R1O5uoZqcIT0koGkGkkrFPkN5IUkAgRUcg4si2MjABFVcPyGzPHsGq41GEe12WRI6bdvyHzkUXAOhwtTOlTpJNurfdJ191SoxmUHi/U7e2jR35EdbpmolOklRMOqp8lvJAIEoIUyg0m+ADACazh2LUQI1ydS5ma4EYBGkBDvRcKa1KQ/HjpNcxxlVuiO6h8rDp9lfNxzw1RtXs04S3dI1n9DbG27U5bdvGQThYO3kcPk3slPTqvL3egACazhuNBBDthWStJDqFIREknGdMJXvsS71XkxndUjLAd09piUyzGtZi5/W9RsbltdBx+1s9JxGTUIT6Z5tXq7Batityu6VTuXFfz+bbXnmcbywoe9c/rU9RGae0FVwvIKI2tbd0ddvqLOral0OuLKtg0q3mP1dvlq3Z9G5Bl2A52W44RM6hUYK3us5D2PS7O3jIj5nRVU5RMttWmJvq7U3scV2V3jgMIqpYkx0OiLPpzRdljrS/o+FZgGTfRun8moOt53npHcVPYRxyvBpVu//8QAGQEAAwEBAQAAAAAAAAAAAAAAAAECAwQF/9oACAECEAAAAM4GqQI1pNMdgShk1ZNJSV05VKqazQiWAgcoebepmXWbrOHuRFaIsgUrSTLokJpWpYZuWO1JVzN4N3WSfRBTSanSLTzYNMScy3DqiDQUoKdzFCrNNiTmzTJNA2BLQx0ANKbAYInQYE00NYLO0x0rhjYqGJAUSMETdAA0MWRIUIGDU2hiYwTAHLQwAAQ3mGtkZo0zQ5YIbaxpJqWPoOeU5CUPuUTeu182ULVskExU531WnkZUaZ30Uk0UgYKXbQEoaGqcNoVcu7luWGiYnArTaSZpnakltDWiw2EjPHVOqzTnobJcitUIjZaxWOs8mtsTCWAssEaSgK6qkpAxJ0pYgAKU0paG0MkKgBGlMaAYmgAGgazqZaJRWk6ADBNAwAATQAAAAiQcpttgNMASGJgAAAAAAphsKhVZmNJUmtTy+8ozHVTowAAAJSGrYJPFgANaPPk60CZRoOM6shFWQgVXCty40mqRFQ3pAmJzWG48YXROcu9TME6vKdLkjTO9JWVzYXnLIpV5/o0AACYZMEU1ZPRqVoJKYXOqptNJkIGACB5oB1QQ7QwEDSGAAIAAAAHDQ2MlU0wAAQAwExNMEMTEwljEANoAAHKYgAB1i0ADbrOKkQ0zZ4iaQU7eImmAq2eciTEy6hAgAWtZCYJssypAMTnZ5b41QZ1SUNzblRpnpUVloyZqgy0g0HMaZa1npm6azdKpZno5mNZq2RTJmqUFJ0xRUX0albEwRmcvSno3MvN82uyvdLCol8vSOxIeZEsE5oQ4aYgENUAACHLTAaBNptkgAmmgENNoYAgaBMBA0JpgMBIEwAbQDAJKlDE0NMjKUJgVtpzSpBg76ct9SW88kaZwDkB03QiaABmLbECm7y2mdE1noqmalsEyaoIqHU0xZPRY6sMrub5zTR4zeiIvKtBZOloBNQ2qBYu3FMMrvO8V0KsZ06sHQtQJJcEWTQIGSlTlUlV5oBgbeh5lbtNiFNc6GAAIGmNMEJMAQNFAmJgAgAaAAAAAGEsTTVJgAIGhiBiCnEQwdCHUJiBidqQATapWKlJVR3xxCGmkKNomkMQntOQNAN6zG0LSSoqoSkNbzzNGpoGgHFIpMTEqmdeY01nOdNM3vzQ9Gslu1NTOg4z2ixVjpcrOqcjynW1EaaSNZ6FGa1RoF2kqzeb0FrUZ0RfOSxAgWpDYNiEaWJjTVYG47JTUvBADBAEWCbETQJidEgNsJBFKRUACbRCsTIt5Q5qpYinbYAmmTx42nTQ8+jNsaCXGSmgKUMK9KCRDY3fFziYJNdcak0UJPPBMEFIK9Hoc5VCyHVEqUJAr5dlSppNTgii7jNyV6Xtx5yWjb7V47RFmekaI8/eHF1DV54obq5zqFp6PtZ+Lc6KH69eR/8QAGgEAAwEBAQEAAAAAAAAAAAAAAAECAwQFBv/aAAgBAxAAAADdNJgTo2oQ9LTcrMETpo7eafLvlV5aTWHQ1ZLE8066eIVbmC1qMY00zNoqOlRSYOAM9CalVUyJrty51e0YPSlhNNXriLpUsUtRc6KpSQADHbzk1MjQMpYTuKnNZSJoqpdwAmDYtIEnbTpPnm2nQMjVAAABERcsG7jXo54CxlaZYzbBsUrZACBoYpaolplPOWxk1onKbAEMYNAJp55g0mk+jOBiEIehk20CT1rGVaGBPRhnQTUtz1QxAACeHla8/sbBmXqWgTGDXPl1sl0YY9UIpUookq9uUjQm5dliMzPcoOfPpjXN3ks+iEqLWGySr2O/5Zxq82ld24SS1jQOfIYqmk+iUDCWh16/pqfOrssn5m24smglUSgBoZUQ0KQKNOnUzw6qEuN2iWNADATQwTxcBN5IuzoEAAA5YAAJjAAAM4EqqUm70BAAAmhgDENAAAyM6lMq4U0+dDGkPXTo88YCehWqAAAeeN5JvpE8o0xAaaC9e3hzYITWuszKpTU3rlkkLTXEus7jWaBMyeta4pkMqXSyzq5zqddoxJVa6cy10gis9KUzUvZaaxZnUXEsABAOOdA3czoF8wAgo12ZJTBUSAmAA55yQq2VD0ABE0xiaGmmAAAAycWh2mlltc0CAE6AAAAAAAASSbYkwaAAE2CABA6jAAaA00xzTAAOk5lSAaWuuMKgJBdLwAATWuuMgAIXQYUmmhq9MUxghxsRrJbUNK8rappKufZ52q0JzKVZWLSlE1lo89Mrq5yoLyqVo5laZauHnd1OVWqxEaNRGk6a4lBMie1c+dIUObOt4soIHO1YySxopbUmgYhjlgCBlTNSMBipNMQJoc0mKkE3DGJocaKWMTEFSwATQ6QNDEAmmJiYKQaGkrcAAAO8skAAHTXNIAAXtDpEoUq75gAaB9VCJYwGuYsENTemW8TrCUXLrHSXQknO+gs6y0uNAnmrV4bDOe9J053VmFLRPLeHsRmrx21FnUXWWwTzVVRYjHTSKwNIvMeirn1h2pSqenTLUimKLaxJpymitcEAgHqtMRAJg9wAABghANDFDkVSKh6TQAgJtggGhgCaAGJLOmEhbEwByxUIABMaxQ2wdMiQBgO1AAANtStISYtKzlkoEI6MchgALrXMDAQXtOszcFQwQ4prXJ6ysxqxJVlusdJphITqtMSqM2XBz63G15wthZ6JaVMTphssts3rc4l5aKsVsjNaXAKNKtYPolYoVuVNLoMql1U5051ykBAC6Vm6C2gVSAkga1coYSBTloAJdJZ6y200TomxAAqIoBphNIigBFBCbAJbsSbTATEwExACTGgKMoY0m2Ws2DGkI1kYxgChAAAXGQJpUD2gDTQ5xo1y1I0i8JT3aQxIG883SEnLNpG0yWhbMaVAJyTS0WO0NPLN7KiajJ6iY2pvPbDdmVxohWT/AP/EADgQAAEEAQMCBQIFBAIBBQEBAAEAAgMEEQUSExQhEBUiMUEWMgYgIzQ1JDNCUSUwRCY2QGFxUnL/2gAIAQEAAQgB/DueSwiQp5hE0Jldmw5pVeF0sM3CHzAv58vdHFsA/uGeNvaPiPI5ytSvY3DnyxRxxxxsr7ARON20BmwkZdftR/p12cMRYx8j3sZLJy0YJGSySHsuyt69DE8sh1GQv6ewmYMhzbaBXqKKGMYw0Nwhx9kNnyNiAYvQv0wv01ujyQNzFIYyCFZssnjMbHxRMbkcEZ9hE3LNz4w1gcO6z417DojhQxk4ep2TtheVj/iMqvnpWKBgDslxLjkrBXfKwsPX6i2nC4z3W1TOwNqDRlStw3IeT3RcVuWVuW5NkLTkRvZaiD1wBpDVprA7nQIEveKMAOUjHEjDis9kc4Ka6wAAs9huyV6k4SO9KMT2vBh2v+cOQyo4Hsc5xDDlcZT4C9mEyGwFsBXA9cZRrsytT2spPDadqlDPMvMqCN6g7BIv0l1tRdZUR6Ivc5jRQHcssUx9nNXRlhwppwI3ujhvQbMtbO94GA0O++arVnLDJ6SMLY04yGlYWriz5fNwUNBu2Xh0mqVhsrMEcHE5zXWo3dPTVWlJuJkElIsiIrSU7L3CLpoj7Nqxn7ekaukC6Qd10LV0DE6iFqFSYR7IvKrS8rtLyy0hpllDTrCOnWF5dYXl066CddBOtIhsd4XXI3s52OJPku1U8GtEiw+y4uy48LYVxSl3o6Y478BPtsx2JYU/LQE5+BlMzJl7pgfSQd2E2KaZ4ZHH+HrJG6Xyyk77LGkXIW7wGEraVsK0xxZPtJj7LSG9rKd9zlWtTQ9mnUWgLzMY7eaPXm0i83eF5w/PbzaRecSN9/O5F53MvO5151YXnNkrze25eZXE7V7mUNTtOXX3D7jUqmBmr0tmMuZwQey1aGKPT3ub3PuHfrPajC9wyx0UrR6msXGnPhZnMEmlSel8lfjwU/jjGUJYXewnrhCxVXPSXNTUfTzZ28bAE01ScHontZyNA+fDaQtnyp37Q0rd+phXR/T0EM7Co3kshadMeXRtBH+w1pIaA3c5p2tDS/tte1pw7IQlGMp9gMY5xsajI6U466YLzCddfOqlaw1rJrTI7XLJuY2eCqeT960mJ811jyx5ntp962OwbqN5rg5SzCSm96I/4Iqk3+liXu8rCwU1mSpC45amX6+BiOxVndtTo92Q4t/3LHkdrjnRtamvmaCA90r/AH45HODW06HTQhjZLlaIlrXTV5QC5nDJFmDVqbQOpj3BZCY8NcHJsgcMrRvssp33FN+Sskle6CLsDKEe4jkMUe7A2vjfsexm56ZXBGVwBq2tUNdkhK8ui9zdgbBJGGlrnO2iNkGHJlfmJAG7u11Su+zMyJkVZteFsMUtmvUYXS3bk9ol0i/8lyYA6AABr2QyJuFM8iIkSZc8tTYf917M9cmNWccCos3wgiRpbBK8+HdUP7jlqVghxYMSPd6oZrNSRskFW6LQL0SMErLcLsrP2NUYzKr7SIqCa30FdHZbFC00mOZExrjJG3GGcb3BjJ7IPK91nVmBkRq1LnJWjkXIDHytl2xktOoSxtiIXZdl2WkQRSWTLNvMETnq9qDKWBMdWoh8QTWwTTsLtXEUo54zI9xLW8YxhOjcFSdu02QF4/8AT6p46WFOfsyVyOGCspnstSs7eR5uTG7IHt6+ZprsdWkc+Mtc/sUVqOOVoXbPhpUYdbJVp7oocC/LVfEyKE8/AIlRBbHXldeYySKWNQ1OSIORokJ9GOOKVyieQ2JaJ9llO+4oe6xjw7IYLmZ42SPywVXggiyJMt31BmdREbVInk91pm54euJ2Fqn7mNVXlhkxFUeQn1Z2NO2Yf1D1A2nQqszZ16uwf08skk0j5Hv+3w/8lyY+vx7JGvqxB3EFYH6WVBQknsODWaJgd9TqCu9jBP8Atlo8Y6YZ1VgbQj/JR/vlXmHknVajNMApdKcxhK0r+5JgNGCtrcr0/E+NrFERzkLUv7VBN+3s3nZkPm5nylzHMurTuzMSXhWFB8UlbTZHNBUWlvFmMiFsnTSbLG9spD9Sc4sB/JohDKtwmdoa+Jf12pOaZnaXI3DlBOZ3wE6l+1vNETh3WfbwpuxWmCfn6fVH9rCn4OQt3whIMYTMFgKnjgeyWOStpcYYNzqfA8TMqSPeXvUr8SAF8u1ajJ/UArkK3nK0Z56iVqtbsNKbpEDZvQ7S4sLoumnwJnsZDKV3XqKAJ7LGBhaGf0rKP3Jvyu/5NJ6SVgapRUia7desCxNltGOaSaTijpagBlOpX8BHSrxOFpdOWBjxJ6dmVrMEkdljnVpRBMJDWuae6Pcr+p1Y2foHJJKfI9+N+e3g8+nw5DykoylCcoWChP8ABrvi7MfNrkIh/TsW3WZhJJLIHswNMLI64zqmx1JwHdYXdVXBj3Ey7XPEraNpoed97VmMeY4ajBGCTkEFZBK3j2Vh42tUTxzZWo44qCafQntgx2j4GSB6NyAjtLYhPT2G5r2HZY18DB2s/rEMZPw7WVHuna+29rdS+wfk/D8r82oGbS+NoLHNfKTJJJCwKONokksO1LmbSmC6aff24pcApzZAFXceB+X/APt9UXf00SkA3YW0ZQaFA4H0GWLcSWtsuYA0yPnsNLFG0Qs7CUSSOkXZaq0B8bvDcVWscE8ciJ5GgprZYXZa+xO4YbHGWOy7WZZGQdPF0tpCraUNSxvBc12WOK0btFZXyoYJ5d3F0d5dFeXRXl5fqCGn6l8GhqZXl2pdlWh1qtniz+IcbV/6iOEB+IiVs/ES4fxEW4U+na5YwJfI9TK8i1JDQr68ivryW6vI7i8jtq5p0lWIOcumZ1LmDoo10LF0IXT18YPTVl0MC6KDuuhgyuhgIRoRZKFKDvnooU2pCujj7IVYV0cHcnpYQV00XxwSd8cUuEIJlZilDW5rskZN6tSwItPTnNbChTjDnLy5hJK8rYRlOrcQ70oXRTFzOePYXLe4lobPZfBEYW162GjFyudgKmjDJXNOGL0KCXglZJHWnilYZqvPEXlhM8DW7lK/BPNLqx5Xcc10zdnjUbO4uQllEEsSijIhepH40JjVRI6ZqjeXsWQt6fM4HIjvRnAkyD3D54Y+5fekmOGxSkLncrskj4TjrLIQvWl19xVtZuRO/Uj1GCbGHWY29zd1/Y0trP1HUnEldbqJXU3/AJa+2Iw1+wtjWlyNir2nPWi2ZIIpQ3zKdeZTrzGdeYzrr50ZCII5E+SzzV2N6+fjDlXlfLv3DOF613LAV+p7KbeyCVwZJM5jioy8yDMkmoh7hHyast+sLfqyZJq7xlaz13TR9QPZB56kktlKMpaMrqXuQleoe+7fvag9ucre1bwtwW8LeFuCDz3W8LcU4gjJyFuwg7K3Ky8bWJrgXlaja3OqxAWsgZE24lCRcifPjuhfkj+3zmfGEdWsv7GKx74bYIGVLaJYVZtE9z1YXVBNusUeobCHMj1+Qfd5/tbhk2rOmPrN6NdZGurZ3TbMfcp16MwvY03d2nRVm1NwjaoDt7rGO6+E9oT4/dca2AJjPZNbjwlHYqzAWPJ8B4PcAnORPgFBE3bzSxNfI50j9kko9M25jJGeGjalFTErJTr+nLz+gvP6C8/oLz6kvPaKOu0l55R7rz6nlefVF5/UX1BVX1BWR1+uvqGFfUUfx5+F5+V5+9efPIXn7wr1+W5jf8KagBKSwwSNHYslfhMilzhcc+cJgtsyWOs3WfcLtr2TZLuMrkuZRdbwuabBB8zI9xqfdN1LKF4ZK8wj7J1+F3ZdZChZhXVQrqYlM/e0AVjuJKtem4MtY5x2pjRtC2jt4OY3Hd0QwuAJtdRxgIgfEhVhgRbgrAW0FDIW4LLUe/ttWFtTWgBDOwqM91XlJqtUHdibkZCwFJaqRvLHm3p/ddTQXVaeE29p68xorr6Sl1GrjAN2nINshmoArqaPx1NFc9Jb6ZRkqNQsUy4NHpXA6Z4c9w2twtu4uzN9v5cjcAgYV+mstW4LeFvGFuai9vsN4W9b1yhcgXIFvQJLj4ZXwvhcQOU6tGcro2KWENj7MEj02vKDlccwQE21bJcrY5cL1PIwdkI43+xgiGSmdG5HpB7/ANDj1Z0jPc+UOIa23HDDaMTGsYVHXjPdRV2vJKawCMhamwC/GBBGC1rXHs4bgxSeiKR6oSRyRnlDagW2otlRba/wRD3ThUz3ldpzfuzpXz/xK/4hf8VlNGj577NGRj0lWDE2wWxJrfZbRnC4/wBF5Uf3KkHNgiJaWgenJTZCD3pYt3rEsnT0kIqa46/KVxVe6MdUBcdbCu2qsMoaILMUsrsO4x7cgBQkHdB55AVyvwi+Q5Vt79wegJpAmFjOxhc17OzmFzHBWuwA/K373Hw7ruu67+D87DjHtgDt3WPEeHs8fk+E9/E0yqfWb0rnui0vV3zyCCey3IAULB2WArs23LW1JZ3H0cfbJDWIp8H6hVZgYwNTwnR+rtJG5oygWlSRFw9JgdhXYY99eR2GthdKmaiGuO+J0M7GmF4xGtW/kIlJEXPjkE99sOAoNUD3Br9RmDaUmNPj2sCDRhbVtwUXRhckKc6IhXCOdyjxhOAyj2K3LKyu+VYHqBQ9uwdhBzpGpvJ0ku9nZwQf+hHiBoLGPlw32damMdWy46QGsi9W+Put8YUk8bCXEW3lmUJ5Xu2jNgK7RsSyF4rUrERDjxTkqXDcg8sa5AfbJOUCFYbuiKq5kjijbE0RtlirSMY8y4bJ/u0cjKz4/CZ2BWUJGk4WU+fYcKOXeCsnww0d138JJCzGI3b25XbC6hmcLKd7eGCvgrIViZ8leWF9S4aglaaZe68yRrHF33MOMoy9ipIt4y2KOVo9LOUnvv2js+zI1OtzIXJ8p1qxjtyjZvdFK2YHDWj3PLCwjOxnwYQ8hrtS9NaNgZ5b0sjjo7iyaVGWKVhazWMdZHII7EbwGibBlcu5ICsTumjrxqKFoGFNNNFIWivLO93eWeYslKrGR4BO6tXjc8tu10+em49+SkAjYpeytRxxE7GbiV+puIXM5RckntajlaPVGfQE0kYUJOQnuHTyhNHp3qHVIhCxprzmaGvJFFNysjMeqT8kBDY642BXOSNzRHE6V79sk47uaIK54C4mWSOuQ2OSy5m47pMBbp1+uB2c4viDXsrncCRGWkgWJZuXApOlk3A8G/3okxvLlJyuifILM0tdkxkOrPaXtL3BzO27AcC3O0ZTj6UPYI5LSAyN25HKMIf3LI9vtg+GPDCdGHYy1gAwCMghCB2cLsj7IfHg5pcO22QnLjqGm72OFifSJ+7qsukxHLYNRpY2ltymU+eqjbqsGRHfqlqbMzCklrKeSuSFYJ5DipIM+qDi9JGyJcDG+x2YU1eV7u0fZi3uYNwjjFyJ3M/Q5dxxFSEcJapJXQhzlqLTLFHIN3qC3sOESodpsBRyDY0CesJHB4DWQML3R2Kgc5ZpNjOyxPFIezAMJwatinawbcx8Zy13FDGNyZxulJHSO39oYjGArETZGOCg9nBYZ3TcIu7INL4NiDWtf3i1YwEGKTW5Z/TNYvRyy18RX620bn2ajiuerGSV5mS4pl+txhS3t/vFag2jL7cCFquE+/AGHDdQYO68xrbF5k4YwZakrsujs1oh2Oo18DbDfjZZlcRqkDHZZ5nHnIe+F8pcg0u+0yvYcN5JVySIySFcki5JFvOFveuR63vW963vW563OWXLc5ZcslZC7ruvUsOXqTCQ7vgIrsgB44W1YcsFepepepfqIGZvtz2j7h8q5p0LE49uqt4QsWxnHPaXUW1zTg7iyQPpci5ncmVVriRuVJSbsGI6O4ptRNrYT4WvGEaPuUyrhneWgXe1enGAWudSj7ptKLCm0+Jw7M04gI0GuaE7TvUCGVWAhdG3cU6kzBXlsbA4qPTQ9uVJpcbBuO+DkUgEdCVzFHE+R4ZH5RqGMqWF8TyyTatq2rYFtC2hbVtWFtW1bVsW0LaFgLAXZYHhpjN7Jc7UB8LY9cb1wSLp5l0thdHZXRW10FxeXXV5bfXlt9eV6gvKtRXlGpryfU15Nqi8m1ReSaqvI9VQ0HVl5Bqys1Z60hinx3GVT067d3cH09qy+n9WXkGrLyDVl5Bqy+n9WX09qy+nNVX03qq+mtUQ/DOpr6Y1RfS+pr6W1JfS2or6VvIfhS0vpOb5H4Td86loFqkzlYDlH2K09pdp8oXlkL2iZlZsTGBp2xgHDGtAKdJFEzLpNWjB9HnD0NVB9696tJ2T5e5CaW4RwV27rI7rsgW4XEXewg7Li7Li7YXD2KjrhqnZuBajpB5XKxG1ukS4+VoWnPryyukczPZXNOoWix9gaFo/x5LpG8tUekaBJI6MeR6IASmaFor25D9D0hpwm6JpJUeiaS7GfIdGC8j0VeR6MvJNHC8k0lDQ9JXkekLyPSV5Lo6GjaSFrWjGm4zQLRhmGyfD8KAf1j1u/wB1br53WGO3FbnJz3hritzsDL5tjXOIcVum7pj5HErL1lyD3O9muLvaR8jG5Ecs5dgnevXletdwvUvxN/IR5HuFpdAX7fE6CvHC0RRDaiCAfzP/ABG2N9mOWzq/S1oXTU9dfLcbVsy65M+WRlGO6eidYsaXrb71kwv/AD/iPT69SeJ8J9lpQ/46Rbf6fKx2JXOQo70b5C07mO8NpW0rb75Dm5KzGhxnuhjCwcePqC3P+N71yPW963yJz5SCuRrqoCvuzpc6GMjMRZJExzcLblBoCPcLpYd2U2IBHdlPG/AUkAkbhCA7HNTK7GN7ggYC9l2KwF28S1NGFK0Ohka75ctEGYLXh+Fc7Lil3lm1PrPZqMdiHuu6eHbHJ7pO3JddYdvasItkLii2RzSFJDJg4xKwgKGN2wJjCCQnwl4CEBaSRtctpQaVtWAvxN/IMTPvYvwz/JFf5FAE4TvY/mfp0sv4g6h2sVLvW17lavQu3LvWXI6GpwwT0VPpN1tCKjFV0/UYdXZNL+f8W/8Aho+y0sgaXIpZLAhAb1FgZVizL7KElsvfmK5z8c+R36gt7Dnz78/Zc2ThCX4JkGCnWMLqAQhM1MnzkI2GgLqu2E22B3XXxLr4Ub0GCmWo3Rtarp/4ydD7mqXMTyG9VZCOoXS0BR6ndZnLtUtlzSn6hcccnT9SkGY5MZW1bfAg9kWdkGnBXGPjYU1jiQUPyPzxvTvuctD/AGtrwqahcpb+n+odXX1Bq68/1dee6uvPNWXnerKvNrlmrJPGz6jkcQsfiHikefNdTK8y1JeZaiuuvo3Lp9+rtrqbS551yzoySLc5d0Ez72r8N/ygX+SBPfDvY+EzJHhrWnnDQhz9ssMpDiR1O4JzXcjsk2sdm9TlxJ6vbkP58Dazk77msmb7bp8nLJWgfqeP4t+ymj7LTMeWSBOu2IYdjfNLGCptSfztLq16R075HeaBHUGLzKFeaVdoC8zpjORqNMErzCkR26+mffraS6rTvnqtLK6nTl1GmBCXTDjLpNHwt+kLfoy3aMv+FQ8r4P0rn8VN4aGOuhmFjyiqcKTRoiP071EU2NchJn7sAjIhmkheHsi1luByxSxysD4+SMuLUx7HjLO6wfDsASTq0DiVVuyWnlrcFYPhq2r2ZLsog8x1A+60X9pb8D+TCx4R2LEbSyPq7aNmyc5wF2XZenC7LsvSstXbH5Amf3WL8PnGrRL/ACX+077SvxFctw3wyLzLUENR1JeY3l190oX7hXXW11lldXaXUzrmeVyOW8Lc0oDD2rPoBXKzsmShy/Fv9moj7LTf4x6dNsqAIWR3TXROnfI+tOwZJ6mNdRGhZo5IceMN3t56xT9Q0xjy0+ZaUV5jpK67SSup0pNl0x7to46OE2Cm72NKvjK4KJyumoo1KK6Wkuk09dNSZXD47P8AFWPD8PWBHZfWIVqdkcD8y6bLO4STP0mBjcuNPudtbTY5shztFaRhDSpOPjXkUYyhpwaTs4bTft47qbXvOcGo6OHjEs2m1GdmR0odwXkVdwBFjRGR4IvUjXDXLTdGsXWl6raJYhsF1mRwe97lo37S2fA/kcO4QrlrQ5xgBBIAIdg0abJoXvPQRoUIFXpVy/C8urp2nwLU4mxWNrWR78lcUYAw+q7i5Qz7fyBR/wB2NaD/AC9dfKIHdNIzIF+J/wCQYqsAlySxrk6EuafCgzc5ikqxBjitgW0LaFL/AHF3JADGsbkIMz9+NpAUf9tisSOjcGsi2uYx4/Fn7WqV8LTgfLXp37YIjuVgJuAvlalacZTGziJUM9im8PiqTCdm9Td5pPGp/faE+D0qZoi41esGCMlS2J5+xifPC4PjpaibhxIdwXdZKd8pv7YK2f8Ai518qlNSrASRz6zdf2ZHJNPYh5GRAOBV+VsYkkMu6w8PUU7o3RtdX7xYJHcqXtG9bgAclzV2VBoc9zlO08WG2hYFpzFFEWSh5pT8uHi417mHazTo7+3kZEyOMMbr017ik2LRv2dv81SB81gNYyrJkgyVHYVyAQyRY0hudPnKx3TQdrVWaOZ+NnqanNO1a3+9KrthNJrVHSkcFJRmzgf/ANfk/wBKP+4xaH21aqvkI+z00DL1+KP38ao1nWY9rYNJBYM29NjhhfIflaRFyBqmq/oSY8Cpv7qqbOrh3R0uaV5jdpTwxahFHDJGxsH9iJXK4lkiJrMfHA1r/wAWfsoF8LTsjTX4OeAJwHdYQW31BSwOfbc1V9Ee5uTe01lauXu0pp2OUmRK/HKeMNXN+q1y014dcwjEMhawzEtLGrscXRBU9OmlxjyWTCih4L8bW9vDsuxBQI4Wq5/FSr5C7Y8IDiViZjAVxkewgw6cMNy+sI3iQRdmI5yp2gwPXpDH5bux6m4WnZ9QU7S6Iqvpzvd/QtDDivXiYQI7ADYpHLTxhkuC3Pvcga+pOwrR/wBlb/NXe+OwxzKDKsjQW2xVrs3S3Jea29y0dzRQlC3BBzR2VVjebsGhOaMLXARdOdJlZD3nYa3Fvbq1+sIiyuPb8gUP9+JaN/K1V8hOx6037nr8UY66JQyyQyB8cX4mcIwHajqlq/hqEUxWn2LNJ+UdcsPaQv6nJxi1hbbRUlW49+5dFdWnXbUTAyxZ1R4Z/Ty1tSnldI+sHNrQh3h+K/2EK+Fpvq094W8ugC9OSsBYHharhzjItMuwx1mxyWNSdYr8RgibEwNU/wDekQ8NHGb7F/papDyRxOVmDmj7aTxxPlc/zCAvmaK9dvUSTN2rYsJw7FHtC1W8+VSr/Jqx2z4RH9RiZbr4wXWap9xfqN7AW6r8kdZVTbkHdSW6xa4IcridpM2e+6Zqp3RDKC7zCkhYrOPo5oyELVRnZXr8JxGzSLDJXWQCtZtCClKfDSf2NvwP5AmSyMOWPmkkPrEViVu5sXmcTdjN+sFf8wv+ZUljUoziTrbqfJJId0m8rkcFvK3DuuyHz4BQ/wB+JaScapUR9wu/6qafUVbnjrQiR0duUxl6yMArK5GreO65G4yi8D3Lw37uVmMprw4ZG8ZDUJ4y7aBPGSAuoiIBDJGPGW+H4q/j4kfZUQPLpCujsuga9vQ3QujvLpLy6W+unvhOq23H1cF1ow0s1DCdXtEknpZ10k6gZbgcXR9drCfc1R7S14ku5TjYJ3HM5xu5rS6iyuonXUzJ1qfBTrMhiaDb/iHJv3tTjuJ8C0eO0IsC2Ly2URMlkuVq8PBxbAjA4DJ2ratq2BcYXG1bAtFrCKm1/h+IKr567Hj/AGtNkjj0+2XorS60M1uDnh02KxqWoF2oxWWPYZfHb0+lRTii2O4+xAZp5DK7HLMuSRZJ9/H4XVOfFWa6Gw8TCaubLt5AuXdkclYoJj9j2uOnfyNRfIWC50mW53lXpDHFG8UZ5LdEySXmSSwcbKNtrpLDpIw0C8ySMW22BzXw8yukjmiFq25if1M+nh767JWWWPkrRv6u1ILcc/LFZYyhJKLBMkcktOCBunQWIJhJJUieySzIfD8U/wAcxfCoWjxGBcF3gjLeHU1x6mtuprGqr/lFnVVv1RcuqLn1NdRqaFrUkLmorrdQXXXkL11eY215lZXmNheYz5XmUq8yejqZwV1jbEQjOo2HcUUA+R+TC2ratpCbE5kDpzqlyAClRVjZPOZz5hDWGIp7NmycyrCwVgrB8A0k4FZhZWiYcBWhurWB4FzsFvgVp+quglqtl82ikl1Bklu5G7T6tKNd13VeWMVzC8XGZypX1JpHSSbNPW3T1K2Ld+jgrBW1y2uTNWut48QXrsLdjX6nddHsFiSzZlMknHItpHufYqjxi3DI7zrSyex/EWm5KP4k00KfXNNnjY1S/iGi9haPqWjhfUtJfU9RfU9VfVFVfVFdfVEC+qYV9UsX1UF9VL6qX1Sj+Kl9VhfVa1TWzqFYQr4Wn/3XIyyNiY0i8ut9kLmULS6orqijaPuuqPx1L11Lk2clc72rqnLqiuoK6pdQELDV1DV1MfsuoYnWowCpJmPq4F/+5Eu2Qjchz26yD56qohagIQs1kyzU3DeNTpRnEUt2lLYjM1a9p8MtmUc+nvdvfv0wr/jz7YpINon326etunL/AIsInS1VOjNnYX+aaYjq2lo6zo/zedA+3O6F/v4ZKyVkqN434durLfWXJAt8C5IFyQrkhXLEuWLC5YlzRLliXLEuaNczUHEk/kd7HwHg/wBk32/LkrKBKysrPjlZTidwXbx+FpjcySKODkrRgPpM2p9NvdGsGsc4afanqxLzdxIDvNy0rzxq85ZlM1aJ33NuQvPpEtUZ374SAW5g+f0CsQoMh+eOqnRwAqyS6wI29G5dLL7Lo3ADJrBsEjjqbds0XhlZ8G+y7ruu6ysrui4IHP5e/g74Xb8jvuQ/I33P53ZwcDdn/o/yP5Hex/I73WVldvArHh2XZdvzP+EPbx+Fo+N0ygBETVqOovjkMMTb9jcBZlaXQvahTkwGp2nSfHl0pCGnSfLaXcKOg05LmRRN9td0+zLYbLFoVaavWLZdjCuMLZlbey2rYcqzCTYjKdFta4p2r12ucG07EU8G+KfD68i1pgbLW/J8FD2/JkeLhnugMeOR+Q+x/K/7j+Q+xTfYeGQfAuIPZpz+Zzi04QOR4bgT4fI/Ifb8nz4OccpncKTOEzPjhY8H5wUwldwuQ5QOQneyZ7eJ9lojAXzZra7TMogWpwuhuyPUz3Su7wh7ul3swpJ3swGxWeYEKQHuo+TlCftZlckwKfJYTJLOQmSTfI9u4f6sLuFvCypW7mOVx75dEe5td1YV5Q/RMieVdTWsxSMi11gzC5Z/K8kdkzK/2thWO35T7FBpz4PJzhNJx+XK98lcbenbIhnA8He3ge4wg0+G3JQGB4d/yEArGERkLYflO9vFyAy8YkDmEg7ity3YK5EXNK3gLlC5AuQLkC5AuQLkC5Grc1cgXoytwW4JrgFvC3BFwWnvMZOYKGmxy8jn2NNfEGubHpAdkSWajbIcBaqHup5Kj2YULqkSbbqrnq/Bnq7cJ8kGe05afaLPI0qDjGAWPbjK3NRcEQE32RVFhEc8Zl0Mcp2eWt6SaBtXTble0yR11jrO8F7TG7a7kW9bu63rflbsLkXIVvW9ci5FyFchXIVvK3ZW8hchW8rkXKu7jgRU35LS+I8ha31r1r1LJWSsjC7rusld13Xdd1grBWCu67YWCtpWxbFsUThEQU95c4k91lEZW0Latq2Latq2LYti2LatpW1bStpW0oNWAsBNwqU8e7jfcDeoKjGQAWQqVjG2nAsj3WSWGkw+5oRroGEroGtCdVhAXBEjXjXExcLQEGAZUcYcjAc9uJCN3wY5/dMe+OVwTZHuncE/Ijei+ZpiLdLn5XyMke8l7ym4KwsNyVtCwFgLaFtWxcZXEVwvXBIunlK6aVdLMulnXSTrpJl0suFwyDK2tz3O4HLdILzZ2m03balUUb3vDGeRahjK8i1FeR6kF5NqK8n1JeUakvKtRC8s1DC8uvry6/ldDeC6O6uluD36e0uCyuGwuKdbJliXK3SBF7lvLgc/6z4dlt7ZXZdl28Pn/wCBDnlYsM6iYOZXgQrQgLpqvISv6Rg3Flim44HHVcCuKvgkO6TaunrldPXXT102Ko49unrIV66EdSL1ONrTl1enoWNOKaKr+7X1oHH1Gi1sm6N1ZzgQpKTTtVKPi1Da0NBytBoRzuBd0kK6GBdFAuigXRwrooF0cC6OBdHCukgXTQrpYV0sC6WBdLCumhXTxLpoV08S6eJW4omxZE7AJX40gf8AIsV4YuWFpJDLm4xbnBGVoJzzRoPjXJGuViEkfzyRIPYtzFlq5GZAW5q3LPg87QSY5o5QTH1UGCuWEsDyLFVa9DCanKB8r58NuP8A41Ru6zEFGz+vnao4WrgCniG4Lje52VTqs2Tb3xAxRsZCGkEq3A1schFdzSMOfFDkKSKNqkrNd2ZHBA1hL7V6PLmwFxccloBcMywwiJ6NqQaYJk5lwTQGFk9MGu1GLJJdwZTqoKoxjzeRqbjutBi2QMxgrBWFhY8Cv/vxwsLCwVhY8MeGFcH6SmA5pFpHfU2K7+7sKh98qpShzAvlbV38LEojAw+zCcgb8Me53K1rcvdJGAmOjefS2CNq4Y1wxrghXBAuCFSM8o1DcnbTXuOFLbC8Ubmk6fVntW+T8QHFBD2R9z/1fH5P9/8AVpozdhUfG3UrTpI4q5aC3igAypWQyuCjpwMQrsXDHuG3po10kRDl5dB2XRswADQjT9MYRgarea+V8FdYWEGLatqwtPuOrygOZAHta5vRlVozHrdhq7DctFdmvAFhYWFhYW1bVtW1bVtW1YWwLasArAW0LaFtCtN/SVjHM9aR/KMV795ZVWbjkwqU2yXaW4kZg9MxcAwuBdK3c5ybTYzG3phkFOph2c9KU2B7RgcUq4plxWFx2lx2VstKzSfaidFMPw84VpIVNoFIw7Y9M080RLn8QvPTRNQ+V8+I/LhY/wC/S/38KOHX7rDWs8MQaptV5OwgnaMPd17U2609kJm+5EjD7PtRx/d5hAuvrrzKqFqeqxGAxRbYFiBYgUVaOX2ZptYqeiyH321VsrINqrS9QgiYYX3bVWxDtZp03Jqjyg0nctOkfFUg29ZMptS4Ruk89rIa1CfbzmFDV4yjrEQXnldeewLzyBeew5XnLF501edsXnAXnIR1hedqDVxO/YDYnTpZH9nSiB7n50nHmoV793ZR+VBIJI2OU+pSVqQmZ9T3V9T20PxNbX1NbX1PYX1NOvqadfU0q+pnr6mK+pgvqeNfU8KH4mrL6mpr6loIfiPTFBdguRmSE5X4gJ2Vx4H3Q8IIg8OJbA1xDRFpMOPUdKqhR6RVfleS11Npkcbl0Ea6CNeWxoaGwheQxryJucLyBo9/JoicA/h4o6A9HQpApojFK6Mr5WmDN2JQDdqdtdK14wRSjY7I4QmwBRsaGelhjBKyzBwD74Mf+uNyMRV1xksyuOwrjK0+g1zepnkbCQzLIofmQvcBxahSBYZ4e675UbnRyNch6mgrTwfNZFEcb1TaRTiyWub765nMOGGRzsLc4AqN0gAecvd6gXP7uY/exrXLlfgrkeuR6aXYK9QR5NyaJJHlrTI3AYpA9hG57HEKjnrYM8MjgCuN43J+eV60r+VCu/u7KPsqUm2UsN6X+lDPDt3TGDA3cbMkCRjmHDo4y8PWAg0JrB7qNjSSEyuzIKuxBmwhjS8nDGMXFv8At/8A1aEZBUDWSXJGOlWvyPc2Jrgj7lfHhT+x606HfK5yLdrQ1XeVjw1pM+4OULw5XYgYXHx+SoO7AtqaxWpWtaXuklkdt2VrGGtadgc0FPjIDlqQxdm8dK/fRKkB5nbQb7LatoGM7cAqy9zGNYJp2TRGJjDNHFtYx0jTXkeWgBYUvpikKEETmlw4QhXDiGjiY3a1PuRwuZJM2abnMqiuSTPkaWDlax6tRtrTPaWsa5ocOMBU/XAxVARrEqg/yWmDkgrhTjezctcxvjxVAO4raHzxRkyG2I06FwYE+MxSxEy5fAWLgl7oV5TjHSyYJUdWTsEKz8AqfLQ4hr3wtgEfEe70WTPMqa0mMZqsxqEKDocd90ODhw/WetM7aqrv7uwsdl3+LL+StE/wZgvYFx8z8x9HLhXGPDCX6djdKDmut0GQhw4KpiJ82B07MLVxgRKo5zQ7bHVlcE+tPCCRO3E7wvlaHBu0+NyfQjkzn8RR7HwoI+5Q8Kv9qRaOe0uHA5aVFRc1539G0BRVxG8q1jhfkbcYGPdO4w9wVRmYgiAEMYVtrXRMYo6Tl0f6ndnZgTu5LVqv7+fwwtK/fRKv/I2UHDHg5kbjlRYJIUrWv2OUdau6UuidVYQntdyxRp8hxM5NkfgK3JL00qMriAFzyqrYe2zASSwukYrNeCSKJoj05uO3FJTEhaHSRwQtbqcrn3pk2aRowOomVCxPxBU3E6rKoP8AJUCRThw0nuG652fGqXs8JvGyaGV1WpA79SJ9WLaptrrRMc7gKrkB2C7YK+Qq7PQEMMeFK5r5XRisXWGsrvbTZhaiGxDZGBtACqerUY/AKXHLItM/lVc/dWExuW5RaE53o2eHscrSrFOVjGqU1Y2nfql0WZQyOrII2TnwyVuK0VodYeTsZtWs/cwKjaFacPdWsUHxAt1DUqddp4SS4lxWhM/4qutq/FHaWt4H3KHt4UgXMeFQMkM43dvZDeCMbpSg0rUZHNYGNIesFAOyqoIjCPsh7IxgnKzjKLSTk5wEXZJctT/f2PHTP3sSgDjfsICTsmtKcJCot7Hhxa3jKY0NOQTKR24/uxaBw2JrWy4U8crmEJ0bwXBcb1xyKm/qK8NlrWNdh7C8hPjMpG+aRsbJLLn73Oc521y2uVNrmRDNH16m5Qez1RH9HD4alSlt7DFX0q7G8OIoT91DBah+yWO7MMPdRnxgWNMuyANHk1xeTXV5NcUen3WjC6G6co6faLhIRVd2Jxb27UaZ910TsFVKLa84ldyMTZI8qSN/LItLz5oFb/dWFBIwQhrum0qGevSdfhFW3YriKvVfGx6NSoujqI1Kx9+jrLpa66SFdJGukYhUHx0pXREroHLoJF0Mi8umXltlUrLqtKGEjVQtetdTYhI8AuyJ/wBeHdZct8i3yLkkQllXU2F1lwLrry6++vMdQXmeorzTUl5vqa8z1BPkfI4ud4ab3uxBVGN66dCJrVtGFsXH2W9zW4UcrMYBmjx3dYO/9NuChtRMXzqL6kEpXVV11NdVdTFYkx1b9abLhuZhWb9Wv3NvVI7WOQzU0JqarPpyWI2AVYW9lSbt1SZRnblfAWnV68leSSV+mVuVxUdSCetzu8poGWXZSq1LsBKt12McHM2hbQtowtjUGBRNrvdtTabcDd08Bdxp9eIPTooGhTwRNYMP07TW2YIANP04umJOnVIXRh5iDJnNUtt7stWnSMZqG98z2yTSvG704UOvahDCIQ9znvc99au6VhIFGfHbpbofhCDUDIWKUX42Bz+eddRMuomXUTLqZkLEq6mVdVImutPGWtlsOIAdLOzG7qnoW34XVvU8plLSV/tfH/V8J4iBGz84/JXmMMzXrTMFzyoTFtO/bXKDYFsgXDWXBUXT1V08OOwrx91wsyuAFTadBKMO8mqjsho9XKGlV15RXPv5REjocaOgtTtBXkhCj0ks7oV9jXK698NiyGs+0JjyWBMsSxfZ1L94kT7kryC7qn7i5MsvjGGGbPvyNW8LcAsr/wDQSO45nrdL2X6xwszkYRMpHfzHUCFFPPC8yRsvW2F5G457Pzucpuzk32CdlepetYevUsOwV6wvUex2rYFsC2rCwsLaobViEYjdqFx7w90s8kuN+Vuat4wV9y+PD0r0rsgMrjXEVxlcZWwrYVsK4yuNy43LYVxuXGVscthW1bVgojCPuFpkldkbjLtYXAsaxqG1SzRxmMHYSuEldOFxYQYtpCezspa5dlWNJkkOWeUWhlDT7AQpzBdJP3XRWlJBKxu5x3KCJ2e8bNzRiOCbhBWsM2XZQo/tXsseA27sHEOF+mv01+ksxIcS3QL9H531sJz659t0C311vrLNf4kdEAh6hlYRTW9k+PfMQh7ePws4IW5uVuGCshbwt4W9q3jK3twt7Vvb3W8LcFyLkW9Zy4+Pyvj8o9/DJWSslZKyVuK3FZKyVuK3uW4rc5FxwV8fkPuFTjbKzDq+AwJpau2Vd/U1GrGmh2Atrlhy/UW563SKzaNeF0jm6xM54a4z2iOz7V0exvXwvMry8zvBDU9QVy1cnrlskDdzQoI++EyEAZV2B8jG7L+eokzH9oQw5dNLjKI90P7h/PI5zG5DLEhcNwA+FgINC2hbVMMsUOCxMjc84a+FzO7s47Kb7ym/b4e5Xwv8wvkr4X+l8lfCx7L/AGu+V/pfJXx4/Hh/mF8Hw+fzD8vf/vPuFp6jwXYXVtY4MW87gSyyw6jYkPmVZjfV5vS7rzaltDk7V4CcMkv3iQI+q1AK3LcmhLJA2cvaTyXdqkfZAJIsh3uJYvnfBjuHwImJzHBUcEOChhDMud2LSW7t0eVeH9RKo8bQoMDLl2a0KyAQJFEwnJTgWjvlHICHvg7O4A4Iu4XTQn36Ku09uCMZRaNhcGZ9xyOwjKWkZEpyn8pbhV3YL2lnbDVvDuyf2JCn+9D28B7r4TfclD5W4L/WHOIKDichf6Xyvjw+U5xACY4lf7W8Lt2Tl8eJa5o7rtgoL/a+E44CaT4OB3IZx+Y53IewTjtCaSfdfP5D7hRveAQNOlOFxxu9SsSgArTGktLlaiDocOFaIxkK0wMFZqbDiyHutF7YzIx8m+UvXuuN/us+lMke4xRJtQjdunjDIGqxD6goq3rCZC3Cqem3LGixs0RUTG1oiprkzLDgHv5p3vQkLNwVaXb92+HbhWZhIPTUazI3zAOacCP2CkA7YiriQl6eNp7MzuK7IjuU75Q9lXDBAcS7cja9ocQU1jS4ZPuEWlsgcmSxuxuklY0HAmex5IaC4ru0nAz4fCHsF/tBhX+ltBysDC7L/a+F/pfK7EIbQu3dYXbsj8ofb4Hvld3YVquIFvK3FblvW9ey3hcgXIFvC5AuQLkC3tW8LeES0rstwW8ZW5qyFkKMbnBSAQ43NtPb9otOwU61vbtdXv0WYz5pp2O41KlkqxqETnjji1TYrOo8yjnh77zPVK5IAhYr7ULADgVDqkTB6pb7ZMrqqb4wXx2tPC62iRgzWoYrLZIfOZBjDtXmeTulsiRxcmP6gxNFgASvDf1Oy2ye6dyE4TJ5mrq7C6ufCkdI92U187fYumJyopZ2HI6qwuqsLqZsLMuUJ7ACLpio7M7QE69OV1dhSvmkOS3lcCsSjK/UOFTh5XkK21jZXNAHdbCthWwrYVjsti2ratpW0raVtK2LYuNbFsWxcZXGuNFuMpjgx4xacX2ZCcekprU4DK2hbAtoWwLYFxhcYXGFxhcYXGFxBcQXEFxhcAQgBXEzdhcDDhbAqx2TsWo5FyTETJZXbW+X3kdPuEry24vL7i6G2uitLobaNO0ukshdLYXT2F08y6eZdPMuCVcMi4nrjctqGO69PhpEm6VrE7JkkIgr2Jzti6C4hpt7c4ry26vLbi8uuLy64hp1xHTLi8suLyy2vLLfz5XbXllteW2l5dbXQW10FleX2V5dZwhploZXltrBTw4EtWkMJu97LP6mwtP0x9tz8H8Oy4Q/D1hfTtlfTtlfTllfTlhfTk6+m5l9NSr6akX03Ivpp6+mnr6cK+myvptfTZX02Ufw0V9Lv+Ppif4v6RJUaHHixlTtAs2AtKrRzbt3kUC8igXkkGcI6NB8RaMx+4O8hiXkMS8iiK8hjXkMa8gjXkEa8gYvIWLyELyALyALyFeQlHQXZyjomwZdJGWPcwxN/XiVjcbMudHzyWMRUazomF3l9NeX015dTXl9RdBWXQVl0FddDCuiiXRRromLo2romroQuhXRrpCujK6IFGg0grU4o2XZWs0j98xD75FobN75QulrLpay6WsulrLpKq6SqukqrpKq6SqukrLpKy6SsulrLpay6WsulrLpay6WsumrLpaytVoBA8if91KtG/kDix+7sr8P/dMtwW8ISA9xuCDwi8fG4LcFvCMjRjJlYAVuW4LcEXgBNla/OMhF2AsrPh+IM8ZTx6SrXa1ZWhg7wiSPeWecZDZPty6OO0/DnsbsbtblwTnuLzGGTNdnG/LiAXOATn5fhB+cY3LeM4WVlbluW4LeFZcDA5WB/UyqBv8AV1wrX72wtFwZLChaOKNbVhbVhYR7BYXfCwV3Xdd8Lusld13WCvUvUu+CtY/kJ1o43aiEGuL5MaE08kmS0LaFtC2hbQn9iGiPuCnY29xIwRxl0XrYHHYFsC2BbQtgWwLYFsC2BbArTR08inB55saL/IuzYJ6qzj8PZ3TLcE857L3xnuQcjDR6cYPba7LkdwztBwAnE47YIyG5kwtx29hu+dxz22yIRuCYCO53LKyvxF9gUmcFWH4tWVohy5uP18lM5nk7I4Awlw9a9ac1zmkJkLuMNcI/dRsLGbQ4E9zwu2bUGyh5xxy7Rhg2Nwtyyty3Lctysu/QcrDRzSqBrG3IMW8dbYWiuBlsKJg4mLaFtC2rCwsLAWFhYWFhbVhd13Xdd1hyO4ArVS3rp1ogzqjUHuY+TGhkl7ytgWwLYFsatgRijOMiKMZxxtXFHjC2NWxq2NWxq2NWxq2NXG1bGrY1bGq2xoryKySLEq0U51FysfurC0AbeYu5olzxLmiXNGuaJc0S54lzwrmiXNEuaJc0S5olzRLmhXPEuaJc8S54l1MC6mBa8WyQ5D/tKnbm1ZWknii3DrGl3c6nG3u7zmsvOKyGrV0NVrrzSuvM668ygXmEC6+BdfAuugT7UL8Z6qEORnjPdR2N1cMXOA8yCKVrGBr47MQGX2LELonBtpruSVV2/wBZCFaGb1haO3bNOmzzgANluzwxukd9QTJmu2n/AG+d2F55YXns+Mj6jevqR6+pUPxKF9RtX1G1fUbENeavP4159GvqSsh+JKpOF1r8J15+CtUY83ZitD/lAmNHJLnScYnXNMrmoy1owV57ZUeq3Hptq884a+fUGfc+9daChf1B3dvWamje1JoXmOqoahqRXXaqm6jqBftd1t3dtHJqwAKdcutHeTWLkZ7+fWB7ieQgEckjhgzEOnnWjfybluaLdrdpb2uNgBXbHT1ZZR5ncTL1zAJbauPTpbg9jetjsX3rzffzK0vMrS8xtLr7C6+ddZP2TZ7DvSAyzjvJ1TO5M8/dOtWGnC0ueSxUJkWrbemZutcePQ/9zZWn46dyw7HfVu4iQyoYGgdw0vyI44otpBfAwnClh25Pg7AblbkHBb/9V2OlKcwM94mtd9z4/cCcTtBIbcsNc3A9gm+6e7+olVf99CrH7+wtJP8AVTKOKSTc5uofsZVGHPeGrsGqN3p3l0rS0NLmkvIbJG4R7zuGVyYXKEyQFq3BDduGG5Mm1rLVZgDHS+3p3SOBY6Rziw5aHuaF6lqZPWWFoX8mo/vlWk/+QhA/h5lrH9qJVYOWUBSbYm+l0sEUgZJHaa6XjGXbnxutb9omj57Cknn7LllXLKuWc4ApwFgO6PMmXKKyHygPMwcNzbVcOYcO9lG5vHGgEf3NlaN/JyJ/7qytEI22lwDhL1rX8c5Qs3PWCxqDo2se0QyHJ5nbXbXC5XzEcJzcY8GjK2qpF2TMAuTpHSMG3lLIyHDDwp2kYK0DHTPBMYwca23FaNT/AGLJFmdUXF0WU4gySsWrD+0oB6k3cR2keAX1mMhLWnDmvayOQ+h7JmJsL8BTxybcLY9bXLDlG1sIgjVdrZN8skbpy4uMLZX8jHGUcOTK0MnIQ9ggnn+plVcjzCurP7+wtH7z2SoTHBHEHavHx17DVTHqcpQSYYxY47MreM1XkBSvDHRYBc4zRrgkzhcD8Ao15O6r15cBdPLhEbSSmSyRNiMYruO56ihsSPeFG2M4e6w0b3hV8Bidtzk6qP6+wtC/knKMeuVaSB/UrfXa4QLWMNbEFVfsZK5RyF89Z5bFJblMw6CZgyGtmbNG1+G5vh+2kp+hDmr+k75/olWFV1iIANPHIpKUjmVpE3TjjuK8MLJy/H6TM2AGySAM/tx+B/dWVomPM5FN+7srQcZt56lm9a3/AB5VIAlywzfHuioMLzxu0/0qWCGJkbE9se15PIFyBcgwoXjC3NVcDYxVBGYrDXxaccDM2n9kGxb5NlkR8JxoZLajsckmFrJLqzM2PsKcf1p1p2eBdTYc3DtV94lAfWE5hLAQ2KGaYPZ0rNqusZzBjAf6tyjBLQVa3BwW9+FvkXLJ2T2OfPC9RUzPHxqKi3YrNNkcb3p4Lazs2P7oCA7BBSfuJFU/fwqz++srRsctlf7Wok9DMqON7gnNJAIpV6zsOjMDMK/xSWgI9ga2eU4XZYCqR5CLQMFO7vIVQmVoqOZVjxhak2CCIhrWAMaDOfW5NPpb4an+9nWhfyTkzvJKtKA3WFjstY/tQqsRl7FFD+iGKrNAxoa+S3WDTjL3PdJJcwIgxnE9WoJsgrilXBOomzRysemuaXFQbYZcu6ioGq1ILBDWyubG3JkduJco/sjXynfubC0Q41KRSH+ptLQve34a1noHKlIGykJvqBaqlnjjDZX34dvolfl7ppJZSYpZFscthW0qBqOVTPYsUe5sm9kd2ENG61c5GuZFO4QxbWy+hjY1o4xRHhq/7VqsfaUMGWRaeWcC7rUYJpeIsFay0gqNsoxlrcYIL7TmkItwCpWyMa5rWcoVlsjiFtWCsKlOXsa1NAzlR2po2AKzJLORvmwG7nEukmyuyCd/fkVL9/ErH72wtKcxj7O7nhwVJLUljfG5lKmx4cNlXso+Bh3MeeQEOdTqkAB1CNw2jymNeUxrydiZpuzAHQF3u2jjuRWZkFZsYwDUBcXOdRJBR0Z59xjCyFqfe7OtDz5k5RNcXy4pTCtyiTzGoFPZ0+xHtcOg/wAWXKTQm6lUXmNM+xu0ynjT3yF5zp4UsenyNQq6eun01dLp6rS0oGbENRpLzKijqVPKs2aVhgahDpn+XmNIALr6me+3fNO5uj9tTkTsc9hVLHQumaYtTdK7jjntv4yZDE1gLkbO2ON56i1khHUXNhExOqwvBy6/Udjd1dFdZSXWUlHagcP0zZa04In2uG11+RnqPXy9kNQm9lHckne4R7rjnErr7TYRKptRtQNaZbOomzEGGzt2HDHNLnlPsTB3ajUsWq/KjTsxundIyKaWOKaB9PUIzKTDFdlhZLDNeuRPLR5lcXmd1eZ3V5rdXm1xMl1GT7Y7Ooy4DN2q4yup1PkMaM+pqS3qEYDnOZqZIYcahvDWsk1R7ZC0azKMpmXvcVTH9exSFrrk5DGj9UqnGx9uFrrEFZ0E+emAtQxRCnp/TkPsx0q16CF1rToYmyQxYW1Y+FtW0pjo8fqGAOPpLKze5fG0A7cRYyhx4yqlYzVOZxoSbY9klGRjlZ54XDbMXOklJ0udle3PK6vYA3Etc15kWjmMRTEyGkLbV+p0+Lu7Tuqlzpskdiu9tm/gujlHfx/2v/2rY3SsjLagblFjeRsRkjYwtkT2bWEtuNYawIewdTAxsE9SaextELWSAQyBnLJxxP27lTvipcfOeRzy97ou+QqE7K1gyOk1WDEZay3RiuPusj1NkUNeNvWN8z6pluzVmfKR3WCu/hher4Bq4G57q20hm+tgJjoAPUHwAlUJqzOuEk1iqynwt8wolkb3XJa5gnZHKdrAFI47So8bAvdQ3p4omxLza7yPe7zOyOIN8yththgr3X14ZYWz2JJ9m7HhjxgkbFIHHr4ELkHNyJ9uu8NCktVXtKltQva3DtYom1FMqusjM/N5tpzpYpVuBcScluU6WSN4c2P2Kjc8blyvK5pcdxYmAwBJJjC5ZAuonPvzFc5XUFdQhPlcwXX2MDD9RskYd5la7puoTNACGoTDKi1TZAIS/VpnyxSLzt/2qxf53tcpJHPe5xkJ3KJ2GBdvdbitxW4rcVkret5W5bluW4/G9blu/wBZWSsldROhI4EEcrxnAyh6ScTtcAHKP7E3suRy5HIOcT2xMsS+6xKtsy/VWJVtlW2VbJFskXHJlbHrjeuNy2PWcFZWV2T/ALCofYLYSv8A97LIBwcNW1q2tW1q2hbQtoW1ca4yhG5cZXGVscixwGV3QJQ7IkuPef7govZEIhBbgHALLVmNZjWWL0LMa/TX6a/TX6SzEv0V+iv0E7gGUO48QCpPvKhztCY3d7FpWzsi9zJBgSVcDPLRXLSXJpyMmnrl03CMmn/InoA9uTSkJNLXJpq5KXdclPC301ZljwONvcJowUxjjnbgEjN2beWRiL7FtK7rutx3Bbz8lzlvct7lvK3lNc5Ag5WXhZfgrc5bnFetepepNyXHOCsFbfdS/wBtyjadiiecEHo58ZXH3wpP7gCYCsFbStpWCsFPy0ErlflCR65XoWJh7c8y6mddTMpZZHt7x+yAW0OyF6c4U/3qD2QJTaspGU9haSD/AJ/m2o+lpKisv3YftHdbVtCDR3W0LapWehRexTWF2cGFzfuOMqT7yofsVaOR79rG1K/spoHROwXeqZBqwti7Ltldsqb4R9xhdh4d13x4OyQVF7KCoXN3vNcsjc6E5yVN95UX2KGMyO2rgg2lTRbD2H3rus+GfALIwtowXIPGFyNXI1DB9gvlHC9pFFCXnC6aDZlWITGcJ/2FMxgKrhgfIuTEmxTODo2yIZc4lbywITrl7ITHOE90gIQ5E5sjhhcLlskAR3hAklbgtwWQjtIUR74TI8AZ4mOwC6MBxU/3qL2UH3lyaWYGZzviY8saXEotc0FZ7I5wENu7DuMEjHG3JC4mkLp4wuPCP2FwjbkFGQjKdM4Hv1B9k4yOGFEcEhRHYMB7mv8ASH+5CeMvUGAFSOROGskOwK0/bXg3V49+Spo3sZkcc2zcHggMUYeXlqli434Ie3JavStzVlmEcOaE32K+CU7dkAEPGM8bsKLs4hAjkYml++PfIW8j8ObvlOItvcOrOYS9q5CGNU3piY0wM3E4ngLAc98ItaI0B/r/ACXK7eMcj8LkcuV6EhJcHVKplMimi2OTYwYsrp/QmV2EDMsbWBrm135Y8LeVacGsY0ybMYA/+68wYfUHRObhWZw8YZXA7KVg9lFA0tKlYRtxx+oEzgFhIb7ldsLt8+4K/wBJsTs5T24Ckb7JkWcIwsAC7iUhRfqMa4NjbEApJS55IPrkTt7HnbXmcx25clVzVYmD+zawZuHJJ687RGRlSAYCZBDJhxd6MgN9ygi3CPsmYDVVDWQve2fBPaVm7BTYu4XfITmFspUUrHN7yysZkp8rmvyowXOBXeMlRTGJwc0aoz5nsvmJc6tG4NGJIpHpvpjwrDmBwBjd/k2Z4JO6JpcTjjeuN645MJrmgd27cJ7mY2oMc8Ajik7Z4ptoCewxyd47wYNrpLwILY293jbGxwe4ukbhxUeGrrJNuE54PvC5je7XmN2c7I8KRzW9lBJGD3nljJGGujLgv01lmFhiO0Equ8Ny5TyhxUGCMLb2Te2FOz0pry3GOulAwpDyAkxQOe8Ye97jletepZcmzkLqnLrMBPsOJyhO4J07imTYznnaudq524XKU21hdQfgTtI9QniHsbTT2MkrC/IFlzTlrrUj/u5e+U1231JznOXrX6iLpE2eYLqp11cqdNK45Qnlb7GWU+7JpWnI6qZdVMurlwuR+U23M0IyvJJLLkgACdqEhwuvkKknc9cj1vet7k57hhNeXHvF/wDRPcKQZIQZgFbcLb2To0GtTgPjbhNI9lgdiuywmtXGmR+y4gVt2PZkxMyFKxhKkw3KjfkgK4SxzGou3OJTR2W33WxbFtW1bFsWxbFsWxbVsW0LYtg7rYFs90WhbRhYCy3AUH7d7vBle1I3dH0l0BdLcXS2l01ldNYXTzrp51wSrikXG9cb1sK2rCwF2XZdl6cr0LssBDGxq7jKi0jVJ4myR+SawvJdXXkurLyXVl5Pqq8n1VeU6mvK9SC8s1JeW6ivLtQXl99dBfXQXl0N1dFdXR3F0lpdLZC6eyiHAkOd7J7cuDVHCAVDFna1lmGlBOI3S6SXWq7BFpVZzA5z6sVaKN0zNKj6iRibQe+rNPJd0xlf0ReVtbSZK+fSoI2CYP0mrmqxlrTI42RmG9pxrSMayvo7JG1N4qnc7b0kiZVd8irhOrSFGPZKwqCCOwJDNqOl1YImuaIAyVi1BpFnB0qlBaslko/DlHGV9OUl9OUl9OU19N019OU19OU19O019O0l9O0l9PU19PU15BTXkFNeQUl5DTXkFJeQUkfw9SK+m6BX0zRWpaFXrV5Hx7BjKqRF2nSkH2VPtUrtHmkghnlOXLc5bitzlvK3uW8reVuct5W4rcVuWVlZC7Lsuy/FUcWytIEWYhiKd9pVHPQ1FNesM80TC8xsLu69S7ruu63HC9WAhn2Xdd13XdepZcsuWXLLlly/FX7ysvfCsV9ttjQysQcqOGRpBbJwPm5i62xs75y7V4AzhHmcczIup84lMheRrB7736jVsPLk+WCYMzO9skWwvt/10c6FgEMkNh3UQRA9S0fbHC3shD7JsYXGEY06IKm0Me8DUK1siPl4S21XzrrNt6NaB+7kXfAXqXqXqRLl6s9+6yV3WSu6OV3WSu67ruu67r1LutdH9JYXfsFprCdJslfBVbd00CbSn6a5GY2yNjY0+tepepYevUsFepepepepepepetepepepepd1+KyeKnn4KmB6SonexVJ7OiqoV8G8q7I69eKEb2Lc1bgshZCPsUfjDew8O+fzd13XdfirPW10372q5GfMY02E9lg4V2RrIDlzifcYWfdAlbuw8I5XNKbETG7j6SZdHYOEKU+1y3dNKS9t2d/syWRyZLMEy539YIcMhw7KIOxLtnrsBDxPHi3UX4iA66FaB+6kQzgL1L1L1L15Kw5YesPWHLDl6lhy9Sw5YcvUvUvUvUvUvUtcz0lhH4Wl/wAHZXwm63qrWho891dee6uvPtXXn2sLz/WFBrOtTzRxNlm/E0chYOo/FA2ZsavrtaQxy/UGrr6h1dfUOrr6h1ZfUWrr6i1dfUmrr6l1ZfU2rL6m1VfU+qq9qtu+IxOfYq1+xoo+xVP9nXWFjxyrVh8EDpA3U4sbj5szZlRTve0OXI5cpXIt63Dw+fHBXsvxB++jUf8AcjVnB1eFYyE9oa0k2jLNIXnB8IKFmYZZ5JbU9Oev/c7rY9U3yRSAEQkhcRV6y+H0MYHOKZWc/DY2abbRrWos7t4cFHK+F2WibeA4RSgSgGcR7InMsfuaa/EHq1CALRoDHYeT1bQF1jF1TV1bV1TV1bV1bV1ka6ti6uNdXGusjXWRLrIl1ka6yJdZGusjXVxrrGLq2rVHiWpYKcFpzyNDsBH2PiPDsuyjeWOa5vmmoZyvNNQwVNNLO7dL2WAsLHjg/mPsVaJNOkE72VP9rB46tffSjiMf1DbXn9tfUNlefWivOb3uhrd1efWh7+f2F9QTr6hnHv8AUUy+opV9RvUGvmSeJh8PhfiD98xM+9qsO/5WJNfgLVrWyJsY53rnkWm0CWtnnbHD2ztjwjGx+QtVpPquEkXM9cxWm2RNXGbEvBC+Q875H5NKB1l+xRwxwtDW4YvSrtLkBkj5ZPinNte5ji1h9xxsJxZy6zULdeyNQhWjOd1ZypHlkUr1zSu7mLkYAmMkcUYo8AAsk3YUzcDK6hy6grqELK6hRyRydkGZ9oqsPvI+vCRljmgZU2Wd1oUjnCww/Cu/srKdIDEAtPY3yCwUfywV5JQ4hkQwpax2lza7Q6WJpkhayQplaAtBT61YMcTwQHKNaDCvV42QB7e5KFbafXJVb8YIJB/IfYq4wNq0U77Sq3atD4/iX7KqrVt7HPLIDhTVXbHPbQAdcgCZnOPCZ/6hWTjK/wBq408Mbi1pc/CjiZs9MtVpaSqf7uBfPjr/AO+aov7sSufysSYStTl32iF6CqNWOe3DGSQxnbUZLVaCMxS2bbxGRHOxzGbZa8c9Z7S9rgSDgrRnuD5WDWpH8EbEzscrTYBHSjKs2mwxPlkmvTzsiDYL7NkMMsMm5uDqMDmWSW7JWkFMbkd9jB72cdVTX4g/kYVoj/62QKBgMfe0MVLYNdu57AgMB7k+OZkUOOAyHJe7cNimwx0UynhLJpANj1scgx2VxPVWPa15LI2b2sc9oMpKdEeQPUnHuzHLIH74z+Hs77CLT3WpgjT7C/wCof8At+yj+T/aptn4m8UGmyFisUXsikVIf1UKtY6ghQRehitxgVnZ7YkWfsVv+LBUDczKvXsTkF0lCQBai3ZaP5T7K/8AtqKd7FQf2IvH8R/bWVOjLNBFM2LTDtV+oa9aUrS/39dRxE706Hu5HAfEC4DDkR3K1BuKtZaTxb5w+tpkpblS6Y7sEGMZqjGt+fArX/34Uf8AdjVv+WiWe2VZ9U8h8NMnMF2J4eXSRMcZKU007pCKAATKTI3cgbH6VYxzyoUNsDJ7GkVnjlsu1uN8ToGHaSCoA7po8WJHthdGoNO9Iz0ULZWmWAt3ucNYlw+LD3uIwoHnaPCx+4prX/5GFaJ++K55PTi44vr2nKn2ljXHmNwVGvzfc2nGArsUMLHF36QAY+3KTZl28ki5JE2WTcE18xCrOLmHLG5lbmCi1gwX0247WYmsmw2RkgllkOgf+QV3V79laR+wKj/7esI+35dIsGqx2+PU9NLARrOrRSwmKrp/7yBDdLbyY2jaArUYfBIF8Lur8n9GI1QFjrYunrz1zJIH2rNWCLdJasOsWZZT4hH2Kv8A9ikneyixxRIeH4j/APFWnXI6Lcln4h0/bk6xqTLseItNIbdgJhs1doJ6iqR2ljw5y2f6awgq/kQQtOn4bPyGlrOnPbh1zXKuyRkFTPWwZ+fArXv34UX96JWv5Vik7RPVyPa8FYVcPiljlawskY2YbXEenLgO+zvl2oWekrPcT3CmZHYvCu+ENNCnDDrj2vkCYxmCVpkhdUbGnQh3vl+SpWGQYUbGtWoO57JIEOSAg309lZ7WKa1/+RiWifvT4TAvgmYA2VmFC90jA8RFzTuZ1s5bgzve929029jS8mFxJK6d64HpkD9ybDLhQh8cncA4wYLM0DdqluTPbtY6NzfayJdjWLR4nxxTF6vfsrKP2BU//b9hH8nZZWUxskjgxg07UPcdFqS6bVwuHWcFPj1KNpc/qbCdLI8YeCRnGVv7onPf8gR9lf8A7dNO9lH9jAo7ET5DGzqq+/Yr1CC41ok+nqa+nqak0GqwZHkkHfA0OEleRQheRQpugxuyvpyNfTjF9ONX04F9OBVtAZFPHKfArXv36i/vRK1/KsUMBneIlPoVeRvqZ+HabxuZ9NVVS01tMFreBvxwoV2g5V3RY7sgfIPwvVC8gj4+NV9GirtLY5NCqyAB30zUVfSY4JRIwxgrYFxBTVxLGWJ2hVQMowx8721Jr7672sljcHsBba/cVFrx/r41TsOhfuZFeuySRsVmK/BFI8mSzC+OGdrdWeJgOW4012yTP1KBkjpfNb+F5pfXm2oLzXUF5tqCZql4kg9fdGEL10jK6298Nv3yF1uoKK5qclkQNEt928jfqLonygyaq2vyrzG3M2SNznekBV5GM0CfcVFFJNI2ON8DBoDmwyae6BkdGk9rmOc13hpVeK1qEEM3I7llctYhZExj4Mld1k/l06WBtGVskppF7RBLNpmfU+fS42EuQR9lZscxiAd7K8+SPTpnxwyz1GUo25/9OhNzsbuWSrPEYJBLWx01iOWXkFO2x9fb5hZx38O3hY4zLguEexjTG6MS5XAO6EcjsFxhd3TGOYXZ179+EHbHNcq9l01sTO0+TddiDbLHSQuY2NxOSdy3Lcty3LK3Lcty3LcFuW5bluC3Ba7q/EDBDo0kcYt7tWlikmr7K57K9Kd0JD5XyzSSPgLd/eN5jka8HUpeOVrfMXExvldfleyRrrVyW5xmZ2pzPkjevn80dhrGbV1jPcsnjYwNQnblxQniDg5tW3FBbbOvMgxs3HDquyJjZjeie171s2RvcsnCM8hg4T7qN8sLxJGdYtmh0682abEFx8nJJI+R2xy2OUbdr2l3Ux7y5GxC+PidtoLGnKRtPYePa5bXLa5bSquo2asHEwatZFiSYeeWu5Nq7NaEQkQynexTPle6br0ojDHRavHE4Ob5tHuyvqCRefvXn70/XC8YXnC837rzgLzgKPWw3K8+avPmLzuE5z53Am6xUYBjzyuvPKq88qrzyqtSsi1bMof7LTyBIzPJJDKJGHUtQOceYX1PqOps9ur10oWtcXU64ur1tdXrZUc+qgZk6q8nXdQ3YQs6gPcWrnfPUWk593/Hl1JCTUFvtfL60D5HOPQwIUK+e2TvAbeb2hTPcr2Xdd/DY0riC4wuMLjC2BbAtiDVx9lxlbCth7rjcuNyduYsnuslZKHsj+Q+y7LsvSvSvSvSvSvSuy7Lsuy9K7LstxyVkre5ZJR9imfP5CeybI4DC5HrleuVy5HLlK5SuYrlK5VyrlXIuQIShAk5/I/2Wn45YlPIA9zU3kb7cspCuPk2YdXH6TM7WnK7hd/dchCEvspJsNLi/UsvyorRc0OHMcJsxXK7C5390Xk+824wv26e+TMjEXyBb5HNKDwMBXQcxJn3ldk0Eoj/AG9NzgLv45KyV/tcsbDg+l3dqwVhBq2rYO6f2esBbFsK+F/v8h9x/wDA/wAj+R3sUz8h9wu//eOzj+R/sqH92JWC1rt7h1Nt5Edad4l2Pma507GljCB3a+I5Kc+H3UbhIcMl3MJ3NZkdpIQ6KRq6aXdhVotsLWHs33ifueQ2R7WOw/dGSUSANxGC1ZMVuTFq1wRMCdavMDXmF7JWNcrWf0imfeU1uSE3b3Albva/JGSsFe58B37IxSgZTWyYJHHKjBKclMjlaFiULLy4NXqZ94kYuSPuuWPCkc0+0Ld+Ao448EMnibgvbgD8vz4bl8J5KY45Xfx7+DiRhNdnPhuHg73H5HfaU38n+Xhu7+Dyge/5nE9k0rIWfA+4/I7J7Lc6HaQLkllhifA+BmW2ImullBUYD77VuIjKpCxtLBf5zD6+OSQREWo2xNHHHPL3B5pclCRx7oSSEFPsTtxitCHvDn8eJfTXkLHWZBLyvgeFDniaFfHHcBWotJLHibp+JhZBL07Ml1/qdjVPiOXsyU78pmJASybbGHJuS9OaGwscgO5TflRtJ7B0EzR6nuO3A74QBXfKcTkKAB07C63HGQdjGgvflsTe+Y4g3dl7GlrlVftc0rZ2DTOQyN5dys2oNHG5y3BZCyE3HdZC2rsvSvSF2XZdvDssNKAAR7goArCf7fkOcLifs3LK7+A+c7gsd+y3BZHxuC3BbgtwWQvSvSsghALITsYW4LKyE31OGJiRDxuY9rCSOZNnAVaeJh3O6+rtwotQrR+1i+xzSGQ6iY8BWNQa9owLTSRnmqrkrd0JawT7MQecVtSZG5xT9XZk7K9+DYY39fX4tqiu02xq/YrP7tFxvCGO5YlJIyRveBrMq2APvDgFuwuQBRztGN3URLlhKfLHt7NmAKfb3NwuULmgwuaBcsHZSSRdtsc7WvBM17kZhRzN3d2TVu+eat3Rmrd1yMBO1tpzBhrpQ45cAwnCjqHhcVtGU2HsnRBqc1q4ghGFwhcK4guMLjC4lxBcK4F0xXTFdMV0zkYHAd21wQumCdBjuoIGyEq/6YazWx5c/Cp1TZlZEyT8N6h/j9PXQO/kdsLye01O0ub/AC8twnVQB3NaILp410zCF04XTtTaoXSg5C6IIVfhGm1dI1OgDXgLpwpWNYq+zmaBec7rJUxrnnt08+F08vZdPMuCVcMq4ZVwyLikXFIuKRcUi43rjctrltKDVhbQjtyuy7IrTu9hrFqX7+Zf4lenC7ZC7LsuywFgfm7LAWAuy7LsjjCOFgL5Kx2UADtMcU4hpGAy2mcsp7cT84TYnnIAYUGHC43LhJXTuXA8LYtoW0LaEG4CwO6AaiG/BaCFFTmmY4x80TcgySseMANIIKtsGagLYWj20eNvXxOHqTXOIJQcMZTXtOcB+U57R7u2AZPHG7O59WljLuh092UdK03C8m04heTUgOx0SD4OiH/HyiyjoUxR0O8Mp+jXt4JOn3WhT0JwCXwRbLESut/rbC0Mf38dHAuirroqyNSqF0cC6Kuuirroa66KuuhgXQwLoK66CuvL668urLy2svLqy8sqleU00dHoH3k0TT9ritRrQw2iItOH9fXC1If8jYWkxRvsy7vKIF5TAvKYF5VCvKoV5VCvKoV5TCvKoV5VCvK4MryqFeVQrymBeUxLyiFeUQLyeBeTQLySuvJK61unFDtLSPSVXYfKCVI3ErUCC0Y0D0V7hQ4o7Etgwx8JkY2e5BVrNLuqcSSW2R8slY4DGewTGs3s3PLcOE+6m8AAwQSM/XfFVZA4xNhqgRsdGK7tgdYggbC7bajrNjl2xVxI/atRuh5FKu7TK3UsrC1XrMigmgDfQFYaTLUC6XLQqG2rYMjpdWp7CHHV9NOGk6pQcCo7ungNY1l6oWuLI5YsZRw4tIY0/LgSOzCc4DQfd5Kc/tuTJJnTd1lPlawZLZN5JXqWXYV7eaNkF1fitVwr3a/aWhd3TLaFsRAC2lpLyHAppLnOABBGU3DvYg/GQF3PZbSmEl5RyE0kyLlZvLEXlYcsOWHKQO2PWpn+rK03+TqrVu2qWVo/7mVetetetetetevsEXk+pNeXBDeQhNl/Zs+HbEXFoJO/vhAvIyvWvWvWvWvWvWvUvxCnuG0hVx/wSnie6UkbMdk3LU6Q/ALhnA+EEMrKgmGcScTHAp1GIZCjrxsaM8EWApBBCDue95PpBnVaWSKZskhvG6RCzUrza8fTQV5RFPFIfN6mJWK5YilMTIu/CwKcf1dRYHZYGMmd+92UQtqLO5RjQkiGAXyxbHbOSUHs23faO3mmpxjv57qwfkD8Q6s09x+J77T6h+KrAQ/Fj/kfixnz9S1JH5lg/EdDHrH4j0sqPWtMk+2xcrS15GstEG7VxqP7+0tC7umW0LaEWj52N+BG0YXE1CJo9toTog/34mLZgrCEYBJW1cQ7riHZcffKw5YcsOT88b1qX72Rad/J1Fqv8tZWk5NiVetYevUvUvUnxufhGIHKdAThPYXtLTxn4bWDTkOgkIbgwBx7+pchyEZNqEpKZJvZvRMoG9dRPjKE05Wv5wSX42FQH/gCuNr2hcDVcLQ/jbheyZDJJ9vSzItez7uy7KrPg7SACFsCtTshG1rnOeS5wTIpD7bHsVa9HWZtRvVHE5Fig4IOoHKxp7j2sw8bWuVjPWVlk9lPnG1bHFGNcTtwAj0uQ/3BpVY9lPpUzW7onMkacHlnC5J3O3KaabhLU185axOsTtJCkldJjdWo2rP9oaDJj1y6JcYMxnLSQc+EUpikD2jaSyRkn76sr7CdRt40cFnULqbSlvzQs3yefNQ1wu9vOnLzpy88cBlfUDV5+F581efNQ1xpXngXngQ1sLzsLz0I6+we41+MrzGdG9OWkLUIy+5JtogjU6mdUA81srSP3MuBqMuAnamWtLnef115/ASvPIV55CvPIV5/XXn9Zef1V5/UXn9Vef1U7XarmkLzOF0Zy7UIDjJu1B9vnFfDdx1usR6WahG8bo47jWLWpOSIvLh6XKDH0+U3G0KeQQwvenPySVvCp1mvw+RscbMAivAcJ9ZhyFcq8BLm7gmyNBVWSOSMKR8UbHPMkrZHl6Y0PcGtr04WAJsG8DbJXI7G1Tb3czcxMdHuUWwhNbH2Woj0V1YH/IVkwZeAn4c9xW1dgFVh2YzuYx5AZbrucWt/SLji3X3sMiMZ7p2RlSz7stTJWhmC8hxWlaf1chfIxjGsIfH04bhFkBadupaYLMZKILSQfCi4S0nNPverK4SzUreNMeXOs5438RlWsnFNmGPkJAUb5sKAvcNxNiOT0sfJMzcE+d4bkdXKurlXVyplyTC62XCZNM8ApnIXgLcGs9Uh7BzX92YMr3+ppga8wRlbXhXnOF+XbTz5nUWrfytlaT+6lWJMZWpfsZV3UFb/AHCwOyQZYJPQpYznYpmuIK3LK3FblvCrt3uJUQ3klNjrxsy9zIS0uZJXa5hc2RhY8tWhZxY8NY/aAo/YVAf+AOWnAC1SXsyPwrxcssbE2IMjU5mjYCiZ5MFCfGApYWyxOCc3aSPDTHe7Vqr8RNYMLSqe6MyFxLfSBcLmu2QTzPy1+d7Vfg4pz4UhvauEYVwAOrKzjzGJR4y5P9Dcpz8YJiIdJG1OkDY3uVy6Ii+qYg6Np2URL0245Lw1EgEqUt2le/ddkVpcBhqVw27c4GPlUzhcnMhitWTNExR/qNG7XIWxX3FvhpWeSYEfv66vfyNtaR3daTWxjbXWsD+kGYB6int3CNjXxzRzva5jHsAc2QvLGvc6uSJccMmVwvwuCRRQS4CNWY5UTQ0BRxHpZJWtYSMLc6Fm1SjdESpxnDlVLWxLdHnvqP8AIzYp/wAnUWrfythaT+5kUTtsNRawDxWc127pmBTYbE7E0c0csQQieDuDmzvikc58RdbgcuncMrhfgrjf3XG5cb1Qrt6Q7oYDyERsErgQ480LDs7CUhX4trQVoXvY8NY/ZL/BVyfIHoZwFceXzOK91pmOsjToyYxh8c8sjY0ykA1T1Wt7oR+hS/3pU3utNHutQj7xLjGFTjHTRYkllg5HNgpyEd30XO9KiY8F2dWH9rw09+HYXwrv92qFY/ko1H7vCIyE4YyqoDbMZLg2QOYr1eGficxtFvH3dQED4yGOayPBY8uLip9/G5buyytypvc6rXcLAaK87FX09uzua0ld4lZCC5ji7X3tGoxhDUof8o71cD1VrDZ7JcGfv66v/wAlbWkf+Sv/ALWr/tAqvdxCewuZ20+sJY9z31GbMK/KXEV2ySkRyrHjCzIRYMJu3AVWEPkERjqxhqvNggaXyRtY1vqt7NwAPYAeF39/KqvbUqi1b+VnWl/upE2xKxoaNRdmpKTA8Nmao5uV8kLqIExDZOBmMK6//wAePkDDhdnElPaNv5NOkHSgLvG/cq9RgaCp4o2jeZZuWZ8xuzCSBhWhY3WfDWP2JX+Cr/wBw9wZGSpWf0zH+EMpimY8REOaHBjTg7OaQdi5jpXZfdkbXhe9dzkoLThhuVqGQ1jlyLTJxLWaE6EOPdsm1xzPNuBDI2FjcLVJWPnDR2KqtDQ1yIGFc/c1s2cDUgon7XjLj3KI3HKdGB3FeYTQh47HuHumeVclfC0Njsyz16fTvgacItT2bXOatoWwL8PW2mI1Xyuha9rH7pQ1u13K8Ykk4WsMr7cgs2ZZnbGLES02NohsyJhHXwK//JWlpb42Cxu6iBWmwWoeNRadskDg2vG05Uf6bsxvnmkGCazO+2fTpHt2s8mlXksy8mnTNKnaF5ZYUVGwAGubXemvtxt2h1Z73bnmnIT3dpkr5MuOD4XwOueVWx5jUWq/ysy0z9y9bgrcTpasrGDT7XuW1ZHOjemsBAyGvc1Ojx2FiKwQQxtKxhOp2cI0LQJXQ2l0NlUobEbi0tB/yZyMHokLpfvtb3/pRzxyOcANGikYZy/K1Yjoiv8ABVifIHIVpLjuBkmhHi2H6XkC+l5lS0q5WBjcKco9jXsZXST91c0bVbMm5305qaH4d1PKraVcib3taZalic0eSaqFToazVl3Bsdns4kS4RZMrb7jGYjdR1A5y2hcym1ixh5IZozEMW5cz1lM9vmZTu7Bggva14wcJ7ZE11iB29seqVXjEvXae0Eqxq8JBEW4veXOhy0BOL8K9GeUvW1y2yKMzxPD2RapDPgX6k1ZjCBa1KlE31ajqti16BuK3Fbyo4NlaONMGL0JV57XX7Lm9i0LR4432ZS+apSeapl4OQ3GWW0qMnRsdBFSmvWaZu1Imx5i2hbVtCwECR3THwEgO4G7iiysCAXxxD2LYB3RbFsLhFRaaEVhztKxNFG2SiIi977QmrT7FI7JDjW/f1Cb80b9Tnc10r2nLdObNcmMbpNNuMkhYyOITyywVxStPghmiZBI61Yqi11dZoXXW11txddcXXXV191Q2rT85c+0CAB1ZAKd1zQcM6149IN4nCq9fP1OdloRGUyQaqyKNyuG9WZvbLcszRlj8DYop449Ba12k4Nw4ky5pW70ZQselu7qRjK3+rCE4PuLTdpJaQQCP+jPhkrun/Y/NJ3uFadtnjcq73S3HvbyEHjdDLt7GTI7J3thSQOOU+B62HKEZJUcDk2PAT2HBViAnsi0tJB/JlwW9yyD7iBjsqjSjZ/VSRyOJcrMhEwIZ8ppPdZKLnE+oySOGHGR3y2WQdxvlP3bjhbity3FZKDiF1Vj3XUWTjLrNp4Id1NsZXUz4LU26eGOJxv2DaFkDVHY2Cew6eUyOe/LwpfhR4yU7uVXsS1i8xnUbW1jIzqdo8hHmNrdAW9bMLZtqS9YkEo/NkfMeqSxsDQ/UDIHBzdRLWxtTLwaHAi9G12W0tTjrmzmbWD0/FX8+wzcreo15YHxw/BXfYFA93E9iM09e9G6M6xfHt55fTtd1ABefasPfz/U15/qK8/ulR69fccDzi38t1eyV59IJeNecSD385cvOkde2+/1NXHu38R13ew16Ajv5/SB7+fUFLrtPifxsOyUK4TuaquOUIAhwTTlNn2tw6W5BGwveNUpFeZUiV19NddS+eupLrqSN2nhTWIXEOTxpciMWmBcOmrg01Cvp5XT0F0tBcGnptTT/ALnOkje4YY4tlD47O/kG6L5X+138CRkLY1bY1tjRYxbY1sYtsWEGxrEKDYPkNg+cVliDujwBOdGg8rc5bnYQJPvN7NUXuVjwx7o9k1kRGVxwrjhXDEhXC6cBcAXCFwBcIXAuBcIXAFwJzdp8GoeEH+a3brT8yMczO3dIpnOJjamMBCMYRy1b3JhKwMIEsBQsHecBxce+DhfqJpkW6Zck+FJYnjjJPM+R+Xh4wt7cdm4aQrf3tVJp5AmvbuAczc4nbtfkrVnv2RRmvVG0buljT4C2M4EBejUaAumBUsccbC5dc0jYmxAtyDBhcRytmMpjw0IncnRnacVmlwwmVz8wV43YzxRgq63bKov8l75Qjd8EEJ/uPzfC9vfqjjaux7rHt4Y9lhY7J7AWlRfIW1cRHddgpfYKH3KbkkrgMuXRujLDh0vsoh6QsuwhuXqW53dZcnOfhGR+UJHLe9cj8LkcuRy5Hd1yuTs70Ams7LDA1AhwUX+asS8TnlbbL2mRV5SQQgBzrMbWrLCpC3C3sTZe/p3Tn2fHNsdnDjgIcg9jLK37hOwoSROaA0dl2wpGh0bgdmH+mWRkYGRaHzGGuwVb28ipnEiZXMtiKNRevj47HJxF777w+21MsxgAHq4MFOuREEJlr1BrJZ5mdnR85G5WIppInNPQyj3hjl2jD9zR6g4Ep0gyQmPjwgY1ui7g1C1khzWrGZpsP4Xehsku4Pcw3yDIMR/5KMZeEzBaCZBuYSe5ecFr2hZXxlN7lGMj2bXcUazsLoiFwvCIkAUMckucF5YcHmGAuoaFzZTDiQKHDQHLkAapwGPUvwovuKgZvla1PnDAS6TL45A6bJfhDIAXME2TOcCTKk5GjKG8gItkXC/KbE/C45MLvnCcCMLK3BbgnEKrHyPaEJWjG2w0PYXj4UI+5TPMgRkrcIKiHfKrRh+9xnrt4vRWq15GndZrxx2A0GMja5tjtNuaJn7ELTgO/UDumyDGU+wQ07YshzWmSIRuOIt5buMsE7YWPbwT4Ti8TEF+XWPVcbIwhstd4YwF07zJKFLIY3hUL8kdlkp/Xex8te2+GP8AShr5kmmcpYgYu8db0OUkPHESI4XukYRY9WMB0yby4W6b2UbrB9nSWvlrCJU5gdHlskfoBTYC7CZT2qdghsACq4SVo3tLTOI2S3L7TZfgytnkyJcsmcoZCHbkx0eDse5gZsZG07ipWN9mgDBTm+hR15JSAySKSPs/HrWMosIysJuRlUWz5dxWmO3PLtm6Ji4WOZhHLRhWQeRrlC4OG1zmHHrsz5fkbt7wpRtlKje5jwQ18by50c0rGMcxre8i2jZlMY3umgN3YbnDVJLvjDEc9wvgr58HdiEz4KcMlNGXvQiGO7IwMqVvpKpzBjwTxjsFNIGRPaS8+6iaOB5TWDHYx+64yq8eGLdnCaXtduZYEpcCYp52t2mZpcmA4wnRjuuNNBAUjcqu8bcOmecOaoSDgISyCIMQIwrMJEpcnQ7wF0oHcvgeA14jYSS4y0uRpcomuZnAfIG9mPc1rg2ntHYhrfZcAwrXK0jZA+SMnfYme/AZE2QyLgnCMM6aydqc6UPOa9lrGHfNZ3P/AE2PEjNr2CNoGOdmSrkgJa5vUMbiRk98yja+zwSlu2rEM4a7RpJmCVDRZh7+TzLyifBVbSGYO/yuFeT18K1pLcjYygYz3lol/tBpkvKM+Uk+3lL15SVLpswkO2OpNEpKU0jjtrabPgh3lrw3C6CRWdPsFpwNL1DAXlepI6TqOAFHQnimDZtRjET2MHqXqWXJj9q6nthc47ozduwlKM2Qt6ErVysXKxPkb2w2QfPK3CbLgrfGg+JOfGu3fAlePbJKa3cUKwjgytLqyzSPjXk8wR0m2O66Gy1r10dge5ikHdxhcQS0V5DnEkEgHfjcOy2vwth+cFfK2tXGEyMZXG1cbe64WuyuiC6OPup68ccZcaTqsh2oACILijeCB0bS1O04vwAdLd3x5ZIjp0iOlyLyly8pcF5bK05b0djHcU7KkrWc9uis7sgafaRoTBnYUdQb3aWapj1DrcjdxzSPCZVbg5bUj7Lo4Cn14IwJGxN/SatoW0rauELiXEjXaV00a6aNCtGuFq4QuFq6eMrpmLpIwhXauFq4Grp2INAXbPhqIBgGdb/dhey4Z8ZRjkCIOe/Zdl2XZYasBYC2hYC2ratoW1YW1YKAx+RsjnaS8nS3yP1EFey912RwtoPuGDC2hFrT78Ma4Y1xw/BrQSY3dBX3FHT6pGENLgBK8sgym6fXAwvLq4Q02IJ2mxk5Q0xmfVZ0YSxOBr1TE8SKPvBGFFEAAA2INaUPuCdlAEkrGD3OMFBq2IMamsDn9+GNGGNdPGnV4xlcEffD4mtBKbFGV07SuBq6dPquIyHZ7qx/ZwYf7TP+l7gxjnnqo+m50bUYridHUYBjBv1xG1whuRSv2f8AVdGYMLXcdcFAA6zXB75OPMv6ds7y1mVZv6ZWyJoHU7UQlZ0tT56KgV5fpyOm6Xg58q0lwyDoulFeRaUvIdJR/DumH2+mqB9vpekvpar8H8Kw/H0oPj6Ucj+FZVe0CzTrmfwhaPJJidA73pCvjwPZbe5zk/GSt3utx8PfsOw7LPbK3dlkLcMgfm7Ky4sglcqvfeq4HHGmDunfahyAdtzvne0ZXui3sme6A90WjBQ3KMEMAXbw7eBWB3WAg0LaFtGFZjG4OVoYhUX9pv8A02ATBIA2ePoTEnzN6JsKrmRrngRSObO4Rwg9eCf+m5/aC179+q37uqvVk5FKfoS1uo65DTBjHO58okmj/Ez2NwvqgbOzPxPHjL4bLZYuVanrPUudFFpepUYKYjdBbrWM8Woa3EzMMFK5CyzyObqenkepkkUjQ+POECE7AC7YWcLK1v8AirXhBjyKVfh9uLErvANWPdbAtoxhYGMLHytv+03KAPdf5YXfBX/+WfPh38SV3VnPTTAUcetVv7bUzGUcFpK2RnC/Qassz6BublF/wh4ZGcLsvZZHb8oz+Wz/AIK7/aCi/tM/6T7FZg3ly/pgd6LK87u+2rIwbo4KwkDmf9NwHiC139+UHuY9j2/UOqI/iLU3AhSSPldud3WUCQcqpIeWJrNS1qeeJ9Z43DAXowc1dTqV6j4gZI89nPjDW7Y+jLSZaWraPTiEbfqHSV59pKGtaSV5tpRXmenH2be09y1ieq/S7QYof4R6qanJUmkcxn4kI9x+JIPlv4ipuPca9p2F5zpuF5vp2ENY04oatpyGq6cV5jQXX0sZXX0l1VQoTwOzjfGmuY4AjstnclBsm9DsCsPcVeaeimVMFsc26L7AoN2523HujGi3CY0kYWA1mFkZQI7LcgVnsig4glbhjv2IWQnO/wBZGUV68IbvlWf8VeaHQgGHAiZ+fBWFgribghcTEI2g5HCxCJoOfHv+e2BxBa9/IFH4/M3aT6oJnQSslaNcnyCjrszgM2bLrEvIfzY8eywFgd/CADyOYrJz4d/dZW4re0fc2SocgvaAicLcFuC3BMbv9jGQMrdhb8pkEqmZZgxydXOuvtYwhetd0NSug5T9RuyAB9WQv3pn2qI7CT4A7sra/JTyQ1WtWEbi2Nusztd6q9qOxGHsmnbBE+Vw12gV55QXn2mBefaYvPdMKDxtBT544mlzzrNYEqvdgnGWYznbsLfY82049SsHJarv9tij/ts/KSGgkz35nk7I7lgeoVbLbEeRPI5kEr2j8R6qvqTU892a5qBAXnN5Q65bfdr13K1cbXCdqVoYKq6gJyGP/Lb/ALQWu/yLl/r8j1HEXjJ6dmFIwsKrMa+VrXdJXTq0LcrYFsC2BOaA3IJwmskcnskYt35Pg+ELh5JKPCNjnvaxvHE+GSk05BORlQMc5xJ6cYyvU17mp/sPyU4nvb2krvDHIHOU5xHpDaocBh+YMAN2b27ujp8kwPQ1nRZbZpxxRF7R7rTRnKZ7KNxaCmnIymk916WK493G/aI2ySdjT7d9O3x2nNWojNCyFG0kLb2T8byuy7Jn9ti1N0kszkyvloTCaszZGxO3jaG575eXD2Zux3s+7FcGWRqL+21PJDHEdRPgFNsSHGVZBMJAbVIlfk1eyox8cna1+1nXbHhA3LGrYVXx51WHhdY15eSyHITmyMLE05aCj2BKjinmYZJaMsjuRjlc/sha5/IvX+vyPUWXxxRjpnkFW8iDiOmjNyJdMSSrMDmtKDXLBGVh6kZiiSombpExhcBmdmB2sQuikw748fgr4UOPJJfDS+Bj3zSV9WjM7QbvF1c3GG9++k03ufI2ToosYV+SF78Ry+w8fhaTAOmCuMaypOVGOyawAxOdDpno736cUMfrb7KOIzQ2JHCvMAxikMjXSRlacMNKZ9pURGC0jAACfJjsOxwTYYFFRjilKMUeMKOJrXues9lhuSCWsXFCSumqldJUPhcpPdZDxHUbgZsU2uICrsd2wi847Ma7/KyPU1XezYlH/bb+UgEJtbYSixRRbMnw4YF01dCOJcUa6avvEiypqoe9r02MYwuE7+w9kSGgk8rbLiZqsrTK+JivnbXytYOdQlX+vDt4PWl2KgiiZIREGlavbruZxRaZ+9iTAFfaNr8Luu6kcDpmFRsdNaD1XpRkblapM2OxenM0wz8ePwfCL+GkX//EAEIQAAIBAgIGBwYEBQQCAgMBAAABAgMRITEEEBJBUZEgIlJhcZKhEzJCU4GxMKLB0QUjYoLwQENy4RQzJFBUsvGj/9oACAEBAAk/AVuWr3pO0fE96S60lmaOmk7xqdpd4upH3F3kdpr3nwJ3+xHblwR/7JrPsrgiFqDko3X3ZQ95/wAuD3vi+4kpSn71l6eBFRW4qfUktubwnLcuJPa2LSdSW/wNK2Pademtm6Xf4lec4SS9/jx1MtUaePAlZVKawJfC7HbkTbGMZIYxjGSJFXYSliVbu5UKitLgPf0b7PAd8MCUdnZy3nzEL4UZZs5alrdibKjJvxJsq4mksrN2JeI9b1OzPCfjxG9WSkNSi8U0LI4auAlZIwevCO/ifUWvfquYMrdCbS4Fs0PYTikaQivB2NIiaTT5mkQ8xpuxtO7tJZmkKX/KdyrTXg0VYc0VIehsOaj1RSm9+RFL/k/2Jp/YjF7HulrFnri3N8OBB06W9sVksLdx1lsuxvlLmQdrYm3apFtfQU8MXcuXNoUjaHIchyIVJN5tI0aryNHq+VlCr5WUKvlZQq+VlCr5GUp+VlOflZTn5WU5+Vl1vjdPLeO/VwIf7qOyhCFqsxkk+ghYti1Q2pPcirGPgfxCP9xacOMRjGPqzw1cWdpkurfIp5lIpRKcSlEhApxIRIxIRIosW5EvQqGkcjSGVmQqt2Nr6kbkbO+A2/EirEEym0ISLGkOnLc2ro2Z03lOJBNFFlNkGIuY2HYrqPiySqQfYdyT5knzJy5snPzMu3tpYnZZ25HZI2ShKzI2tkzjj4nHEvHHeVfoS2sR470SJPuKs7eJWnzZWqc2aRU5sq1ntvCCb5sqpUtnqWzuVHWqRTfiValCuv8AbbZWqKSzW0zSanmZpVTDftM0ibs+0zHaiL/cj9zgujL2dNZspTkrZsWxPdf9z6a82xrVi28B9Z+/P9CHtJLPckaBRcO63oyWCwcXuI7Kvace/jr3NDzSZ3nHW9bz3CfcfQ3IQhC1ZOJhhdvuI/Ug1LijNYM35vgiOCJra7JLC+EeGrgiex3lX2urO9l4mS1N+zbxRvYshWvKy6HAyisfHVUkmQUX8S7xakdtHBnzGcCGMIyTFjETzxKlmsSezSp5vi+BaTfvRe4lGM5J/wAu/AptyeDsSsT3X6FlSoralf0KntfaO8PDcRlUrSV9ndYn70VeUcVB8GW21jFr4iSc6b2aiMFr3QZ24/c7Or6611adlBdpshKmtlJq+/iUv5cY2ds/E95NrXw1r3InvN4fUnPbhNqff3knsRd0lxNIjObXWtw3XI+/TZVSvuKivbL6lS7jkfLR3nHo5bWJFpETPaOy+hxEdgjtN4fQiXR3X8SUYK2b3kXUlx3D60tfZQy7bWr4ZJmTxXgO5F9Y3WEL4+h2SN+un9CNkZiOGAhYHaRwPmM4Ek8sb95PPcnYl6lvavLwItylN7FuPeIqbLj1sfsTUW29l5okm/Zq77y2duhQ9sm4pw7jCMYuy+hjs5biFykoSi2rLgaPsLZvt4dZ9Dss7cfudlat71cCjtyb6vjxFuM45G84C3G+ItW+OBmmVNvaxfdqWM7PAeMYO/IYxnwwR3nHpNKaWNypFWzPdj7v7kNpqJSwKeZTV7EcdoyFg4kbpZoqJdzJbdTjwHi3dsltWyvj0eGuJAlKMYy2oTjufAj1+8yWQt5UiSV41OilLC0k96NhUdnqcV3Mp7S2fe7z35PHVLV20cD5jOBXv9CrexI96D2WS2le8kYIWHEUrVFbD9z3YWgvodt/boTUak4Xg3xRJOpC17cSOzP0MXwWJHZVip7T2surbcilLB4lOVm7fXgU5b7fTM7LO3H7nZXQzWQ+sUngiOzG5ZRWZlu1ZWx1JieDxMYtfUV0QsXcn9SlNufvWi8jR6nlZo9XysoTUVi7qxm7s4M4lKU7dlNmi1fKzRKvlZolTys0Sp5WaJU5GjVDRJmjSV88Ci7eBSeHgQ3CP0LO3eiMPMez8yJU/MSpeYnS8xUpeYrUuZUhK7tZanhsoZIZRZGV3kUp+JSmRmRmjbXE2yUiUicu8nO5OVyTKrMhau0jgdtks8i9ibKrKsmdanKImkmQaTWZV9pUk/e7Iu8hlJMW8sJGEou6IxVWUr1EzCSzMu4UP/HcN5G1JJRgu5FOOzt7SSwxNjrSbksbO5Jdd3vw4kt1xZzWJmomaz1MkrmDJxsVV4I6kCRJk3dZFZlZmkSJbcO80jZ7maYkhty7TNLqeZo0yr5maXU8zK826m5t+7qdopatEq1byzgfwzSOZ/DNI5n8M0jmfwuvzP4XW5lJxcs09xGNqrd73wwKSlNya9mrpq28o7OzFWjxNHNHwKKvwKESEdtZCuk1aVkn3kUv2NEoOF8G5GjaN5ilovqLRfUloq5lSk47WUNT+FD1YanLutiVKnIqT5E5E5lV95VKpUKqK8SpAmm+j20ZqIutTxZGzERIkRWKUWRS8CmhIRTVylEpRKMSCi+JRjLv3mixRTTKEShEoxKSKSTcLHa66+xF7OyfUy6CF0fdf4P/AK08P6nwFixYL6Hax1KWxJ36p7UVYjWIVSFUp1SlVKNQozKEyhM0efM0aXM0V8zRfU0VczRFzNEiaLA0WBosCKSj7sV99UsNxIaI3ZFFkbJYsWFFkUQIoginmQRFImTKhM7SZwxO4zSvHwF+E89THqkPU+jxJN4K/wC+pXIk4qS3FSJNEkSJEjFspXZo1/qaMaMjRkaMjRomjRuzRaQsOFxXL5HHooTExCIkSJYQiJFESKIo4YdJbiAng9UkbJTps2SxFEYvZ940eLNDWBoqNHNGNGaKObsRfukGRwsYcCOZ2ET2ccH3kLS36sNmLZCUpX965Tk/qUpFOZGY5iqMjUVyFQhVI1T2h7QdQqzHeG6+vccNUfhE+/VFkNqLkzRjRygrGjplBFAo7sSlH7FCNzRoFCBTp9yKdMhSRZW4DViePMS2kNYo3P8AFzv+K7bKudSF9wsWurJcdXDVkuBCXgxW1RMI44Lf4jxWrMXIuIzuRu8mhXUbXIXQ7xtj4m47ESeW460iOyx+9gjJ9CaKiJod1bAY/wAH3rHA4mPVPek+rEh7NvI96MXzJJXZOLJxJEFzKaKTKTKUmyhIWKzGtWOqLPebsRhF02rzms+JG1Snvy2jgdro79T1K4ra0h6kL8BNXLbU4Xg1vRC+1ufEVutfDU9WbeJHC4sNTRsigKDFaW+xLISFmJEV3EbWm9ojN1dnwx4ruPdsSvIeGyh4j8BnE2sORN2JysVH1SN1vKSlK9th8DQYczQVf/kzQvzGh2vv2mO+GqSw12+mqNziNZGSPeya4EFJZTv8JF1IRm9qdTBxHhVqWRbIsJMXw+pKxhJtNP8AQrzNImaRIr1Ljb6r72RdrknYlZLgTvYk8T/bnij/AOTTlJbNOP6lRP2i/l01u8TwRk7MSf36S1X/ANBcnbZw+hUx4orK/eaRC5pFLzI0in5kaRTw/qK1N/UlG3iVoYd5VjzK0dndiVUypHAad9UlkSw36ldrIha+a7yUdkzwv3klf4FwF9DcIVi/ViL9i1zCxJyUs7kNlIq9XgND1OxO9x5E09otYsMkroZJK2XjqWrqPeVOrvSyLKECrEqxuVokY5lRDRNpkmN8kXb12sX1SaJdWSFJcdl2F1nm3iLNiwNwxkiRImyRIkSJEmMYxj/DYyQyRJkh62TZWnzJMnLmVJcyvPzGkTX1K8+ZWmTbM44WOJHcJG7XHxxIrEj6kYixT1595ATKZfXF6suZfZJXd0tUHKT3LFmiyXiRcJLc8HqY9bGMY+gx9LcnqV3zKcuRSlyKU/KyjPys0ep5WaNV8rNFq+VmiVfKzQ63lZodXys0Kr5WaFV8poVTkaFUNDmaHI0ORokvQ0R80aL+ZGjrzIhsy10tpLN7jR15kaL6o0X1RonqjRPVGi/mRo35kUF5kUo+YhDzHs/Mez8w6XMnS5srUubNIpmlQNNXlNO/KT9rSWbWa19pHvb0LG2LFca7iRo8maJc0aS8BtP+rDXYSIiEbxCERHql1LsWG3G3PUrT2V/i1UrySss0UL/3M0KXjtMpLbirtbTKH5mUPVmiN9+0zQXl2maE1/czR/zM0b1ZovqzRPVmiLmzRFzZoi9TRI+poiNEgK9B/k1d/wBjiRvK6Vz6kNidKdrd25iEcDgblc4CVhWW4sWGrDNls2MsbDGMYzH+UjiS2YpbT8BbMIrJEmPpaO41abtGPaKP8+osKSNFdGcl1TRHWjT96RRdFxjdxeJQUOptL8COyqt7rv7tXEe9ffX9CRLVYtrlkS1MkTZUZNkiTJMkUseJunE4jumlrWqC77CtqZKS8CtPFZm1L/k7iw/Bs04u5xO/7HE4xI3u8fDeR6rhsVf01WOBC3C13z7ybhGVO0Vs3vfiMyMB/DjvN+ZJ7y+GRJ5k5Y5jGMkSH/tI7SPlM4G5vp0v5UVe/eQ9psL3SKp7MHGEDRNtTleNTaw8THbltVps2ZQ2Nlzj+B/Vq4kLxwxKTIW2iOJBkSJcvqvkLVJ6sUMkyXReNjtxOKG0rFafMrOxPa8SVrFaSx3ClUu8PwnZLoIXws4s7/tqq7Kk8cmV15UaT+VGk/lRpb5I0uXoaZI06bs7bCNJks8bmly6mauabV5mmVfMaZV8zNLq+ZmlVfMzSanmZpFTzMrVPMyrPzMqS5snIb1dpHy2cDtnDVhjiyNyJDwIYN+hGT7PAhzIEb8P3I+Ih8/1HH3lbwKkE78V0OMtXaRRvFWx+popoywWRQTTeVjQzRDRTQjQ7mjGj2ZTIECniRI6o4l9chvb3Hbjqlf2bSiycio14k9q+4jyHczKf/JoleLJLa3okpY7ha8EsyMtnd3lLZglnqZJGkTjSi7LZNLq+bVwf26bGV5Ri3eyNJksb/U0mT+oxkiSuMkMkPo9pHZkcDtnA0icI+zWCbRplbzM0it52aVW8zNKq+ZmkVvMyvW8zK1bzMrVvMyrV8zKtTzMnLmORJrxO0jsnA44Halq7SIrNfcgiCzwKccWU4lNFejB95GFSC+KGKKSKV2s7FEpMgym+RApFJeOFikpf8bMpkCJERfa2Rf7kdUdv2tmrbmuOqooycbR8TSak5JFWp5j2iV+JVqpr+orVeZpldQ4bRXqZcSvVXhKxp+kL+9n8Q0jzs07SMf62aRXn4zbRty79o2rb7Sdyc3/AHEpWfeSwYtmDT2Z95BOlTTlteBG15N2OD+34GGqN+sUolNEIkIkEK3VMkK4sOl2kcJau1q+VEkl46ty1LBshu6HZN4sTI4qx2UUovqNu7t9CNro7b1dpHaj9+h9CWEcNU2uK7uDFjfI7T1oiLGU0kZywRN2WSKkoSXAsqtsXx6PZPmR1aOlVt7zkySgvAk5XkszEV7dWK7y8MLW7yHVWDZjZnA4HA8X4D7/AKHDAzbHs7OS7hXxxsK3WcWi2zv4j6lN4oWzFZIstGwT4vVwf26SvLZbRmsxErtxudsysMxdzgcTskG5uV0yBizj0e0jv1YdbV8lGcJXl4HAeEVq3NnZ6HZPd2sSDjTvhczL7Vut4nYRoyrRUWsR3l/mB83V2kdpffo75seZfDgZXH8THjfMyVr/AKnxZavmGWy9bvx6PZPmROOvtI4FHbbeHc+JuEsNwiJ2SN+pkiGzglZ8BbiP1OA3jvFiK2+Xidk4rUvgerg/t0syab3+JJRRGy3eBvqa78dfZMKTeD7yrG1iW1Vaz4LpdtHF6u1q+SiTTNEvLiii401uV3zKU/KzRZz/ALWfwypiu80Wr5WaLV8rNEq+VmiVcuyzRa3lZoFd/wBcabZoGkTn302jRK21J9hitLYV+Wv5urdJfY7S+49TJC/5W+5UlJx+JlBKc8Gk7qx9TtvWtWdOdz3lkib69sOBSqNQ+K3Vf1FaLldf9anr7J82Jx19pFWC+qK0PMjS6XM0inK39SK9PzIr0/MjSKeXaROHmRKPmRFc0TjsPB9ZczSaXmRpNPzIr0/MjSKfmRUg1v6yNzWrOa2I6uD+3TlsvuJ7XjiUZyXGMWylVS/4sjW8rIVvI/2I11/aytVg/wCq6NKnzJuT7yRMkZ9Hto7WruOBSc8UklizQZRS3Oyepk1cksMyasTSJ28SorXJXJYvJbyqr8Cpm8Cpe98iV1r+ctXFfYlg2vuTJEh6oRZBLw1UbmjlApWYvQjgUmUXtcVgylKVu1iikykykyiylIg8sz5kTtdBCELVaMGm2+CW82rTpqdpd4vAptLi10UJCPeqY6nhSu3qlZY6/wD1uoo7Paf7Ef5FCcuosL9xo8KUJLqbFrW6EpOVWq0sWlFL9SE6dSylTe034r6m1Txtspsqz5sqS5sd/Ho/wlzShhe2J/DOq6ezs/qfweG1F4+LNAhSqNdZrX8LufMWq9hPIhtNTI7LkpIi21HawwxWR1XOMWk+NrMj1sLL6bi7gqkPa+FsDGnaG3bjcvsz0ZpS774FJqreMbPuefgQkltTVThfdJdwrU5bNu972U7ulUVuOzky8X7Wq6f13lNxmpQu+zZ4shLZcHHwdxWjUndR+mv5q1LDNk3s3WBUJkyWuJAgUikUSgigaOaMaKaMaIaKaKaJuNH2bRWJ7t23+hx6aIYJpRvvZW26d068o7+40ScYy+dJU0aPCc+6NlzeZO/9KwXTxby8TOMEnq3wep9W+WuFP2VOWezjY6lHSPdkl6slt+zk5Of6LoV5qMpX2Ni68TSq21tbd/ZrPmVaznLN7CX6k9I8q/clpHlX7m3s/wBQhEWRZCL2IpK/cfS/qJK7vJreR6z4EGLVUUIwkm7mlInPyntOSJVlZqV44M9vHviUqnoUKnoUKho9Q0eoaPM0aZosuZoj8xof5jQ/zGh/mNC/MaF+Y0L8xoP5jR9i0tq+1q7JdWsxjJEyRJD1WLFhIiQRBEEQRCJBEEU0U1kUkuqjs6qciMhTIzIzPaKPMoyj/XJJsr161PemsBShJrZpLZyRpFVyebauzSZ/WJpnNGlx5M0tcjTFyNMXI0krvkaQ1Z3W1lc02nzNLiaTf6M/9bl1elfZIzIzIyISKciEuZTlzKb5lJ8yl6lH1ZR9Sl6lH1ZSS5/67gRVrbylFS+pmXwRCMtt36xo9JGiUn6GgUzQIH8PSiaFGxTpU0t8mkUYSjucWmjRkjRjRjRzRGaOyHs4vLfiVcSqaQvKTbw4HZ/AfQf/ANkxj/E4GM/ikR2k97waN+CuRulEiJlyPMndECk5R2bYEcW726a3mCSuylKS43seDQjsdFdB9N/6B/8A1eCsJpXspHu1HdMd8EO7xk78FgiZFd7Z71zhgOTxMyRMqLkVL/TUugsbYHvbK2uZC8muoS6mz1vEqqUrDxSt+CumtT/ArQbbd4b10l/oncWREWtMWpfgvpq6krPwNIlZYxizSKbVivArxtsKKK8OZpEOZWj34mkQy4oq0+ZXhzKkPMVI+Yku9XJR5kojQx60mtuXJktmPAw2o+8dRQed7i6xuIkRCIkRCIkSJEQiIiJEiIgRI5ixMxjGMZcYx/gx6NxJ4j/06I2vkx4bzFXwIoWGGQuq+Il9CJEWu5cubXM27/8AI9ov7idXv6xUrW/5FWrb/kVZpP8AqaKtRq+FpMnVuo9sqNO17kryeRvf4KZGRCXIpy5MpT5Moz8rKFTysoVPKyhU8rNHqeVlCp5WUZ5dlkZL+1nAuY3W8WUmR2pN4IVPw2iEPMigvMjR/VGi+qNEfoaJL0NEkaHM0OpyNEqeU0Sp5WaNU8rNGqeVmj1PKyhPysoz8rKUuTIS5Ca1Px/0718URk+tuIz5ntV/cOpfmTqW+h7T0J1PQqVLFaoTrcirV8qK0/KaTNf2mkS8ppEvKaU1/aaXLyGky8n/AGaX/wD5s0yLX/ErR8ppEfKaTCzXZK8cMCV7R3HEWGLLly5cuXExMuJlxPmxPmRfNifNifNiZEiRILF2ZkmzgdtnZ1X5EnyJfckSRNFRFRFRE0TVyaJ+pMkVMFmVVJcUaRHB44lSGx2ipS9CCU4SzX+q7SO0xao2S+Ig5Z2RTtd7xWjf62MFwZkxeD1YkfiwLZC/v/Ydx2xzKcVC3UfehQ2/bbN9lZWKNP2Lpxc3h9Sz2nL2b7+Ale4tW44s+KNyRIkSZJjZJkmNkmSY2NjY2NjY2NjZxO0/udk7bOCN2D6CI3k936mKVtq298EQhhkikk7XsrN2KV8Mcimv+yKb4kEQRTRBFNF//Gq+hinVjYxo1bSjjkyF1Sl1TfNf6rtIlsxU8yV1bAkTVtyHeW8kMbsZDlzG7EpYlRoleisL8X+3QepjJfy5e8STi1dPuGbrHFnyyTGSY2NkmNjZJjY2NjY2NjZcuXLnE7T+52DtsyngzfgX79zJVPMydTzMqVOZOd2rN33E5KxWndFWfvXf0K0s77is+SK75Ir/AJUV15SrHylSHlJw8pKFnvS3mk+9JO9uAtifbKu3t27jt/6rtIouac8kaLVsvA0arY0WrteFzRa3lNFr+UpVI/2in5WQq+V2FV8jPa+R/sSq+R/sVJ3nng1gNkmSG7cbOxpdO/iNuPFFUqFRGkKy925p8Y2d8JEtrqpXOLH8BYmoo0hcmV15WaQuTKy5MrflZX/Kyr+VlT8rKv5WSflZJ+Vkn5WSl5WOXlNvym35Sck+9WJkrjtj+p2Tts4meT8SKcnPZx4lCkaPS9TRqfM0WnzNGp+Y0Wn5jRafmNEh5jRF5jQ/zGifmNEfmRok+aNFqeho9Up1Ue0X9o21e3DVxfShiyF2Q9SNn4kZcy9mNjkSZUkVZFaRXZXlfwK9/oVish3tr4oz2tV9bsJytvMB3XAl4DJMlk7IYy+wvdjxHZLJf9FWUvGJJeAtm3vw7xjN2Ikdqx2jskc8jcmSZKyRa39QlsvKxJvtJnxamyTJyJNmGCyG3bNk43v9RtEmSebFmbsx/F+p2Tts4mU/ufM18hPxR9DctSEIihWufUjgRs91tdrzqSxfcezvDdjwLXjN5dHifCbxqz3olZklLAzXT49VC2cMR9betfHXxO1r36sNpkZLZli0Oyve5GzqOzWvdFmkRcr4x1b2ke5ShkJyc3kuHEqScdrBN7iNpLGDXcRwnG0jK9kZPVwMlL9DicMfAa6st3A7H6nge7m/BFPJErJZE03OGNuJHHcbPmRs4/1I2fMjZ5oyuL4TNx2peLI439ROWF33d+riXIu9ji/udkXxvXvePjq7RS2cCJntKws4kJkZEZZkZZG0d5a7lZ3IHVP8eqTj15WsTljj9bWJN3u30eJuerjgLVwL6pO+BwWuld7pcNT2bb9fHXxO30HkO6iyNoEbjyld9yJcEVGTfuswsVJFV220T60liQbrRyfdfU7xksU/0JWbZLBMm7E2SN8jiO3VML5nY/XVHagn11/SK1N+6hIXVjgb9S18TgiyVPIQ7VJZ24au/Xx/U7J22Lfqy2r63sVfivv8CrFI/wDVC+ydmy6HZJI7ympRyaZXj9mSU6lsLZfUzbu9W++rg+jbMXVlgy1izI2EXuxMTFm9S1LxRCQtfHXxO09TGZbzGnLFH/RZHvvM8Zat6FkyJFi68VaaGQuZLcJ7MFaPiXu3cQhHHV2dTjdYWeBsW39ZGzzKqS4ZorRtwWBKHMnS2Y/1FSh5ipQ8xOj5irR5lWhzK1JTXCRVgpeJpkeaK9O/G5pNK/iaVGTW5E48ycRfEdk7bN8ihCXtIdebzuzGMZ4eBCTusbcTbROZVqFWRXkaQ+RpD5GkGlWNL+5pKfMrxK8CrAqwJw5ixjfITN0Om2NknzZUlzZUlzKkuZUlzK8/MzSavmZpdXzM0yr5maZV8xplXzGmVOZpczSpkrt5vXxO2+42ubNouXNpobX/ACGhNa0aEpOWKndr6WNBXNmhrmzRrbWeZPZk84vDVUx4LEoysslexSn5inPmQkryzZOH+fUeEZPE4j3C623ZOV3HkiF9mg5qnGT67NF9lJVVHZxSmhNxpp7dOUndO2aIShUp2c2m3ddxS2Kcl1VtNv69LRtp9xo0pZ3x7zRJbVr57jRnZ7rmisoOL2ljfdwKMOs436z2iFNRpL4ZNrF7zR9v21ZQVm+onvMdidl9GWsidkoZmUpNrU6cksnKOJJuTd2+80lQs/d/U0+Phc0hW2b7W0T62ztZl1F+BMkho2TZ5CiRiQgaOmrGj3byzKSV1gQRBepBeorYfjSbVsb4Y/iK5ntfUnZ3KqKhVRURVXMqLmTRLeSWpkr9+BYSMCrMmyr6FVcicRxbLZDzVn9dSyJyj4FWe2smVZtrInO7Vr9xOUb8ByYmX9BMiyJh9USkSfND34dZDw8UP1RXWGWCJ2k88vsV31s8jHVw6ViWBMm2hjGSGSJEipZFXFXt9TcsNTH0LjGMfQf4K6dWcOtusVJSi1v15zdoopP0KTKTKLKTKTKUihLkUpJlGZSqcilV5EKvJiq+pKol33RVkVpepVY4tv8AqOCyx6KIkCBAplK5R+5QKHqzR0vqzR/VmjLmzRF5maNb6shYQtbSw6USJEiQIESKIECJEiRRFfjPWxj1MYx9PicB6vg65Nk2TZUZUZUZUlZG3DayK8jSJGkzNIl6GkS9Cuyd1fUhrIqW2ZYj1wYvwZXWpdNXIi6W7/67iZJDxHmXeFlY2l9CbJuzywFtPvKUY9+ZUpjhs8jdlc2bGwQsTJIkiayMTMw8DjrW4m9u1+4Su1j0EX+g8zSlhmaVHkaXHkzSola5KV/QSzsRRFENWC2bviYxa3/6uNr5f6qVsDHcKLa3ksIozlIu0QzyMlIyHa1jhqTGPJswsyPxrWliIyatgN7MeItpJZG8Sx4mTzK/Vtke6lgSst5YWqrGOGT1sktco998zj0MmStJbyW1I2cOOrD/AEb6KxJfQREQiJEWpfjoePAnJE5d5WlbgQqXXge1Yp2JPZSya3n2R7tuCJS7rIlPkSkTlyMyMW++Ny1r4FbrcNkr2+hpfoyopYY5ocV4XLSFZvOxBRUVbD7m5iLarGyKIkW5IZbkhQ8qFHyo2fKtVuSLEYuxCCIwEixbVmO2z/qMfExxt+Ounc4nE3Mi5PgigygygzR5GjzNHqeVmjVPKaNU8rNHqeVlCp5WUZ+VlGflZSn5WUpeVlOXlZTlyZB8iD5EWLXG9vsZOTKe1bMpfYpeqKXqil6opeqKXqiC5oguZBc0Q9UQXNEF6EFzRFc0RXoQXoQXNEV6EVzRBc0U1lxQrNHA7bJqMY5t8Sr+VlT8rKn5WVPysqflKn5Sr+UqvylWXlKkvKVJ+UnPyk5+UlU5EqnJDqehKp6Epk5+hVlyK3NFVSV7NZau2U1K8kutiRp+UhT8pGlyI0nwRQpxcX4lKmUqfqUYepRjzZRjzZRXmKX5ik/MUn5inLzEJ8yEyNT0Paeh7T0JyXijGzZ2jtHZRTu2sWUUUvuUin9yL5si+bNrmza5kp+YqVPMVJ8yrU5lapzK1TmaRUK9QrzK8yq/QafjFMp7McMEbkdp/c7UblGJRiUYlGJQiUYlCJRiUIlGJQiUYlGJQiUIlCBQgUIcihAoQ5FKKaysds7B8xnbWt4W1MlruX7h3L60xS1JiExM+YIV/wCYfMNlFPfZP/omrv3f/wCEIw9WQSQkLLGT7iNrO2OBHLMhjuFaMPeFnkRYmJiYmXLl9XbZxO0dlF/dLlxsbGyTJMZIYxjx1MYxjRY/p+xwF8cvudqPSwb3vgY44Cth1vAlFXV73wt0ULUta1Ne8dg+a/uduP21XsRduCL3ZcWA3d5PckKRcTuRfibV1/n1E7jeykRZe45d9yUmJiYmfM1fMO2Spu0r3f2PPL9EJbTzk8WWEhId3e8nxFmK/eQvhghf/wB3kVs7Nk951WvvrixMTExPV2jids7KL5Fy/wCA2PWxjGMY9x/T9jgdtnaiIQiJEgnwIIiU1YiRIiIkSJEiRIiO2fLPmP7nbj9ioioiaJk0TRNE0TJEyZMkTJEiRIkSH8eGr5j+4splHwRC31NnzIt5kW5o+6Puj7ov6FxMuXJOyzX2E5fuSlfN52vuQpQm3i3i/EngoWUe/iV753ZWVyabH8bFvO2cEVGVHZFOZRl6EGU2U5Mpy9CnLkU5ciD8pCXlIPkR9GR+4vuL7i9GfqQRBC4fY4HbZndFSQ5S2pWR9y3MxYrEkR+7/Qj/APt+xC/m/Yov1/Yh9/2Kf/7fsWjxvdDT5ohgSS5jjzMt9mTlirk2ztM7BC/8x/cjZJx+2pXawRpP5TSG/wC0r28UkjS0/BIrNf2o01ehpy9DTPsaZ9jS/saW/Q0uT5GkVHyNMt3OyfI0ibXaVrGk1FyNJqehLalGTV9XzEI+a/udsi0d+uCtvbMX/SWuLBD6DL2H4ZntIruJv1XoTlh3sqSz4nDV2nq7Z2EK9szuGyTUUdWO64oXeTWDG7mPWxIogiCKaKZG2BeUrYlKnKWW/Mbi3uZL+ZEe8V8FcTO77C3HzJfc4nunbMiPWeEfEk5z+LuISSbsmv2F1ksO8qyXWtJJ2xK0/MytPzMqz5sqS5lWfmZJvDFslsw3bmynsRv7+0PajtWdzesPHVD4Vq7bOwL/AHX9zPbX2Pete3cdpG5GLeQ/5i3vHEl1bYKw+pPLxN2K6W8dowV3+wnF7xNyf2MtUbr2jKTuRt11q+axJfzBtvZ922HM7zgX680iF1HC5hc42M7ZEJciD5EGRZFnvWuySjZtQuTvclglgzHGzOKscNXaer5hwJ2cndn0OB8cyk1sYP6CINOODuZEoZdpDh5kOPmRs+ZCWHejsnvTleT/AEI45nWvHrXFfctVTZwRpGXgY+7bkcDtv7md0T+C3cbqj+wri487YFJRU9xgy+0k8+F8C+xtxyFW9D2uXce17shVrfS57S+1vtqa9nsJJL1EbSm42XA7jtfqdlau2zsFv/a/uZXiR6lrXO2juMr4l3Dc3qb23K8h/CynEhEpxKccymtVHbxWpXxxKdo7WCMx/wC4yY/9w4nzGdsmd+rNO6IbLax1fDmfDDE3knkTZNk5GWwhpOnNyFY3IzZ/ScNXaertnBau44Cxg7oxvjLxLGUM33ksLWsLoLecCyindC8T35YJI4HE4LVwj9jgdt/c7tXb/QfvRwJWad0+/cR9m/R9513wiSvJ5+HAhjOd5ECmyEilIpywkmPNYEbw3PslWJG1O/MySN7OwtXbZ2D5r+52lq3TR8Rcu7bxORwHjJ9VdC2erO+HgZ7xNeomk85HvvId3mzfNvV8xanZObH8WqDdsyEuQmO1sis7d2GqLk5Zspsg8iLIsTM4fYYlLgZdlCwjijNyWvtPV22SS90qIqwalnaSNLxXgaQaQ14Glyt9EVWjSmlvNLfl/wCzSn5TSX5TSH5TSX5Su3w6pVd1vsaXb+0r3fFpleOPczSI5456/wCn7HAXxv7mG1iipbmVrK+DNN/KaSjSEaQjSEaWzSTTLGns06Rp7NLUuDK6K0SvE0tRW/A0y9voVYlXEy2mdgy9q8fqQcttpqxos5TNC26UnbqyUk3wwP4P7qu+sm0uJ/DHszsoyvnwP4TLq54o/h7VOWUtpGg3P4cnbLE/hkT+FxP4XA/hcXyP4Sr2ufwizsfwxpLNn8O9T+HX+p/C9uUMz+DK68D+HyVLczQXBSybZR2etql8TKr+mBpdRu9tiLSfqabUjRoxTk7Y3e40+fspT2HtLFM03qQg5qaV07bvE09Si3aeHueJpDmllK1kVSqTXIkjZ5E6G7uFSefoU6LKNO5Rp8zR4WbsvEo6M291zRtHbtmnkaLDquz62b7uJSiLvOBLDbeJxRFNbawZCMEstqKXlaNCoy0VpbU8G+9lNKPtXGnVXDvNDhOMoLa2eL3opxc4radSXBvJdBskzaeO5tFOsurld5n/AJCX1zJ6Rfv4FWskV6yK9Z9aStFrd4mkV9qpazwsaVVVOMXKcnnhwK8pQnDai+49T4YXtxI+9JvVFOTn3KVrd5Km6vsZbG1b3v6rHs3X9qvZeH7EacKkIPg4zVs/EpU70mnGWCcu5kodde5FJKPLoo0eg21a80Q0aTvLCXezRdGakm1LwNH0bFpW3GjaM7K7f6FKiutHGOeJQ6jcb9SOxzP5s6S6kdhJ/QhSmpV//kYLBWPc23s+FxXKe1eLVu8+KV3q2/ct1SG3UjU2r7Kjh9D2rqtO0HxfF8CLnFJqrTeT33Q5whhy4FOTWHs/6PAWpC1fse1btjiTrX3Xk2SrZY9Z2JVE74Yk6j/zEqQ/mW2faY4LiRo1Ze0btZqKutw4vZhC0Lda6zK/tHWrKp/wRx6EYOMXhf8AccZKcdmUGsLEKcIQd1CKwvxJLZrX2l+xCLjUXWufDGy6UFNL4WaFHmzRsNlpx2jRrWfa3FCadsOt6lOStJPkVZbMX7vs+6xanttbM4Q4cUbcPYSk6cV8d0LN6naWprHO5scxp/3XJYf8hq3C+Ba/G47/ANxFcyC5kFzIeqIeqIepKQ27+BJtfQTta24i/Q0VTjdvHvIuDp22UssO40VKDvtQ7VyjJJKyS4GF3lreZJkhsuXLjZcuXGy5c2i5tFytU8zJST4onLHv1rCWT3al0IsuXNo2jaFIjIjIjIUiMiEiDKbIsTLid9efQuXGyTJEiQ+m/wAJXIIgQRAiRIkCBAgRIMhIT6XEx49CpW+lrEtI9P2J6R6fsS0n0/YnpHoVNJ9P2KukehVr3+hPSb/QnpGfBFWv6FWrbwRVqckVqnlRJvjda1kh+JbYprq/vq4nHUy4xkhjGVd2qRJjZJjZJ676+BG9yDF0nrZJkio0TJkh65LAetERY/gZnWT1LppiZfW8eJpHW3+IukxnHU/wJKMd1yttK2I8NXHVtW4jut2tC1rVP6D/AAMDatb3h5rB68XFYDnt7N7ix3iIiImHiNE4jiNFixbpK8nyIxT3NZCx17sjacpJ9Yz1W13+g2VCpgTKhUuSdyJBESnqwSV5MbcJLC/Q97YwJxVL2eMd9x42G8xvAY3iY+pYpxsUoFKJRgRWp63q+X1L5bQ05pPbceBx1SsZvIclZNOG495MjdvIpJao46mYLoytbVncliLE44mbyJO2zbYPeRNNvUrxa6xpVocD3Yqy1LoLw6C1I46mb9WNo7MlvE4whlfiLPU9VZx/pzFaKWB7u8w4CGVlB5WZLUx66kHfFrJ3OOpLVkStKw9qVsLEeepF7mjrb4l7kXa+4hIibSaLl7ibIsTIvVvOJFkGQkYEdqPAhsJ5ivcXdqkSj4krlWK8SvFvjiVokkyS+o4/QkkVoFWGRVgSTKsF4slFk4q3Eq0ipAnFrU4jx1LoRRBEF0IkSJHVHUiNi4jAk30JEiQyWpkiTGM+xbktVuS1JckRjyRGJFISEi2rEiRQi5tDlzGzaZfVclcv0Lm1clKzJJkWjHHV2biS8NXHoLooXSWp6448RbtWjVZR4qLaNDreRmiVvIzRavlZo1Xys0er5WaPU8rKFTysoz8rKU/KU5ciEuTIy5CYui+lorcZLDFL7mhvzI0N80aFL0NCl6GhTNCqGg1DQavI0Gt5TQa3lZoNbys0Kv5GaFX8jNCr+RmhV/IzQq/kZolbyM0St5GaLV8rNHq+Viaffhq4ar7UnZX4ntJVF8UbZ8LG3sSX8yZKolJztLglk34inOVTKMOHEk9j2alHxe4Ths4QXad7Ea0pYdZ22bkaspzTuoWw8blWbhKC2F8V+8lW26+526q4slPalUcNmeD8fAltqUU795UlGVVSlLuSFdXwIkRCMHEqWUbWce8qzd5tY8SV+sdkvsRhtWRRt/cykvMyC8zIfmZH8zILzMprzMprmykubKS5spR5spR5spR9SlD1KMPUow9SjD1KUfUpLmyn+Zm0v7ipLbgr48NW6+qNl7OJBP2dd09hfFuwE8hakJiEIiRIkSBAgQKZT+xTKdpttX7tW++r5MPsVEv/AB9n2fV9GJKTirrPHpyzZu/DWPsmcTsJizNzT+pQftHJN9bC5vjZY5d5QcqexsPdjxKMnKmrdV2U1wZHH2qlZcFuKW1esp/RbiE4SfF3RCVkrYMjlK8O7uI9SnDZ2O/iQ/nqGxt93Ej14Xx7vAovCkoLptpuPijSFOPw4Wf1N80fKR8piEIQtSLCQkIQhakIQhIR2C2Qt0vtqt7iKcdurWnOEuzff4ktpqNnIsWLFixYaLFixYsWLFixYsdp6v6tU1/6o/YrQ/8Akcfh3fUq3UIJXZNE0SJEtS1MYxjGMev5RxPlIw1SxeQ+k8CrfaWBUvgVSriVXLhBFooqMlcjbvHhqbvayt9yUnd2d8fqj5h8hfc+U/uISEhIsJFhISLCEi2qwkJCQkJCR8s4HCerS3ZK2SNLfJGlvkjS3yRpb8qNLflRpeM5JK8UVXPG10kTtteHgaRaS/pRpP5UaQvKjSF5UaQvKiuvKitHyoqx8qJw8qJU/KOn5T2XlNm0HhZauEvvq+XH7dKO1bcKW7cQle+QrJ5eHfrX4DPlfqdpHylqyRlu107J72OBTa9Vr91vX79s+B9SO14EYr6kL+GOrGO9GTE+s7J5C+OSzufMPkr7j/2n9yDIMiRIkCJEQhCEIX2EL7C+wvsRZFi+AyscJ9JjJWkndeJpUs7mksq7Ttb6Ehj/AA+EtXy4/bWk5Se8UORGHIhT5FKm/oaKvKzRlyZQj6lCPqUI+pQiUYFCJQjzNHVpySun0PlfqdpHy1q+LPwLCiUE28VHguOuz7txBeze7ssSEjNYEclh4m9kFsq22yKS4FvvqVp/cTXE35ESBG3XM/Yr7nynqzjBv0JtyfFje0/Em/UlLa39b/slLmzPf1ncb5sv6ly5cTuR3d4+Vxu/B3IX+pDqvvL2VrauwxL3ThPpRbUcyngRyzN7IrMpRx7ilDkinEpRIJdbdqi7mHT3xersR+2vjIasskyN0RwWZ2kbhm9j1b5ao4mEj5sfv0PlI7SPlLVlFW1ZOWPgiNi38x2dT9Cbi4r4ePeVVKoo9fcL3ou5udtXifFK+rOS234sxUclxfAcqcl72ySm5ylZzfoYtCVp4/UazJavmHyV9zfRZH33gZqnL7a8IzV2+/gZkLOMcGZPCRF2uRZBkWRZm8D3bXZPaistxKz3tGONmyOW8/pFAt7jyOycJ9K9m3tW1Sstl3O0XyG8hvNEvAeFh/7pwbXiY2+hEjbBdLsv76uwtfGQlsZap4WxO0doXwGL3i34CwscWUtvq4LVxzJXSrxV+h8tHaR8pG43vVTc3jgiDi2sUbTpYW7n4appSeGz3DHhtsr+xjP/ANatdyJbNJK2139xjZZ6pYbCtyIJ7btj379UL01mlxE7XODGcNXzD5K+58qRhsmbpS+2tt7OFhEetJWjuFfAk7XwsSZNk2VGO7TMnHZZbIRK/EXVcT+kufKY9xwn0qsNiecN/wBCvG3fgSvfCT7u44kd+/UtxFkZHbuhJ1NrC/6k4Kqn1433lWKwwQrXeXd0uw/vq7C+2v8AqJObedPcbSwysTcYp+5x7yytLfgaRT8yK9PzIcPedusiUeaNnmi3vPLEq+zUV/iJ+za3SJXnaykZ+1jfn0PlI7SPlI4HZ1ZwkmTupksL5bi1zMn1pq0V3juaPGVCNC+3b7MW1GVVp/8AY/dwRLLM96GH03GJFGC1PBKyHvx1/MPkr7ny3qWMoSS5FOSa7mZ71Zj2XvzILxLuX1ISbsyM8e4jLkRlyIy8pTl5SErPDIjmdaPeR2cBNvmQfJkWtprV8tnA4S6TGXcnkkaNU5FCt6kNJ9SOk+pGtGPF3K8io2hjH0/l/rq7KOs1na7V+Fyor7Wz9eFy62Xg0VKhVqehOrLuQq/oe35I9v5UOv5SrVj4xNKl5TSn5TS35TS35TS35TSNpQd7W6HykdpHy0SS3vfkVWrbzS3Jd1mV5laTg9zHYmN3NInlgkaRU9DTa+x2TSKiT8CcsCvUNIqX7xjJMm4p52NIqlqvs/f2qiRouawaldW4pkbHzD5KHaWy+8rRW27XaNIf8uLd/Z4S8Gj+IxhWml1fZ3SvubNIp+1pu2xs5+DNOpwdVb6bw7maVCNpWitn3+9E48irHylSPlKkfKTh5SrBf2ml0XjjgaXQztkaVQZpFJPhYr0uRWo3ave2407RtmC60scDSaDgr7L7VsydK+wpOn8ST3jjsuDMcCVtpyS8dUbybwRSbf8A5Ftq3vd/gV6cK0obU2/fqdyfAVpJ2a79b6knj+xoUbRqrDZ93H3SjGNLSMb29xr4Rlx9HQJVm6i66S37j+GVFOnVW0nwtkz+E1FJ7sj+GThOUepfhxx6HuwgktXvbA4ShWjgksU7Zmbn63M9lX1+61YbjVjHYc1w3NEI3i4Lbhgp/TiZezp9GpJWjuJSd5XT8SvKXWtbvJ78SVtnBeBXmVHI+WjdIxMvZyuLG6fjZ5fU0d08SLIsTExMTIsiyLEyLEyLFIi9Uv5jXlROCbhaKnvJRclTSlsZeCOyYWlgO8pPE4YCV4vxRShB1FaWzfJ9240elVqwXVqP0Ix25TU3U333WNluCt4lKEZQhsLwLamPXRg3xZotK5o9N2ybKMMTR4IhZbLTUfuVKzqTSSnOzase0lKO1lgp3WUkUn7edJU5dnAwtHPU+op3XjqnsyW9E3t7d/aX3cCg3pFKNlaS2X3s96Um3461K1/hwZ/5N73vtLPif+S4bV7bSz4lHSOaKWk+hCup/wBVhCEIitnb28eJTj1tnq+CsilD2lrReOCIr+XGyt0qMJYWZokbxXV6zdvA0WOe1bawvxsUI82UI8yhHzFG39xCXm/6Kcrf8v8AohLzL9hVPOv2ISl4yRQ/Mih+ZGj+qNHfoaO/Qpz5opy9CnL0IT9CNo7KSvqVx2ssCuaS/Q0t+hpH2K/qiq+aKr5oqy9DSXfhdL9Ct+ZfsV/zf9FX8yJ/mKj8xpEuaK35kaQ+aNIm/qiN5b2UUU0ZWsL4tbJDKjJlUqFQqFQkTKiJoqImioiSGtaEceiiKIkSJEiIRcuXNouOQxkh9Oxs8kWLCiRiQjyIRIRIxIxIRIRIIpRfTeJ66t5wGSGJCjyLYEnmSurbywkRRYjEik7YWGWMiVjtfiw2umv/ALngcr2N+GI74kbE480TjzQtp9wkvFjHjbAjq9S0rdnFnV8cCw8NWF2Y1JI2lGWRms/E7WuShGO98S149JCwIEWUyBHEjYe4kMZxKSlbiQtbNf8A2tssCE3b3dl2xOJkmMrNQvgTvsSRdx3pGGGJawzMzLGN8+A79Xx+5GHWl2UOEW1uijgZMxjYrynJ5waskK99xFR2WLcRt3DTTzgyXWfDU+tJ+hx1fQhZa3qZiriZjgK5iiKNzE2k7qx70tw8ei9TH0mP8NYakJ/jvpuyvtIzImBO0jSHyZpLx/puVdq+dydksrE9pmCK69f2K69f2NIXr+w213E3H1Q73WNySSNMXlNKiVVJ2wMbERjxMyJcuRbwIsixO5c2tSZtG0bRe3cTmzDiVHyJsmzIqNE7jMlF/wCjXRnaSyT39x7rhf631Wu+J7J/UoRfhI0V80aJM0eflKU+TI2+ltTH0LaomGtar5m52ItvuKM+RSlyKcuRTlyKcuRTlyIS5EHyIS5EJciL5EXyIvkRYtaF0Fmd321cBjGSH0WMfQYx6+Gr5MiJotXyshKVuCuUnfhvKbZBkGQZBkSDIvpZ6/dWbyQ72MDiZey/UWYrdViJxt3En9cCV/UY0RRSgUKfI0OPKxosfoULEGifNXKlP6xf7nsH6Eor1RCD+po8sFmrGj1PLco1Fji3Foxu0dswe1FX7iBAgQZBoiyLEy5cuXLl9X6H6C+xBckUo+UoxwXAVotJ21f0/YgpWhhfHEUPKjZ8qNnymz5UbPlRs+VGz5UbPlRseVGx5TY8pseUUPKRp+UUPKRp+UjT8pGn5SFLykKXlKdLykIxkpW6pwPkSOKKqvhvH1pVeOJVh1lGJazqOV42vjx7jSFG7lZxjfEji8xDEPq3xHTd5rZ2cOrc9m3u8T2arOOzePfvKccUksm8EQjs7OLwT5lKksHfDvskbO3txvHuvkaLSVqmwnbuxFgszCF0n4nt1L4pyts2Su7Ep7NS+E7bna+AsMD5WpNrZsrEpxuN7PgaRH+m5pEFFfcrQuVk7lW1vAtbgYEWrZ3LX3W1e6t28tsbP+Y9BzWP0JDN9NrAWZ2kdqA2NjkSbbySNo2sM3uvwQ5W3+JKRJ3Ju3Ek0ybJvuJMlu/y5Ud0SbdiZIkS+FnYRx/QXD7HY/UaGhoaGhoa2d3eNLC+I0SjbJLiy0pbVpNZXGrEo5FrFixYsWLCR8xfY4H/AOOxYWExMeBKXfibuhLDiOxiIRh9SpOxVkXqKPwmjbHXcm9q+Y+tbrsjtKEr2FXcam1tSlZuN1lE2lTpQ2Y7X3OKPlasjLdrWqinhnl9SlKLtukQrd3XZOtnxKtT62ZUf1ihRfjEo0/U0SH0ZoS8xocvMUKuzmlnzI1I45WKsl/azSV6oqptrdq7S+x2oly+q42N5l9UpZbi5JkmNkmSaGyTJEyRL4WdlfY4nd9j5f6kiRJEkNE8N5b/ADcTtx/Ylg+A0sMDh/jKuXFXMcb/APRYy47i19wsd6MF3lu4pZ5Wd2U48M9/AXxo4HyGbtW7XEiiPRR77yG29UGyLRQbk85Gh5+Boi5I0RckaGr+CME55HylqXiQIFPHdYkod2bKsySmiDLjsyee4luwJXOZSbXHcaTBGxVX9IrNZp680z3Z9ZeO9H+YnFfYv8JVZXaRWn5SdTylSflKk/KTn5SrLylWXlKz8pV/KVvylX8pVXlKi8pUj5ScfKTj5WVKfqRiRjihfCvsdsXZ+x2CmiEUlnclD1HH1Nn1NkcPUcPUlAlAlAlDmShzJwWHErQ28LPw7h05r+p7+JOKd9+K5E4YZ42JwT8THvWJCT8RWvNHA+RIwErrLx1Ijn7uqUU+BHE93VcuZRRvL33HWbWYriMHbIkSJolEd/5iPlLorry/KdaW8act+y0x2lu3EbTWfQ4WPA/9UPe7+4tCC91LDAjZP/N5g+OTElXS6ku13MVms9edOV14M/zE4r7H9JHqHzP0JEsDrEYqW6xJ34GT6WCJ3ZGL7yWBNaot9RX5EWdmP2O0cI/Y+WRdvA7vvqe67I9VcSFO+SsYSeT3EetDPoIiR6scxdS+GBRi++WBTjh2cS1t+r+nV20cD5EtT73q3v0LPDAT2pvCW5Eh9Y3m56971fEYJYyZCy+FklbjqyePQX+4fKidnVib2LIpKe1BbV+LHbq2ZUTjCVo8TJo3G7HoYYbcvqWbUtmC7yOzdYkbwtbZX3MJQZlUSn9Xr302f5idpfY/pRUXuW2e/iZqotXxSsYStkuAhO6na/FMy3eJYSEuaEsXgJYd5kkVEpN4+HcLD0IWUniz4ZG+JV2MFaxpUroxwX2O0dmP2Pl/qOf9v6nFHHVhHZ6ti9+JdqLvGQsJJ7XItqQhC96RG7pw6qJN8fESFaM47X1OJ/Tq7aOB8qWrw18CXUUb/UZLrX6q46u1rd8NXYQk/HgfUzZg1gzv1b9XbPlRN8RkiWB4MoWn8VTvW5iF72RuRvlcW7oe66auaOqkr3V93eK7sSs1vPiMdiEbmjLPuKF5W7uZCyjRkjgjtL7HGIz5n6av+y7d8WxEk4wdxYW6W9C+K8WRI3wso94vE3I4LV2Y/Y7Zwj9jsE7I7vucRW4H/sit/wChEebvM4HHo9olZZNizMLY4iwth4GF5HBau2jgfKkdm5xx1fCx3i8h5kU9Ut2C7x9F4wwYrrgU8N1iP1M94/dXrqeN9XaF/tR1ReDEy6ZjJZme/gNLATnVngmyvt1p59yJoku8tgxapK8fc8CoozfuEI4IaUeCJWhBXJ+9L03FQmPNbC+p2Ucf0JJXksyrErxTUro0ulgaRTNJivsaTTXgV6ZpFLZK9HmVqPMq0ubKlLmTp8ydPAnD6YFaJUTfeThYrQt3a+zH7HbOzH7HY1Yy3FKXoRmnHMjJFWrbvZFkG75lFlFmjyNGkaNIoSUZaqko9xVlLuE+/ApyslZYEGk0s8NXaQtx8uRJRusX3GkpLLI0uPlNJhyK9OVP6k4myNEqNlktpnsvMKn5iMeZDHxRo35kaJdb1tIpvLIpMpM0SpOT3qN0aFW8rNFrL+xlOpGNt8GT2rLE3PEx6kRWxL8H4lyRWt6k/Zy7jTEx4rKTRpLbfcVfQqrkVI9YkholaSeDKKcrW9pE02E03hfB2Kqn/TEgoUr+7+4kRRFEbNdafjqaa2jiUfaKNO6XfxLRUqvW2o+zl4eBoUaNGnCWxUSyfcyiqVeVOMsfdnxXiaKlfaVOcbvZfeUlGNN7Em8HJ8bcB62y5Tk5f0lGtbDj9SGkK7wzPbq2d7jrrhmTrZO2ZKs3KN3stYepVr3nbrvLizSK0aEIKTe/HgVpSVlKL7mO8tlFvfRK6SSv3om0zSnCyv49xWrRlUns9e2Vs8DT6rqwT97KVjTZzvZzgveisrpH8Rn7WHupx998EaVOVSy9otn3Hw8StIrsrsrMrs0xQxXvH8ShK6bv4bj+J0bPwNOoztuTRp9JvgabS4fU0uMfY2vaN+Vj+JQUNtxX8t5o0iLnJpbNuLNLhWipuEtn4XwJXRwM5qUV4mXsv1FlkcCDu2RfvWE/HcKwrWZvX4vZepX2Re894sUzJ6nqWpasxFug9T1RJWMYR91dpmc39bmDUTiLAgRb8cTaa3Ju4nnxNq+/EUn4kGRZBkGQZGROoObs8Ljm13m0bWJocKns1aLlEi1NWNGh7G1nStgYNrBWyQt2HQUetG0lJXVjZpRjLbSpq2PEjThOa684xSbGoujhBpbuBZ1dq+W8slUd5pcenTp9VYPZNHpdZY2VmaPSeyrXcTR4NN8DRqawsU5JVrf+uVmrEq0Ou25Sldu/FkJe2tFYvqYPO3EoOHtKntKl3v7tT3Dw2r2JW6mfElHkKBGkUKfI0aHqaHA0CBoEeZocfMaF6mhPa8TQ5GiSNEqGhVjRaxotcoVl4ojUX0HPkbTm1ZXGssbDzQiLZHEjgQdlqkWYl6El6E16E0Q/lP4ipJMrz5GkT8ppMuRpMvKaS/KaX+U0+39ppzklu2cyq4QjhGNtxVs08Ce11W+fSbLm0bRtG0KdzaHM9obfM9rzHV5jqWJzJskSHfpzZNlRlRkmSZJkiRMmSJEyQ76mM4as9nHvHhq4kibJskSJEiYyRMqIndktUriMzjqkS2lyJNlQle8rkYPDgUqfIjDkU6XIoUihSKMFgUYpNWKMPUox9SkikijEoxRAgn4lCPMpxtxTuUVYjbq4a0/weBTjbUtb1cNeXRpNITWpjJEmSZIkSJEiQyQx9CWPDXm1hrlexJIkhkiJgT+gsiaZEwEl9egrixIGTY7dUi2XjF+94E1RjdpQeG14M2VVhLHZxwvvMoxJW+hV+5MfPA2SODIidkQZh4lmNIlEnEkshoht4/y6S+5o/s4uCalwfAlaUMH+479XXK13gLFPERF21IdiSZWprxZWp8yrT8yJw5omn3DWAssyLFuISFvFi3gTUrO0kZbteVxtQU9hWMZQxT7tUWXFuFnqkiURosbPTwNiCvhfeRs4u0lr3Cn7ZYdxuELF5kMj3bYEbErq2qKZEiRsWx4krK1yq1gVZO7RWZLJn0IxjNZJWyPoK2Gq7UXj4GkQrbTTpqfwFva1GpVnEb94bJE5CciLhsrEqysV5leZpEyvJp/Ui5YF4veY/RCXobL8YotexBzr6O8ILC/eaNP2Uv5spSl7j4GzsOdk7Xw4lrLAW8W8nZMx4szFksRCLX7y1+lFSvmshWl3G7VfVK3BjSjfF8TLd4HHIwubioo7WcZcSW3Kb60tV9XARFLpo4GJx1ZbyCqRT6jHeU5XZkLMiQEOOZbAwvmYtPMkrd6uSv4YarFtTKcJcGyOaFuIrDLVkxpMqJltke83IsiVl9SXoTivEnBkocyVPmJd1i3fchddxQl6GjzNGqcijLkU57XgUpbNuBTnnuRGp9Ys/US2t9zqy7ivJx4GFkYkkjHwEy5Mn6FReUq2Kl0TsThbvuSpepKj6jpepKn6mw/qxwWHFns3/c/2KdHzP9ilB/3FJfSRQb+po78yNEfNFJwe64sdm/QWpdGImJ6mMl4lxkiZVJokZKJhdbzZZGJSu3kUGUWUr/QoyISSIMgyJF6kLUtSuSwLkpWRf2nwiwtiJYkWbQpEpDkSkTfIq+hVK33KxUZNlYqNyKpOX0JzG2hXIIpw5IpqLussDhqQiJEREgQIESJEgQICF0sbTVj5a1UKlv8AiylPkyLFretr8bhYxwd+ihakiKIkEyCI/QgkXEREZ3JWKjKmCV8OJLIx6ora+844nfbWiK/xkV3ECBBECNsRMetjxFjvO0jh+DkkRezwE9kUpYXdsSV9rchOM+Evwu2j5SFdOrHD6kLcDR1sOt7NpYvhch6DipcNm7KKcXk3Gxo9Pymi0vKaLS8po1I0em/A0dc2UPzMpvzCmv7iVXmirV9DSKppc+Rpr8ppv5TTY+VlWNSMfetq/wAxN0NaMdX1EREfUX4e6LH3nYWrgSuOI10HfVfu/CWreztI4fg9k96579yqqb33Jx6zxk0T2uL7/wALtI+Wj50PuIo7Okqs5wnw7z+ZVtu4n8xbW1JPeaJGyysaK9vxKD+hGUFv2sDCmt/6lTFPHxZNPZzFtS3yHbq2w/UrwRJSXcREZ6rlx7lq/wAxOHQet6+JzF4H11YPv121IQvhergi+pjuU7it0Vqf4XE7SOH4VJcSnjxIJuxSyIWl+F20fLiYOMk14lSL+hKGPcWv0NH9pNPLiaN7KWXvEXjkRlfd4lGptyWM8BSxNq++5VknbC0blSq/GJUl5WVvys0mP1NLpml0vMaVS8yK8G7LKS1d/wBympKW5miLzGjzKc0SkvoVrFcrJGkRNIiaTA0mHM0iPMrx5laLJokmNCxY3Ye/E90k11GYdXA4HAZFPiUy61d2vuF/ltUTeZDOK1Z/oO3Q3yRw/CgiCIY2IEfwu2jsROPSdjOLwKMPeb4FGF45Mjs4Ypff8Rau/wC+tDGPlmSqRfevuWfeIiIWrcZFzSKVN8JVEmbdnk1K6K9S/wDyNJqczSJ8zSZGkScRXw6N+4zFtPiQi/A+ourBXZtciUuTJvysrvkzSPRmTyHZd5GVuI1K3+ZDzzLtCWvto4dHJZktmCKuXaMGs0Zxi2j2b+hGlyZTh6lOHqU4WnOzerGXAlHEjsy3dLtI7Eek7IbHfgXa3kZo2harjerAV10/8x1ZydjFwprmZrUiBGy6S3dCXVfwiur4m1GMNnOXEnO+y2uZJ3TS6SbGdnAv3+ImZOJ2GRYt3Q7KPchhqvnj4cB2ufQjfX2zgZpEVlwIa8WRHmsTsPXw1fMWqXWv7vcRxMk7o4HArSh3ZD2lHJ6u3H7nZj9ulTXU3kSCSjj0kb5ivYWqLjdXs+lxf31TithdVd5QUdp4zuSTjfMeBCyWTIkGrOzv0VizdCX21e7LD6mfAaxvbVV91XtxNLSg4J4ZdyRO/W63jq4nE3vXK5lvPid9SEQiU0UYN+Bo0ORokOWrFCEO1lq9RnA7Zw6WWrPVShyKEORCJBFCG0t+rcIXjq3FXYjfCHcRSglg9Xbj9zhH7dKOxPtv4hoW07/+xfY79XDobqgk7q2JvM0Svsq1+l/mJ//EACcQAQEBAQEBAAICAgIDAQEBAAERACExQVFhcZEQgaHhsdHxwfAg/9oACAEBAAE/EH3gu3KTQosDkG4zI+2wQgKiRwoN8TzQlZfRcaJhyAVXsfmAW5w98IvTmNAFuKffABzEDl44/gebyQiLmiZJQ7uqLCl4QY6xHdeLfMIqxC4+ZZrMAQDEfMFDr/MxW+tnHs57FwxUk64dRLcAtRvubIpp1x6GwEQuUERhfUXCiZ6brEYFEhdd4gvznJiIBggGrwHR8A38MIdWEyx4OIvI4f8AeVvnuBtTe/huPw0nGIG+jLoBDVRiMMtGAw18vg+YGPPMLIjmRxDCGI1yCxfVMjGpjqBQ6GmluxceUTnx3to3pgoavuRFfXuelXW4DinEEXn3QfcDOaXhhDgaOI8qSw0gFW4M/a44penP61PpaAyK6qIowbwa4RiqxvlnDhqAr4b3AysDw1K7ejOfwEDhUY8qmFL2+XfluYsemGQlHcfEYsKCNd1Vw+JloDX64F6CYIVQfI5rRlqXchhAPzkZJFq+f05RgdF3NP7dRP6NOx1PMJdUGZzpL+uBMC8mVO+33XsOX64xatC5cqnbiQe5KL+NLjnt2nzB7UeC5CgR4P8AjX8mER4Ce8vb143IBeKwzwzJ+Y1GswY0qLQuNP1FrJ6IYW9Z7HzDLk8Awn3DeoHVe4DVMLIYUb2Prd/sYH57I7I/eOjunhoJ0f5/wEI7H47AxHIBPzrsPhAvCxQCDjWPMAACypgevXuroo+uuKYXAWD4zmeSVxHNkkTqOgZAcCKZFtwXEQ7zuZIKozFtHKW8GGZ8KneKQicTjQu7p3ySQaXJwnzpdgWZwIxGOFRPMBOXMLFvs8PXqMhQv8uE4f34+vvjo/2rlbW/e75h5uM/V2fD+n/GvsH9c/jTSQk09R/1ioXT4Nyv+LMiMEx2nVD7n5jemn58et3BNhDl7RsjeAJcLSPuvhPiZVocVQd8mQgw+mdGbmFBr2flc0sD1MN14OPH0dXUHiJlJ0QAZo9uJh2HR1JoHKuAvll2wkSjsbA4lE0Hx/lNOozNIqW0wC46pdwWR175jY+MbWaZWv3MZZD8uf3UqMsoF0YBNSMDIqEU5RI2i6RRAKDqYSG4yHQ5BGngbY7jwNR5++kNwHPYEDSR44OLEdWZNWM5nGxMdYAy0wsTPWHI2mOEu0qu7cdTCSDqy5HuwPZm1uQgefc+0X9jgxzHnu1maPvEgDHp+Z/ACOfoBDHwngMqYLa5EogIAYGxHBhHjpDrkt9mNXGEfthVUL7G2eX9VgEBq6+IT1xuBE2WouBre3dBNjfMErAywQTekpO6mj7A1yi+R8y/qIjcC76nC4FEd6dHKlkMRSBnNy0I4W1wFelwZwYBEHA4vuhei/LMIEfFuC4Zrky5X7nOQUHrk3tvxaPI4i/o0dVCFmniPonzSVTUREdCXW0HQJg6Q6vmYSKgIulaojla9Q7vumn5OoIepz3IABlBpvXBUf8AWD3PR8wSQAwMLQHT1ywoDoUz+NZZ3eELEX4zRBVWZKYIxxJpVM4FjWKvfy+5LF6MPZR91CFZmCPUDEGANjo3WybpVRb3SHp+sdPc11PeMgbJmY5E5+D/ACzOYOVgB9Qm8vjXvmPHpHA2rfuYh0cUEOsf6WNEThxCfZDB3iLBgJfie6AAlernumo5/kuGvABvFdrXx6BxL8VI40V8mc4Oa0sJ+Az/ABLGr2gFrp5J81Mf63WGy8F+YAtLQ/MDaOMElJJhKvqGYrNS/wA2g52W4xQ9cERNQJSYhYXmBZvYZVeeRyBiNrmPcsMbnxtpZWfDERTtMJA4rBQBn3IJbkSXhk3ZwOXLR7TdDqTmhf1jDu0t9tejXxE2rZOr8zJYVcMexx6zCi6fQy4iRMQbMBEvEyXKlnFuSDV1nxxtfEAcf2HRADA4rMQpHTER/GFPoIxwEh64nigXNCQEiYooqJGXFfeMdEVCrjyTZkerm6/bnko74yNGGFoEeiGLgVD9NkhIIF7gcsR8aa0457RPhyRow8MOfKH3EW8BYaLwNHmLDP8AgcLcQAEIfMHw/QphQBCMTmLPtwDOiJYESvXt0EHJbh6o+79H7SOjEzToejTCVflnIfTD3JkleMP27XzBPVIXA9B7WRIX4My5XpwIT3UzBjxx8sJocNfwE8DbIXGFzd9cwHwcCecRripgnxg6wqUeOaUus3gIyLkM/T+WcidHGW/TJO3RSjEeLka5M1/NNxCUOaNmVM7JQNVyRQCh33HWLr3E7Elyrj4g6OWYx2eRMx/LvyzkZBD41MacjAlAZ8WUoQbiYJIGMBf8mGKJ3BDnTuaTDRAiduBPb7Gj9u3zzgUEYDzWd6MXE8YutHog4F8lPNXgYAeOPF6Bc0+G9HLeFGwK7NLxL7QjJi8OObA5IGK9cDH6nOGae0rAdfVN1owEuQRQFV1x0PpMcWr8mTtZSYk1yXdoT8Ewsw5dDc3X84Vo2OgagjQMAgOA9uAcD4d2ZKJ6eivMAGLIh/zMGuZB+ZUgkEaCY1IAeYQPB1MHvdPD3QmVEKYKQ+UyUfCWcgvlXCekPIaBrAMGueizgwM5kgUxwuDXDAAqnX8rZiyrPIYhnTFhZwVe8MASx+QxAPA4zngdCY1enomnPfFxQ+RUzkd6+DBen65pZ3ER9tsqe8IZmw+vyrDoZRcnpuMsP7sFGbCIlTom+u3fE11fn+Y48v1o0jT46yDNU5j1WJ65vcH3+MlTwRBcDl/A/wCIYH0H84+ocO10OIjlfdj6HvL+Je4H3DsUIOfOtLxYXxIemDoW9RwFF1gNFkm6gJ9oZBRhMgPFyaBWSAdF+TCGfUMPiYSE1+zHis2A3rsPrh4schgyGv1w6k65GEo8cd3EyW1MrBaRjJSKyIbzYmimAxsJaMXIYVamGB/djQKW0fNY0iuHTMFdRUTfzHNUkZ7cfS4qQkjDhOkxB5T5zAOOEiB0welfTwB0FCbtohlGdN0p6c2OQPzIC4Azg8zv+e/gmvQ8Brgw1qkfw7qk6E1SzxwDvL/G5Hj+EzcwcEM8I/OfcPV/oxKNMPXfCzrueL8cMh1/o06nbByZHZs7zRS6fPWPaP1203ygORGR3zMvDV6GH1YlzpD66Sd4vCyGqKjh3oC460/NMd57tA5jxdz11G81MNfzd6HhVoB0hDJNrxFhrvuD+7cVD9FyjoXoi5CQ3F4EMc5XCWQSGIwqxjDkx9HzC4SPS34z/nDt/rFx9UcgH+pnu+5HCLm9xEqZVBTOVd0Awea2ivxHNLLJxyfDiRujQcTq7FCb/GSgOeqmC6un0aHPfvTUQipfNSQzyTNhmeMwDf5RMKywdhghJyG4SEwPkQ+YU0Q+OATpiWncmr6nCpNdOu4iDjAaZ6MyQ2BXZ3N2r9atRr3mJgfxhKqmNTcYg0ZLDx3eM8sxwT+jX7Z/ZvoNPsyWEWNHX5HxikPrUc2d6vTf4y1d1yP7cgO6jPTFAiNQy5aIp5v4VYHJXSrzIPjIGBXdINByAwrwt9yDXp4zEOjbnpLkQ5wjiYKluAqU7gHzQlsHQCq4loBqdtnI4EWaPxyYRKTBwheNp+M3yZi42LxgH3Aoz8ZE0RfjfFeeYa/Hg+GT57tRbdPfcFoGjb55/Lt6zWvm/wAWf5t05le7m/LJqedstmXXpiEEXwuW/Tw/NWh7bMUWD9mFE8A5hkxRlDXbb0csHQO8zOz+Uy46PSdcQwGqsmCz010H+tFJ2I0wkBb8mMKPhE1xBvtmNUt+hmrY/wBZ9R5XjH+sqUDx1r1EGMYWMzw/InFKtE/cClClcdUUe5RGnhMBg64bAUciILiWVyMtyi1NMSseOvUpw70D7iVnVcInmXNRMCPHdI6HJTRPy6fUXP4omaQEFyJZw5kag0tzl2QI4fSBDAoRYwzuMPxzzL3ptivM7r+7X8Ue+5arsQod8AuG832/JkwXpl3EM5oYz/vMt1i9ziYRwx/evJ/bqFny7ngX86IoSB5xsQp1XFjoV18xnIhzHJAcBLjETppvSJXAGu5e40+uHrr9TPmiOe618xwmDaV9zSlTI/GYD8zIEHu7EOC6YD9/qwmw9AymOEuX4XCCXyTASVQ6GBCEaI5ECguvRIuMUKKgujrk0fr/AGmJAF4OSQkYVka5IptMNgedfDTvmKZY7q0MnkKSTVpHzTBsaYEA53m0N9xoNfyOZUgaXBAxOGRAymDz3IPWB/FiSM7yeajbDAY+k16NaN7i50V4f8ORUAf5wKpV97lsGfi4CrGY4XZlfWOpQdDTdB6SZCX/AEyoAX+tXAP9ZB/0ZKw9fujDMoo4Omspk84MgWvmVswUu7zVoXzPeC/SOQCD6rq1tIumvIh9dIQ8+Lk5wlBw3LM8v92S4IH0cFYBi1M4wDB5uvHM+Zp0OuIMgIBiwOL5lQ/6mZOzJOt3hFzIcBwDEIlODl8DCmCi3nctnNQwjOa/jdOaEDT7dctepk+nSu9TJA4t7gVTZANwtF+Mjfr7khaZSxyQXnPcPDFBprfM9Z9JdZ5lQc+emvQDcb8FblKh8/Mf6z8rAKKHXBHDnRiMhqXpO4N4lnxc8AKdMFqL/GQEKvK5i4tT4aGaOKORwdsp8MhaZ6aCi4sbmWGcUGVTJoDTWFkpnIGpeRH4y+FPp3H5tLPFg4sIn81cpwd9KJphIDCO8SV8wD0eZ7og9rmWi/e7szPAOr+cs0CDLMabj8lMu1O9xIPUfxhyo+YaJDhlAQ0O/vu5gZoctREIMWPaculKQ+tJGAG6bxNkgEuI0cAfFikC5VQDyjug9jvcX5AIH3MCxZDTayrI6LZfPKmckPCYECz+DJGjgEyiLgNbZ9mCgWvAMURFfxNGhIL5nf0Tfxg5sY6OZbJgWIWeAzOBD5ciApjmDWV+rmoS1chGTy4oSroBFaaALJcrgIZDLNeTLYr/ABhgCfLM/s3akvMbKqXPUBGOAUtPrhfX2C6OhPNwHyOPFfmWKZJTiFXR5QKXH2VeHotpAOwiUNm0EIsuBUAPjiEATGv1eKBQtW5kTWQyEtFYjmoMfsxpHvymIgBeUM0FziuEAA4MW1PFcMsiVmSIpwTKqvHxw/w9eExCEYBkIBeNF4QRVx3rVDOdrK50IZMkSFWnCwCnqb6jWpjq5FUz8di7k6gnY4GKKRwLl9arkYTFReB81MjXaYmAD8ppQfyfBnqeEchkA/JgEYm6TAH4uPdgX7qmwMHLIRZR3CwXrhNaMGC+3wOg0xRy/VCDQvyt6yQWuocqb7FAuA8yGyvrN3MB6GXpg+DEp0Co4+kIfmHEF+XIwJe+5Ci+Xp1cBzTIquIV/RzcweYF7wuKrDscAT56GHdZOJXfvYY5okDuikX7HzfgwTBYZfXANh+XSUXpDGF+DHmi8ywCEbcGuYIkJgMvr1ckvMHJMcdEyEd2LvTWeaCAL5jGZSZNAAfdADTgGlRTNSnw7jniZoCp0z1SHVc+DCDH+f8AE7j5g6Jwg+Hq4DmCJSfbMGLnjKu5fDS2G/U1yd1WGhU71Nv3XY0CLz+czQvUXCDRPwcWAAew0wUsQz0M54yZNQ4Jupa0uchTUvmdng8/Oj87WXS9iJpOhBXTqSYhQmHeZkQQeUyTAEi5cpCIYxy8yZBQAWYWHMA0w4Ku4OIIjR0Y8y3oQIYCERD7mYx8TIykZmEAeLgiLgHSSErHGahPU0hxejiLQXmDQMR7kxgSxicdv102Ve3AF0HoZi1AI+7uRaeJZYjXOYDjiLeLls4GUKSesIoqVJuzxuE/YCBm+MH6znXrqtS9BMiA9grl0KDOEyge6rgyklUMqGle4iRjffhB+5vft9LXbThkTDBFDGrBHAz1B6BTWrfce94aKTSJWPyd+8736xHqmXfWoe9T7/xH7O/fwH3lm3j6rLDxvx1fqzW6LcEesdPteZB2txldBiOviDJux4aFY6dwHw6U9Nz+cmoOYL4G/ewmdOq44Scmb8QneOWE6fRyJFk6OhaXP3qdWd8Ml+atB/C4XEPUNqqov3Qe/wC+4cSHe5WewOAJg/hk6mBR0opmYIFm5YAPDuViAo97rElSB1ANcMBvOzepsj3kdCHncFVo5GEQ2YqEvRpjJWSDo+Qep8zxQHCmVUVX5Mw49e8wCgrxTBmCXFRj9TBSILi695rMr7R/G8VCnTHfN+m6qSSwh+4GtHcfyaX3WwjkaP8ACf5NPemn84D9xgfUZ/Pg/p/i04HPcicoZRjjjKaReqObhS9hnw6/jb8+O1ebB+mysyC91CebhPNxxmr8H+M0PnkfPMQwObE82/bf4P7sOOpsn9sH3ycfOMHForHmWfOvmEScKsxOlv8ABp/x7x9sjyjAnpwZwXmx9sl/MH5P8RT6no+oaPue+k8d3F/61q54OabmjMYn6x0HjDkXX0vmmeUYZuETuJGLKMusDtMwP3Sb2HXCmvqw4UTwYkoIcuMGFXB6kXEKflMsGL5gcrx4T+DIhAHTiAEH0zHCf94NBRykFL8LmULB+/Mgq18TNYIWn3IPAmIeAFZrLghmOZUnudlbhw1amuJJ/Rkh7EOWXDgwMfNiwRPENZE5YvbLi6PvDM6/3we2348nk2mbkW7j0/58D9/sz8ufH2sZXT7gqKTvuFQ+DPrPy16EBaP0IBU4j672JhN5mkU6NMOwKhe5j4DYsEAEO6SZ8V1JAsWS9RrtFXdhnQuGoJ5mp0BHATAV+DJ1juY6M/jAnh/rCXnCvInuSAuMWzXxjD6aeuQ+zNJQO7C5CGpq7u7+c38uKjOs80Ewk3KXpl+fFpTnihPEwW4XMlKfR/8A4fNP8QREEeI6U/sfDCbP1r/xNQTy1w8ppZcra5lD8JwZBD+8kCj9OGaFMm4JU5MyQocwBehpAweu6lVHxcnVH8uCe6F50YS8ceuJI29G+fXD9WPmB6E4mtw6iSzkGeZuNQmuMNFOEdjlcI5d0qAW8yj70iHuDYa4ZCBhlrQDWfcVcrS8OlZDfNONfrk8oKhgBbq1EcfgwCzc81MCdcEA8fMUgGHJCkBgZVYnXvqmcJNAwBIY+YHMqFcT5T9ZPzxIEWoGNbELDA8JwDWEAIAJJkxBPh+cVOaQM8eUgcDJH1Bq+NbJm1NTjFicDzIsrod2ejIlVj9XnjqwV7/vRIOGSuGh/nJ/7muSgrf8PXBcH+KZPKUfnGn/AM7j12AZkiDYGDLN25ii+aHz8a7venOOMf4u+7zsRn6zm/jnYpUYc3k5HsllCjHXD8WTjk4IOFBPfxuoNfQL9u6sFDiuA4AHGFFI0mcaUHSoCc5lgFX7ccCIdcAJR7mX2OZuCYVME045qtDrlG1ykrg4inNUQ9yaSzSY/CA4JD8RNnUBjCRTn44ckew8c+CNBia1dnuIVHenI0QgBl5ToE+4wPjgVTF+mbqDgwtFynDMes1XPTmFcbyymJJq9v8ALhhCkphzb24wue8Ld3K/+v8AwdGpP6OIQ1FamL0T7zUifxq9XZSmw8gT4GuO2eXR5ORb3Iq3Qs9/34Xx/wB+rhf7Mrtf+XHjPzlHfMKfvyB7dDC5XuR+usChxjrF1ojBq8ZmEuqyhmfCAiZJ+z1fmUBwDGJUjvoyDDspmENIAcgIVBxNZBOGICAL++BxIB17ikUsB0f4THvv3n4mKR44Jl5rMuCK84Yw/wB7NePifOetP9b8+D6zUBWB6zLQKeoYcJE4pqJwfNEE3IiiOVvf9YYV8mDw+hhL3hDGYcF/rRIs8KBcQmr9yr1YQXEU4Fad2XfyJecKRhRVThkwyoZdEPtxjYZu4c4UEH8HH88iYNXBQc+ICFWT7WC9FwP4csZEqckAhkGg4tKdx9yDX+7qKkp17oVFalyRFiRHGtbmYVn3871nzhu+TA4qNDStQGgeBMHZCXfBE/fDYhIjoJJyeg4HaNCUsemRDDpfRufl36GjSJcp8MBFvTHm+N2OG/fLLzgoESeJhe71dxCIuYn7qQccwookvx0ObmpIvxTQfub6uRSP+9w+y7bcdxwCxwstW+3UeLP4HNBVnkPIOJlqFmgWvQ5YHis/wt7+HMud1I044dTw5lC/QTBklU5h6OFTbyVZMDU41JZSDF1F7mAHVjgIYfD+nB9f53b51OU33UHImX81lY4syWrHER/WtzfWauRxYa8phFRdYFA5TLlAVtAQZ3BjuX7guwFHfxDQwS8sD95vusH1ogcCXQM/ZPOHoF4U0tDH3A5hj4YfPYPVYMGmwV0AE3OViDBJAYAB5K3O16iPnCVKR7kOjGKPYoeOjcEgfMfVkSF/Lvo/ehpjjkQOr8MBai8DK0ywuiSJiHRHcGI4EuU78vJgf/FMMhuTQhzpmezhkafR1AQWJlP2XLfmCd5/hObocwJD+zLsRC3IuYbnUhPxjqaoLJMOqCiLhrXjNINtNCMl00nH2Mh4Yg5+GQzqoYQkglwBI4zSKgicq351H9pbG8IUH5j/AAdKL98ySOi2RB6vpk5qVSaVAJEmHHAngriXWTT7hQrZ7kvaT4OAUg9MVs9sGOPevkwU6KYiiqw1TOhMRRHMxBY7jtNy+GasdFaIyAHV8b8jlBV6+GoA2c1h24INUG65K5+PpTmRAxklDn094qcFfnDdVIprviPy8RgICvKf+a9w6KmB/OIkeUmIh5LcvEQpmgZxDAaqGHGKr0NYyOCMLCfNiTJofWFyalwCGC4FTlI/cPooBmgzV7pkO0AGYv33TUPmJcTQANK7dhwLVw64GG2nzWZ6YGhE6XIYSvuC7eIMUa9946U7wbj8AdeewNU0Z8aHUxCAgOGMHK7mA8D53GzOssv9rX/dHABRCemNNq+hv7uWIjEZLyMbtIK3DU/mulT3IRqo3/AcbhiDLeMghqANb8UcdsVHDPAwUvzGqv1cxeEfGnPBv6z+njcSSi6sSSLcZfqbzV6uIkUZhCIe8xbehwQQgyiI4uAWVCZLwXTGoNxu1qyD85U5U+PMVSQhNB+FOBAoygxRM11xiYEEZUtMh32ZB0MlhRcAh7XMi090H9LED+MuV4RNCmhxzIjpdlqxmJ+ct8/QxaIFVmaqmiZTkVkcrCAQemSS7dAE8F4uRQYLz5xadayQudCw38nHJNVwSpIjORdg4BFfsxAUUcHsICgahz6OHk7xz69cO+Y9z2wsMzzkC9xD2SaM1kLji9bI23RhQz39Gl0oyMyEA1wuPRowfyBiql3Rwj2xPmjOzoxxrcudnXARXmWm5/8ANlyq8EyEhGGY/Nk938QzuhOp7uusoVMU4j9mJiKPHHEawoYiRYvE0eg26m3JAJxNCsPbiaLVHlBm4kORDONpUMLOAw5P8AV/BzbneYI8qMKuFhjdMKoOO3EwA1BO1wQXT+HDZmn5dSTGBsBaE7g5H5Zl7ZiNCOdHgHU4Tts0dSHWFJe4Q/nJnNkcYj3eGpR45aKp3uV2DmWHrp/Zl3NC/k5gF5gFD8g10mBANfnCfXMMIpbdxgSOuN+aYKf9jpZu+zAhzQ9SAsLhYirNRbJXmgMvZgmVD9aKsCLg9BzXH6NllAf9GK0qdXRvstGEDO2jkGXqkxg49zNoidPXRYNbpx64T52lwhmjSXC5FtepLORWTGbMCtUfNPAbh+di9J+wYKuhQwh5/MbP1gXASFBgiCBahvigLfMxKKmai9/05CI6Hv8AiIIzmVg5oXbIe9ylTIKMTEJGe8oXgvvO5A0ACDraA57gGQXy5Asj7PmsixYt3Pcli45QH5WISrgR0Ix5RyLiEqPWbK2nWL4GVfcD8eX5aD1Eph/wP9WIonz3ET+amEr5w48QcDycl4ciydcImpF+9TCwt6mcRFDCyT1cHyMF1O4V+XPsZT2o+GGlBtug38YFCXiCxCqa583+nPe/15gDkAfDHtATGPN7tAr0ApqiQ+GckrgjHj8mSqJMO9GX84+EJjAXJzyso9Da/P6Jib7wxl/14ZL9HDb537r0Qx5oT8Oj5LAsgL3OwDpyQRbzQzIDEaPzhBJBg4S6vCb1UfwS+uP5Pm89/J/tfc+uNXE2KX8Sctot5sk1gIcrL+5l/Vf3pdVT64pv4dYQz1dhglDLUaVw/kPcZx02XIi2DdZvxfxgDUFGUS9ynX95ml0AyjDh64NXIHU54Z4a9rjJxn74sDrlP57zjuWRYCuhceOB2r48IZFLkDQc3EBzoWPhZD5Vg/43K2cHzV7lgZC70UH25bRf43+A6dzWAZM+OdplacliHiQuD2Kpn62vaBgegZFkfzMB8f1kSB/rfpY3JwKTjzdHSlx7RdwVDgE56avt4Klaiqg/Mz9F/WAlf6ZBUpg1hyK/OBxX4yf1DuSGQlwG0dDj8S9yBsGRIOfja1l77oO7oP8AUfcNGxxl/wDJjmceDDB2g1+us9HH4HIFmAOnuCMvNBKqA+4WsJM+j6d0hfHNys+KGON0FwEO+TdLH5m2z3z4cdFOufjCVg4GAfw6fg6D46rqARf2wgICOzT94pUYfX/EHHLDj47pnrHjWf8AoMxRDQ0IQ/1ykBCqHmV1Zt3UvIAo5p8rMLqh5nP4ta+a197mEC6PzBHr01Z8lhsvyyuAAf15OT+nGfHyZs+WPx7TWZfhu/Hb8KxHe98dvQ/FokVb+xq4z+2zlIxrNVbQwWJ4sugAFwoiDAGNtgsr0ePQ1M7hPBku+6NAVW/zjti0CvbM8SlLiiR37MP4J+Uw0Wv7NAomfYZa39fNQzdr6jPM2ir8m81ia9deMUdlJihJwWCisEXQuYI1wrzH4N5ZfRgwkvV0IKupk+wZqyYDs8ZI0gZCucKHIFhPDyH4j+HXSGPl1uTc+v8ACbPdL/G7VX+NGpQOMI5lG7NAhehoKQv51DP3iQ5ghLvxvZNdtw1VFU9w3v8AfpPLH7yvl/27kiPyjj34+e5XhunCn86pTw8NvFPzdPStsRSfvS3A7Bt/xpNJV53SYgzwRxBVEaBq+Chjddx/FqPE0AAG8Lcr8N1hIOj6BkfpkyufyP8Agh4v+JHq42366/t3Ly57etfd0So/MU+aKPMmZX8YkJZl9ohMGQCeuDo9cQc8ve26i6xBxvOIz/t4saXa7QPzR0+nmOMYh3EFz3VRjnKMo0DlBgwDq/w4YgL9bueE/I5n1Jgeoj8kz0B/iZRKU6HjcJ/Admfzr679R1dUw8ZmlK9bhRamqBrrXU6jiuUNFOZV7XEfQTSMWGt7cL5XVfu7p01xQ+98x4nse4PkLgPUMIfOn3N+Te385KcfDKzyCYn+LVnVlyvg5Xl1fjrEuHUDItWkXtXB1pnSpb/imHNbMAfuP81GXuH+4yi/63TzrihkoAwA9cGHdXkjHARRMDreOAwB4DBfcT8GRD3PCuDI6cZjKjxzEL+M38mtz6ri/wAwEwB8bDDmCdMY9GAYlVRfJ7i8XC5irEMoX+jdjEuQAFX3XFynDAR05MyTFHozuBY/DIQiJk26P0DzAAOuqWOWpsMIxAI4FUrD8yQ8zYAvjR80mghHSIerL6f46PuVAwhuB+DCHJ7qYPgG6rSYniO4hB8jnKsVyU9/k0hh2AVwxgOHW8rjcCS6r66qvcOE0DDJbjhlE/WIAh7XLh0Mmmhc4WRPd3VdJ2AmL8cr4ugRU+5LJO+bgNQDEg++ZueP33KVO8Zp3nDJ1XwzFhdHH+BrmE/GDIoZMHFuWGAb0wtkdF+OEDzU8TTiBXRgtMl9XCDzN0CGe+NZfDJZyLp6O56TITetc+nTs1b/ADLja6QCaCYVCycmsVgGKeOJjwAqbvlfWVdotHAJEaQ3AJH9bzhifjDgH7NWQw8p5xlNWddYhB8XKB0VzZI/zv1jmOkrWX1US/5Yf5gj5myA66GO8TEWG/paImCMXQO3PYF64E8dCFBypFUz0ARSYqircIh9mDD/AIpOEmCgWuKPwfdHL7AMyVVPF0Xkt5gpMFY6fB1nAe/clYmUGBtJE6ndMvJawxBkGGFQK5SVEzWtVyUajMcg3R547pMDil1tEf5cpW3EIOZjlcLIhuAdwOuKYRBuA/OSAnY3MVHerhqKpn6rLfVgMolwD0ZkxaGHcQY+xvvi/wAcbnjZ38/rLXh3nm70P8MojBwNKZelNYVx+UN+/N4OVqMeCTJ8zLrtRzgVfC5qc9HCQKTjsEBfE1xBVatQeoeNUBG/k1llHt1FKLiot/RhJlJMaSLeb1jHnHRef2bhpWfnOVRzA8IzJB5Sd16xAcoRn7oXQqGe3Lz201j1mJ1UcDo4hIHJhrN/i5jHPwg1aP8Arr8y+5XvjKz2/wATMj/h/qnQIE0uougro06HWXkcJHipDMFcVMuUisc9Iqj3B+XP0pTftYV6sjwl/K6/mw+ax8Vl+1383A/F0911/Lvwrv2uje3I4JfyP+IRncNPXfmLkAr4N2+xR3Q4tctcUx664PrSPdGA6NOl8wn46vw6vw6pbr/xVoam/ZoCppHmIrMij0XccDnDHGkmMnBGFF5nYmCsDoGQNoAHR3j9cKcWpBF4dy5a/wB41GJz3BfF/h3pg/dzZB4/efUvw7vNL8OryP8ALDhUvjgHvd8b4zjwNFW79uR8d6YKP2TIcTYi8ZyVo3N7tU+5q+tVxAFBtDBGzjrFHVxdR1zty549Pxgr449ti/DDeN/rEUOmi9FPqaqcbnpoZR+/MDsMBvAtlO4HvTZjhAUhHAYMn5w0TAxLQiSmPu0pjgSgkzb+MYUTc9ZxS+Huv/GEX/8AOkb1o8f+XOq7RV2mj/w4XCkRySDIsmYGR9/8DHRuSJUx+46dE0nWrWND4mCAqI0yIBpBgUCoeGe383XBjFJLJoLwcH4Gg8M73JbkhS44zusvv+Jpjz13fy/4f5cHXrk56d0CZBabx6Iwmt+NFZ7z+J24Ej4Ym1/uuM5A+HrCGK8jgoJHrlnkdXEtIvBmajt+dvxt7HDFZnXVEAYLr9j/ABdO818hnx381X6Z8T9q44Fj+XCnzyOVDfguR5n4cWxIGbKVn0YzIfTAUlL5p1gq/csSfwul5/V0vT++D8P76RIf4ceiP+XLe/26XP8Al0eB/G4D/wBuDECX95UD+nR/6vflmD83fz/x0f8Adan1/eC8Z/vRnTM7X4CYLIDBhQKbJipDTOQR/GVAijLhZlPdXIA/vTjEv8Yzie+03xl/BnrGHuXGDd+T/wAuf3/6dzUY/nAtNeA46cP4cAHlNr0P95V4W/i7l8dTj7piuiqBJfOE+Lxeb8tXgGRdyB+6IDJEYFYHcpxmvXGTdPU0fcOd0hTmQfU0J7gJgzz+9cuP/wDHZkjx375DPYeaMV+TXj85xyaIdcLoij8eTYXGO5xZC4BA+MMVikQDzfgnKGUjeNySkANJpjBhRuJ87X5jlkGKy0yfziMggV8ydC9+R3X0YKX6sjEukVfHDHB9B81IEZDpjgOMyI3+LAtIrheq37Or8ter8x0UsHrh7YHuYFQ8za0Y6DjkuHjjfjflpLq+g97+YPrxwF7tAC5hZmXpgQvWaRH7bGRH3/jvaCgBTCI1yixcMeiH3ceGS+i4WPzgw0Y/g0cAhwMmvK2D8MgwcZEEgVTzCmMNWZor574u2nVz00CqIyI5DIldSKUj8+4lYZ5zoYUUl3K/G00u6/kcWM1P8GVP8HmmPXPONGWfPcBodx7i6b9OD3OPP8vuhNA5wHBUoFGvIAdXF/A+mJW06s06g/TmKsoV3VAgxcjlV/PzlBTYTQIW+3NXyVW6IVIueV2NkCgOKPcGNfcE6pn6vmeEqPY4Plc8MupQA/MJcQMVbPufy1aCCcIObqc2sV+eFLinVabeDo4cjJQvLzKeufVu6H3+/dfjNLlTj/boGip9ui7/AG4P7/fPAHt/OfzfzuEPf7aARb+bkH4aM/3v8Ca7y0gqgRLhQi+hxJYX8aD4wUdC/WnS9w0We1RHH6giODDFDbCIKdJho8FdK/k/Lo+ww/OHwcC8/wB3+HPgbK+9jrMNHZ63V4Q6bg81whxlufdTMeL8Vwb0wE6l0XRK4OOBj01H0wrxyXRDmT6aOmmn7waP+JgmcmQKumxvLmbmeFUqw87kk48nLDvNk4TWn+3bxuHswMIxfTR6jtO7qUNwvPfm6QXpnzmTwGWn+TKPK6vSEfxtoJD5c1apTHrJincFDvWtSdEMrq6PfuaAUwugJHcC9WXuEl9hT3HczWcxwy0H/jVWnCHQv8Y+PWCT3ikDwIM3I9Z3Qihm/PoGEMHJMIFU0FeTh3YLxg4S0AoYyZjwAR4MN1oPEvfG9+ibDuwzyYHByff+/EPv/iP8v+NrvgffA+u59xp9/wCun12H1xdK/wBuH0HHG5K9dApGymFjDWw0IU5l1qnuJfHFBZwHCFWhkAdPW+YoBaGLpw1HjwfDRJD5OFO5JN/uwnMln2MfLSROEFHi7afdCKL+GlBON33FlBxTFzn+92FCWuSbh7x3eefnAq17xyCVzsonXDAhdWDQqfZiC37L5ntaPckcTn9QMjlNgvRYeAxcUVti9R1TwxxW7Q5YLrGK+5vq83zIx+QriaLMQUV4khL9mGiaugHrI7K61GPVZj6lYeKTrlUMXXSlM4fWeSIi0vPuZKRU8awCaXZOCYUftyURv4cKjxPi6xQW8lkHL6uG2XpDDIh+mQDUKOkSQ0iRT6uTpDhBcENAthlnHx5jgFP5cFLyhjsaekz1cQJZPu6A1+M3qPDB8npVmYO21snmJ64PdIDKQg4c1Xwxl8FWT15HF3NG6oxWoIj0x6cnceN+/wAPFjI9R1guki6vfd/zMGR9DCLfjMieAMR7K65S9hPTKlABpY8CpigkaaHFOBccJfDFGEomKDqANMLSDgB6uv0jAfddMGgm9D/cgicSuFog9F0nhkNX+vvT+MxQEZqaA+5UOVcMqAfAHOLU7ljUVccKaXQZKWjJAaDc0QME1lSubt0pr/OfclypmlAgpjcPz5YasRuVKNHRAtMLjLUMMRqhxcKWecyEoqgxTHrzxL6tewgkYYpjs49UwUwBg+Z7oFLLSkGKfceqZRhyOTpTAPU4T3Z1MKhNXLjgGRi4aN0lJqhhPTdwhhBcE/Iye5HVhWuHgdOZtNdAB94QA0PTKCZLrmAbfYxo8ePKqdNTU0+3AGqJ0xg+z15HFcUejfJhCY6BE7dVmKU1USY5tJFncLTx7HPkcfA78u24E8hhTR5AIMhaAEokerq3pEZvKFGsyOLVwrziaOjASjLjgAkw/s1Jxy8JkjQsZEUiOSs4Mc9hK1Z4tJmknWuiR4vpkkVoLcUIUWQyCKmOboF7TGVXvmakPSYAFGYuKgCawL1EH3FDfmYtUQwQ18OR8MqyZT+PkpD1RiQrT1wjxUvaao1ZCuvoSHPmnBmcQxI6I6SYNNmToQ0BHTXSYCjwv5xuPspuirL9uk071x+sKHOjoPhi6wL3Im4gfeAIYsG4hzB4Gds6vrDOyr6Lkwikbn9UwphFgiD7gj/bEP0MTBisn5cSRzo/MCkAKrgngOj7kpPwF+4BJ5mkRXcUApqIPBoGTCryphaBWTNWSBfuKVpMoXwjR1+BMiPwcavLczqKkmhNUHcDAIg8CgmFSiDKYK5JDw50/X3CgGI0cuSBxtFrlVc/6qP2zZSpDRB5PzgOgmKg2LZml4fWRnqHe5s049GblzBIdfiw1LKgdjHsV2O/jMJ+3CKhuHNAd0cD13UTI3zAVKhBdYEyD0q8dclITwXIUCX1uDYn84E/tTKtT8MwZZI0ZkwvgyYyRoGDxaZwHePmi/pFMBht85uCweGmjIHuENpYZiwUdvGhvvrkiWQ53HQDqc8uSwA4xAAZX5mDM/PSHzcblOmTH8kwymPocMs40zEJDwyjKIOQLFByr67izAfjkdDX8NF8dbA8ejzNs1oMY5Bv3EdUk6gRZBi69wC/GuVtRXkHR6uh/GxTohklBKXB+DEBgEKxJHfr0+8SvoK2BJpfdpelBz74HwwBRNke9dH8mw8wT0y0WR5paBH7oqtn6tQuC80g3obj11GmRPzmvYLVxAJ48x5e7FkBwXcfUVc+ObclNxqkkHjFgX845MXBRf4uR5tIQ/ryvT/bqfwP3qxx/wBYVr/A1xbT5cfV/OynTaXT+3B2f36nn9+Q6L/GuGTC4D3YBkPv/OBSTI1953LnuENa41EQ+6HYuFPP9bhurn7d3szQPn+nTP1dDDMfQ/406TIeI/40eZuPQzAeZfM2Oa780Z5T3+3JedUyZ44/sBk1Vfg53hL+NHvQ/O4TSyeFyH0XKxcSXa9MC3h/GSi96ph1VV9ZgaPv8aT8HvMCAevQXkzHaySc1Z8ib1n4YAeKhZ+VMd3nzR02/DSkAxemLP8Ax63zhfhjUOpBDCOhCcMc0XEyDNRM7lFIzGDezgBUoLw/wDCb8V4Mwt9ZmyPrzYD6N/m4M5e55usx0YhvpG2hd2q/IshTkCNCyI89AkNoPXCqlWOQUBL0QhmBmRe6mJHLyqLce1CNoh0MNDLSOKtRvUdXaC4eQhcOVCtn3B//AET3FNegKvOKEyn4Y4mGB1c0Arkez/W+b/Vr/X+TAnP+G/IN0fz/AINTr/TjxP6NH9hoYr1CExetoEwauQIBX8OAe/2YRREwxQVyIjHrDPn84K1ct+4T/BMUeYHyZKZGoVjorQwcfdC1NA8M88TcfmSkmn6/wi/4ff8AWF3BkzZv1MQxcBcJEa/h3nD/AHheP9mUt/uz0FR/Og9OBzRKWpfcWgj9DnlGPnc1VP13ff1xxyyNOeQRideQOHqlDlvP7M2hr5/7aPzfqm67sDwzqHjGHh2NEQtMmzTN9C+o8sxOleme/wDUvmHb3gvXFw72fecgQeDiVRcLwE51C5gd/lMvKh8NbNXxNLqjrLXLqiyDqqhPRWB1WrR1xOlHuixVlXbFSsr6wAm6TAKEePcUCcvcBQc/Kv1wK4Ey4PVMAnTvmBsXAeA+i4pxCko5nGGxdMs85oPRn8G4/ALueJHBWB83fJzXxhxQbExjEzBp9x5AMdxH9bg1X9mBDRBV8IDi0BiIi00fjiKxYCcdw8mH5DK1un9NPtMl8Yi91/mrxyDyf4E3qb9m+E/xOazP4Jq+prjJMiFDu+f8mXiJeMQ+7ZxIBw9cTYG69/vzAu9sVzKy1u3zBdET6GaACh9MEUs88yPqR+G4pUbdR+m0Mqrj0hhom/R1sH+A0eA/xpAqC9eYmE2XQp4z77lBepwuTHL9cWNYo72s6iLDTzIKo8yFUEXQzB0A6Ty8cSX6/eXvj+9QyffzuST/ADcilP8AtisiP7wSkO+FxQTfzrpfEukTh/nR7rH4dDhdihwP4NWhYeF0gAX5gfBmnALgKMhdia4SWKaFPMEWzB1/ORy2vjiiJDLtM9mbn1gaez3ClQl7kUhwa5yiA3IoIxxTiNDg0o0VImaLoIis5fzB5gUXmQgTAEB8xBV3i3JGGRPuHWqsDV+O/Y4Cgs1PVjh193ZimB+sKPWv6nT8XIlvQ9er2t9ldzQrhUO7rnf83KSUGmAKgAg5pxp5daAlnck9YVOcnr+8AJ9cecR/eQ1VNFAMfq5E4vc/dAAzDN6LkDjMBt+ubhj5uSZHDin9OX+IYmV4DSZWSQYueIhxNtZB91ZiwruUBZ7h0j7MGA45xChHuhY8NevLzAP48yAOh7TCLBLbgXnNAHXlweycjuhhMF6hJvdpz5kLqJwr9z3xJN3Q4e5iOcymoZRQD9c9go/c0YXzKG6hKYaKa69L8MdxI+9+Z6/g4fR9NG/51KrojPs0s9txXsrO6BwwYyj+XAVx9fbn5PXSfQcdpkgdz6x49yqurzX96Y0fS4eP6N83VMInoTBgHauLYf49v+e7qfx7mWGbccEv+Fd+e4T+fARf2zRYkaZdQeAyLycOecgSaGvvO7zRz8JkGCPWrnqc86j7ylCl8pn20jwwxqyYDIvaDMRKZYHuaBa4xyVAPxpQ5e4HK64Be8CgReGH95o4JyvLjQoKqa8jyYAErYYuwU4HKFM9sOweJmzDLIAs3HMQMI5FtUymtVI4ZWqgTJEUfvSgt9NI0IHyafUPhkigP1ggaXo4oOruOGrDBjBTjoA8JkAVP9prptKfOAO+O6Xd4nrLDeyX2ZB1cPB3mVlZZkCruaSx3ES4fNNgV7jUnlMKorgq9Zo9Xt0aYah0CwHQZgKlgZ4EZ+cWMLd8PkcdTc+BrFsh9xBYCp+5i+l+4ETxOjqfnMnAL09wQC/zmVJ3mb1VMd1vimkaNPMv76/NUeZXD70xmV1I81NOodXLQ9fHcWBd+NOgxo6YUh8cxIvSaSI/YPciGg1dCLa53cf3PjaiplvaohyDXhmSOXdJzYEztsUIOryFUvXBkMTrmmBYc7kEuoXPEisH51wgYOe4JSQ1VWB1HcF7vJq9cWBgAVqOEaA0fvEmGclBAZ4E8OEqR5B1y6+g7mAUADOED6nFJXeaQkX1csCEFutOesJ1Cn0wTvVbgR0B5XAoJNANkm5IlPurvRowSRJ2uiMU3ABL1yUFObl2nXHEyTVm2IJ8zfJDz7zVT00OSpOYzUetd9ciNmMpOtyKmYgnxwSKeZXRZ5gFAHx1oRIYerkyh0mX1cJ9GQgxBwhIe5UASOJJSYQEGl9HT/FSkTGAJfTdCKPVczJV6aFwoMtj+0d+NYCRofTCVFHBe4eEdDggyvxx4xDfpcfW/wCL9rn4rgwbhMlA+78a5+jP5Hfvf8fHJMeIIuOgT8TDF79Gf4T8YSYEplUAP4wRY3kzcegzedB0djAADVTMwMSk9vNmI/8ArBZ3jB0qyGimW15FwJLPQBg/wdnKqpJ93kwNLGWHMXc35hjRvx+ad/GvrQ3vA9wDxGFcJQhHhzHcc5uQEfDQgGn5Mnaf01PZ/JnrBfgYBF/tp4uv4yhnfzr8+BZqP8YViSkwtVB/RpAXPzptXpewxzV5U0+O+gZQRYfsxMCdAykJTiOQJmZbmX5qezlcU9cLqwvjMgcVmFhfTfPAeu9hjlF9/WNX6Yt7hj/EMdXV+XDr11Y766JMt+u8Qyhi4Tyu9D545paD0wIoOBhCs94O4SG54hzuOHTCmsHCZU6GNsWBmnAx+Ez5wzPwuPxmHe5+s5g1aZclMj9+61aBkKWJioOJ1BvBpdPSJk21hHE6vY4Iuxrk9f8Al3vlJrx6ky/mBH3Yr3IoHIgzI+TsKz+3D+wuOBk+zsDe/wC3SFXf7Ix+6gUafOYBCh0f0GdMqJIk81BSpMDne3rvPvA5WEOXEAHfLok0f61/6OkObfgP7umFl/OvYL/G+C4h6J0d3KjXx87j/udB+5g/uHncC9/uwf3/AGaYP357jxDumr3LiC+NUR4kcgH85mT0PCSuH1Y+B6H4tfvaPl/bHr1hXrz8a088z64medv8pyj/AB9pX/Vh0v8AXn4cr/8AXjWj17K5TluZRmKbTGDwRli+bHGfns2uyNBZUdmL3oHuEmUx7uXvNC9P7M+/+G6VMDkf8cfns+2w53Z+OqZza/n9+fiDioukD4MeOU4RlMQAejQNKAxEcTBxz1MfLS3E/wB4B4cf9BwPzd+bNPw/00D0dnxyA8w9f7dYQ3/7vX5738/huGc/3X/F/DD6E/kw6ZyhgCcV/LzLl+TKBwTmZYvEcmTmcOY+X9eW/wDVv/n5Q7/TgHn9e/8Ag5/6vClIvjN/8fKn/wCOP+n35/69/wDNx/1u/wDmb/5micx/+RvpiGYhQze4KZSY+MGkdib34roCqgdXJDV0Jh4V70yVBKYw8GyGEi2vzW8uF8cVCCsxQpHIYL2dd1PB35LkiqH4M0LBnTHYj+9YRn4YcKxTuh0v4wF8iNJ6PO5Jr6dMhT6OOGrCxVxIcRTlxXxP1xhOtY5UhGyOZKVYVxAAJX5gxQFgXYrmMESuDdSgC7gKVBUfcJsRPhhEXT3X5sZ/69/B/wBafx/XH2/45/8Ag3QVeemBT6UwIA7rDEg/XQiI40fnJPuIflg/4OVnAj2qYOFrj8qfjITiTFPH/WUJeLlPIIuKnZfrk+Tozx/W/T/rT4G5w+x8OMYUEwY74sFCzo4Ui93W8cfIdP46/wAc/jdCc6FPMF9SIw1WNNPmK/bloIA6qI79DvGDv0pvnWPqsesc/lY/C79Lv3sVgfNRgb45LccyuanLEL/kcej33LU3Ooe5BGHgOC/b8aoAKBUxAMIiuFBqwDIATVlMZu0PUyp+QKZCEhVHuAEHyaYii/5TAoOAJPcn0xKLjgsNv8bm2OiHuXVaqCeanNbsdqt0UZN2zmp5xWBhjPHAEQWhhtgBeGE9lvQbj5q1zLNC9H8YZZ+3sQoiU7g3Aqr7q4IdMEPOVrglEDVxrmjqh9wTIoNV+5j0Ts1nXhhPNV1ZH+HHkMSMehzJNGVTETZLkG9cEQTs5H6Xxxb/ANtD7/bAPrp/LuPro/L+sFYsfTA71xNihl97YZ9puuL/ABgdbb11UrnzRZBqfi/rRvB/WU8P+zcyOL5nonUwf6CzFFyyA21dr/iwDFfcsHhqTzKIC+plBEIkR3NyvCYMgAPhluZ+prfO7eN+YY8oc/hb9Tfob9bJQBhlQZc9J7gQQabWqkRy5aDkeuR/NI/Ofvo++vXVPNH4LvyHfCNQsb5xj8ffmG+M79cdH536bkOP+N8LEuUCiPMpFVNotzfuSF2dF5jQRsrr4rgKwcFKTJHw0d0mhvD+tK/P7YL4afbIp5/XH/x5Qgaoe4B0EqhjYUFbANZQNRZHu/3B2mKf7qxZnM3UoQ1wBuHuiBzgGLw6KUboMoPDStkYHuPmn9a5/JXPd24U8JNR/owg3cX3P68hvNj6b+Nelgv9jP0P6wmv/ExLi7o9576mSDW/hyzCUSroAIGgvHx5rCgehJgIx8dpt5dMsDDSh5HoO+8HwHJg0y1yx/z4dQ8+aEasD2mrwf8Apo+g/wCtePkkMX9aKkx1ZVpc9HCoyiFcHuBGuGxg+JogSNBif2FC5IHXxdzJQAw4hgu6SP8ACUEHngfDMTRFi/oHrMqEPw3sUVl2LxrTz8euKiMvKZ63+jPwn+sY+v6wY6/6xVdKkEeMMeFF9DF27/LgQPyXAgCT8mLETfT/AAy4Mpa7rjmD3Yj3QUYRXDyHcASJ+U0jVUrNIB18NSTZVzcoZksAHgrKCD9T3MDlgQNCdWTUuKqr+t11TPPQxNGL+ckLgcA5IHDxyKnDg3Ae1PQ04cY47bflCmUEyBsNusvzQ0dIcVDAofqlzJn4hwzs+6QoHrkC5X+XC/pRUwD57HSWJZjySMDkQPy6Q15+9ed57rgIfoLml6TAyMn0HzOFXpcWBdI/PL3/AAfzhun4ZrqGRkBO1pzTS/iGFOfGsK0vAxCw/FyWA+EzfflOZWh6uB4KhYrYcZ5swxJYiDKk+bAxq51iDJ/xhIFR/OH6/wCzXbgz8aMo1AMci2vVgJBlgcQqIhXjJZ+P0aUaI/riSH0SmQwjXYUPc1O+RxVPwMPi95iKACmItXc46e7sw4lwLJGYH9jw6wyghQ94o88A/MBo7g8OrgCdCXMHhhpIaFolYrvSp9w1NtRhvsg4lgijmGAxSNLmgDp43DK28HAGw9NRgKODry5FmFx91zwOU7NFKnCjF9B0ldiJe4abCOSAZ3NHkXedYHPugP1nXX/0JvexO+Ybzp5zBFRZIfgZTDeVBkRmpcgHAGxD8tin8bXpK/dCRFGGBzXizVPxxH51+cofgisS/wBCDlUAC5C94z5sSbfM0P4n1lC1FMl8Grhdklk0VF08mOhFfmAEsXVNEV8o/WW1qacymgbafMVhNEvMUWpTEGZpUlCOQAiaTJyUIlhHUlW33xleTmEZcyKdEBzJ3QAxI42DgP6BT8w64PR1ifR0XMQRwXyT5cIISK4tx/iwaXEOcMd5YMvWqmarr3Yzl2EoZhME2yIjngcOZdDYRA7HIH65t18OVc9A4Gy+rDwl/lMgh45FZ1cQW5FGse++/TaAqdxdWGd8G2jh1rd4mXTyMlXo7kP7jlaBszWsEaaxwtmoP2OUfyCMxGsA+azrrJcFyKis1uw6JU8aiBuDQiJM3SiRNyJ+MUEmEomIwjgFfnCQnhgLU6Z5u6EGrNRb1mKBWscwcX+cB3+HuDalTlx5PZcjLCX7mAWg0yh27owYgDuL2gHPweAm4e4Xit1a8eBk2PbwH0mAghencgFxBNqUx5kpOBU9KYWoA4ub6ITRA1QKwP4XzIF4ZV4C6Ko25lgzjeGOnuDW3gwmg0mINCtYIomOoPgDeEvC3r2DZp0JzBxrdmOBRwAiAPzG/wBTHtASTruAwfmBun6m11oHNIJLgPDAQTRY87765hlOlNf/AIoaBf8AZMCweQYlBCQYsUywwsJAZlQUr7twg5czaWriD3HQd+4J/Cb+XbJINnggnzY9v95r9xcuLBBMqEN44Sg8hMcKz4TExCePxn8yZXSU5gXqf3kX5/eYPcIiiGFaiXRjC4Eg/OsEgUMUkqY46Bk4korlXp0rBxRxfcmOev0dCNXr8wmDWjzAbbMkR0RjE8R2wOJ2mSyaqDM60jOcgQyFxo4E8D5lJ9BqBt/435/500o2GT7KkX3FKQ+KYQlCJclMD5g356Dq2LxjQAWkDEU75dSj+c1ifoybz0sjAIBfukzxL7jTlBRnFi+OFEAhXJ6l7cpvfoYAJHyZm+tCZ6uRlDAxGOOOaRYukBdARggF2jU20SE1Mz91DoyOLpQrOgGID2ABcOl4jnSHgMCYThztebIDXPDMwlPgmPIgonmXD5drgRsBKmgjt8VPs1kTD8GrjvgYJDDgJj6Y3qmHamHpc+u3pnanpign8uQaC5gTEo+2PeQlChQMmJQAw4BBNUCphcGoOZd1EjimbQdd9Vg6ChN40TfGMfqZ7nDb+F1w9QIOW5CgaDiBx4i4/ikDo4zZ0y5LwYZRyQlIC5kEvCOrOCUx3HzRNQw0pA0s6PvzAGiRbgaWIGHPNwk8AWrm7BaE0mysLpaX0MGWwwEYyQl98m37vPTO/mBniu/47KfKdJjph+B/WC83Pp/Tofd3B94XDqNx80VnuDj3AIM9VeYAK48HSpjsOJHcD3wRWW8epVDlkLA9kMGMLcmCJA46CmBg9RgQyPvTxzwQzgsE/plP5Bmup71+GDSpwjTTcj4sCBquGdrnlA+0w/D/AEO68EP3iIP52xohPI0Iu0DrxgwAIpiY5XiuKRFMMdLNUQlBfxydeywylxw/GvqSuOII5yl1kQyFAbidyBEODSghPjSu2280+sWfg0H/AOmG5bGTJG7VnMF/Ab9yPWC4V5DCrWQScMRrAarNrWro+QvNXFFR3UQ5gOLPl8Y2DLP/ALTJlxwG739tOmJOscVyIxVzFwXyJjliuRmswYUuV8NF94pkovUf908WQXegfvgmHFoNKsAC8wAiYgtNL5oPtZXaYD2x+TDmwIGqOpvIYgLMRghKlR51NMhFcmsIky5Xs0nThPaAc/ztB/7zCBEUcMk15TuKWLkQBGfHDh+SfMVJN6ngbEPsAwmDOH/4we9D95NE5SMR6JufhcqXs0j9u5Ivfuqea4WIqHiaKLiI8OGSBqYL/BA5MFV3leamXGz/AMjAKNNCaKCMM+ZJ0izz5gwE7yO4dSKZCzK9wMkTCy5CJqxBjwcJSC4hjqj+LVQjLxd5oun1cnzn5NYoq/neMf5NCPnzXqRD4aGbcDgakXIAdyMgijikKBEXAqAgZBiV6ZL6H2EZJ1ZH6JMc+ud0PO8wLVXcM+/ymYg9V5gHKH6MrLTVPU+56qzyLkSWRt0wV0QqPTXQJgtUZDE9v+rn99W/BwEisWOaSujiIJ+8PvLy3F6l0Vbe4AzPBwAG+JjitPZ7yXqyWGPRlBVyxYyBgoDlcz6qMuSfE/3rB6B+8uArLLhCsX7cmoPfO6NIU4F0ew/tcl9E/wA5/D/fVkTnxwHPT96orw/eevEeDc1dJ+94nZ5xwqqz9VxEanzu4v8A5c0CCEe4j3wvHEVAJ4jh7iB4ril7accuXQeO4SpHHB6UOnfrcjcR1y06o9vHvvvNHzefy9XtZ/Fjreiuny5zwezoZXio3VHr/ox8XMUCPcKBWpkjUbmhqT5roDDkyUF+Yq0DD6GoUATICSOXYB44fjhL4cIa/S/vK15wPp/m5WjqBWgw2Xa7+OSJowNqYZ7f8DgUH+a5ihOwXSCV0ARHJBi9N0VcYF1GvTFEsRgNxS+YSm1mJH+LnE1tcAv/AH4DeuPo6DV9zx0dJseSuo1ETuBUq5cVOunuhG3eptLhEec1dA3oXQXpUiOqjeBwwMz3mahDBZTybsBacMGhRRQZQ4UQe4X4ZfcqPPeMgX3KPF5kHEJ0uAWhDkwvG3LJ17N+RI+ji/qvMLxZMngg+uboXwZ5lSHmLlQ+Y9i33Ko/qmVBwwLlSZ5oORSVHuG+PTICouemIqr3D2t5uwIpQZqeHAx1Zwa5QlCY8lhlA1Q8MOtXfAVxFW+ZMpgrLkx8MQKi9MwpgN6t4Jfg1FVtwZBhgFt39ad33asOYuw/nAACLHCEgM80wfIbp5FJU+YUSVsccAG69zkwr0gGo8p5mj6Zz7qJfHxM084YXJJnFH5hVdVLlAiN0uQ8fMQBBwZ599N2RGN0JZYKT0NYBqcyCA9bsJ9xWBfcNQMePmFFw4gxbYJxPut5UGZDnbkPYw1KoKOQlsPK5WwP6yuJ/wBOHGIj1jOoTMAUeZS4jzzAKg4KWHAz046snDDpUHzKwusWuL6zAAMGRQhBdS+pjsjHSvWq7rFB6dFEXqMFpDnDKLRx7/DVfF7mSL91GCPtucIp/DkGlFxUS+GQxShpcrYVcG9HPkjdTHAAefnJBT5qbswgKuSulwfG72QkPuMNqCV0PAEykCAHDUuI3zP4DosS6e00xVHcFXlAbrlhAnzBgW+Zt7UPHJEgzCpeH5cGP+8cQrk4izNGk3j11/XJINfmAQN0P2hidIlxV4AYpo5juGeN3glTcYpQk+GJcLov5yEQbmJePcNoi4FGOuHKlDEzMsb83Ovn2a4P7BMJUK3kMgCSS4Vej46kImIGGCGMroLAUI88y3gJ6Y3j5I4SdNHoTNoyixY8cihauXavHC5aUYAgsObRLFkHIwBUEyhlRRwhcn4Mvt+Ux7EfvHE0BUMwCDxTUF9DgmUg8/1vRTkySAeeYJAJpKHsmAQWlrnqLeUz0rBd2N4484gz48XfK8GJrU8TMHwncSc0qLiYKHRgjEYes3n0KaH8AHDjIF04QTQCGrcw0Ar3AyK/LgCiEmCBSH6x5k/Pm4vTz8aPEQnMXcxTK4o8e6OqWi6iqSXEbLOg4AUCA6F2Y5dUd9JvKYFzDNg8cwESJ4GZnIhnqEJx3FSTUEBF7M0+xHMa52ag9cFeiNRyXB4RktR8MB/dNGLnEkDhVEZ2mtmg3onUlMwo8T0woCDi5HIYALncwj0hxHTi/VxDSqwxko+mSKAPuJPrejh1Br2cDOGg4YpKs6XIDzIxYntNGgo5EcFB7iAJL6YtrpYME7mVAl3VNOOoCUeTC45TwyqzUqYl6vDKojC5HawfTJKNvdzMUK/cPGknwZbAU7iXIrgOfHmbIFtxyr9GAi0QPxrwPZwxBAOrl1MRkxjdA3ZMMlzm7HVySQSuWGN+MdhpfNJrDuICbotKnEcBJaUpkHL5k0BX5NR7gqE1GVL0de8uizvgzCkRGA6cAuHcgPTAqG+3RoqEF7qiSXscne/DKhIesQp0UA79MtnJcXHwk0kRflyJ5mCTjHuGH/mcxyqdHeUv564elloasy9OpaC55cVxX8jkYVGwdcJE4OEPUdcoWrvXDMB9cxgV+ZUXuHXyazdtd0kQU1J7uRCg5jhvTWfhcCRK4lL/ALzCX/eSRYp7cE8OfMgjiqox4Rfu67fQYcRh4OMOT8ushX5N/wAtWSwougB1d3hTmp8eWrTMgK3cG8A2v8dwVxSKDnap3qg8aaXh5+ss9TQUAf50smhfwYIDySup4C/Zmws+uhAcPumquP6z9/0jDEv/ACaAzvx5ptSOGJQ9TdLU4KCCyO4j38hufnkhmIvHKYFUf7HPg30HrH6rgrYPoObZPIC4SoPQyZRH0uXBQvmn2cje6xswQqpm3xyzwj3CkG325RDtFc8xr0DQgjMoVEDnQPvMG4AEGRqw6YLUfMBPoAaUSG4PC3B5ww2ERuhPDT+DzIE4Y7eYgeM0+NKWaHse4Y87vrnMfAaV45DIBTzEKevcKFXvmSQKkuCCoa1kp/oZEryGOtXm4LjtftoftmkN/wAM0fXdD0/51B7sS9L+f8PpDdyPH/Zvv/8ALT4o/wBaHIv+tPkc89XD9uPtixFJgZxHEXmPq9XICpAusFo3RD3a/Td/9HH/ALfHz2hp++X3Z/hwQzHrm/LgS9ydNj98P5sL9NyJ3A9WZHriBa/Q4KK1pkShA5O9eY2JgIZB7Y8hoXjv/FmE3fDUK5Mfg0g97f3Liko/cnCJP7S1za+Jov70Tv6wVRBP5Bh+weH/APBMrlV03EPBvLILFheq3MZA0I73gxoOUGO4z3EOWQalJdR5hadBNHqUoZmQp/XSgK/Ol3QW0fq4Pwf8nGB33edzek/xzRlvMP78P+7wh/8AtnuP9uIL+j7l1f8Anyldz7Dh7wwLd47o4KAenTeGyWFd+M1tQAGV4jU71gYGFpHPMH+9+t34FkzrY+r37Wr94b635VkhVuG5e4ZTj826Tfyf8dW/+mD8X9Y8vH9YQ9lJLnA94HmSfyxl6HzGUQOGCIdYtXmH7oE8YH679Ji8uiSsyCWc7lSNOmxqig4/N0v/ALxPcJ8useP+Dl5v1Y/E/wB5/E/3kKZEo30Zg/VWGF31kNRNcKRWs64ZfH1h/M4vWExDRyBzGdBzd67fd83QT1U2Dfifi5Ge2jQilw669YM8jJ5gPFsr7gMSwf4xwoKHUwDBAwkHXIxcMnc30EMhyiIYZhTyyYimKBcRfzoXr5ofNeG/Kd/B/eX8P94XAq9C4gKFPS5T6D/e4SI/nCf/AHf4QZ85HgLrPRiLDhJ0Ke9wsoNW9H94/V/ev4/7yrHfz/eZufOSGONk9yONf4jTp42cNpH+HAOzlfcFe7JO6BOUZTx1PrYtMj6YA/cT8MQfng+cg9NI5M/jgFswT8wfw/tr9n9sUgR2n0xGiCZX+rFHyv3L0qwI/DBSyluup0a74aPw3fp78IdKAmdDCPQwgCF+ZnwYacTV/DU/DV/HC/hgVYLiPjX1Td/TIfy92P5JTQYPdHEWDumoIdLhJTl+2GjIeDnR1uUUOs3g+11etw9Uikuh6AtfMOKtcDhBunQwWXYxuW/IVGKUZDUsxwihR6OpDj8fMeMromrDfMYiMB6xm8zPrFIzuG/d/wCRkHf3/wADLnHh64f+5rH0/nf/ANHIEBX7dxkXcgiPrckqKyHcVv8AQ7gE/tuzxzzuj7w/ef0h9x9Av85T5x64gnD+df8AsYPX/Jrov/cy/wDYwbwHD3gz2hptYL2YafvvPlvPff8AiwmBifeocftCZblgQM+c9xLzumT8X/CQao23y/y1Qx9/8cU3z82VwtInogrZiG182J48wDchJoSE0whZ7PcTZImCI6dBo7LiGcjfT0GU5zH1BNeAhTLrzcbWD7lqYp81ja3/AAJ9QyI6s7/C/wDLOcp2dNPlDBEOAZvwGrhPq4Pxk/RuDjYGNI8XPUOXPl0pJbExEQH+TKHByHMVMlU7xHBkNeIF1lSJFenAIPlMC05CGgpR9vBQSvkwNlMlEoUzYiRHjHbABHTWHphQfv8A5mIkrH+mCBqEuMJ90fy6P3/p37/95D6/vP5f96n1f5wt7/274/8AFwfL/vevd/nNvZ/vH/Yd/CP5w/nfzhPF/eT4x/vP1v7xDox/jrngMziMGLvA2vg/OKNctd6wW1ygmWObDuSnzBE/3eUC5fXCWmCuRvjfgOmedH5HIH0wV9PN04mk8d386P1cycVMHn87/bjkAcGMUZhD/Fs4a9Ey1Li4/bMldeEU/nRnFKeb9m4ID7cmi0ow7Lh64ORftrls+uZ9iXF48s8rplFMyP4D/wCWF/PhR1QMJ9Hncnp1Vj8eX47laA1p/hYeoMQLKbwKNPphYWEv1rIXHAG2Un+MQwe/Nx66MH3F6XSIjQ4KT+cCelxGeh+zBGs0q8ZTGFKd54IB0cwGZ4XMdOTH/wDvVaDT1XDziPncV0BeP2/VzVLDSvGYF09ByGtFDg0ivx17NSKDBmn7Y6BKN/pynqf3zCk7/eAdlfzh7dj47ymQXuJKjnB4lBrDgQDk0QKPEfOflXhbrKOOcZjpudiDqGd2oPPuI1yf4CDeuBMdjPSBXmIoPedmAxMBMQcTBuI2KaHropDD3ph2m/xnhzCjJCerANAGsEMArVLXA8iMRz71NPov+CqTy4Pp8chAit3STCE/ViYcqWmL436N2UIWYqfmTneccBJLFFyUR6Oo6t1KxyCRQ5lRA4T1EDSBA+uB9d9chkDyfcEF9BwldwTuUDm57e4PJLoXgZGF+8m69RAzXsv3FnaAZnEUpowH8oP4aM9yr3CsHWMIChE6/wArPLsjmyehgAqFGRb8a49UpMg0kANDNZWvd+ihmYimqgYRItPg8OmZ7NyygW80lDk5D+r/AMjBes5XVt6Cfmu5DzPvY9TX4Vkx+AML1w9RQcmF/ex+5EOwByVhcQ0TvfnmD6xfGZpP+PD/ADvnM4hEAO4NBUYdXBR4ykpGYOaxKMatTaw8BZiSGHlmHU5ti2qH4Zhq8vPuj5TXk/xWfhMkYiI4B8E4ZeYEWsQUTi1No4YbDncmZiA3DKJIAGDTB0u10relG8q0IMBdQjcWMpco0tsa48fW5449C+vmEV0gi8ni+2kETgzBVwT0rd3scoHfcvvimXaOQwU/1yJBFaOqtFRcyNFa0mJtIwWVUBmBfUy6DQYJoDRugMP4YyxwPvdAX84MIDSu7/DoswbyN0F8XEpkBZmoraGZP94o+g9nU5LX0zNMXbzT+KmqSN6B7QA0NFRo6uMXCqf12NPUK9cW7Cx/cVPrvU8sGCd4N+dQLtgZY5q4BnCWIL+rjtOJcG69jIeda7pG83v9H/kYiKe4ZFyAA+6VQphiFrrdAU32YRL5uTHkuHms74gcDCJmgFwLc/v+bhyM/nc0NkAEG9dbajXGeBSOAEkBT7g4RGAjGmhgEwf9eD4qMV/ZlSsG8KPuHFufj/N45NG3bRG6PFxp3z4/cOJPOzCqh5wpgAJnAXtMDD7A+ZGIMOMhTrDFEUPOSyuHzjS26HrvkiX4f4X0HXLpvwOTLnfNIvEEfMuBUyUeOLA/nArbEDnJpE/Z3V0tH/NnqCirBmq+mKFY0pirGCgxDxYfHQRF/gdJnaOKyWOor9xauYcOPIlnDRrWpfnFFQ+6xpmh4bv9+SSfNORfMMR2cGIZERi+ZOiJMqMwgaAKCnFkDXibttVr5iNgYDC9TRp1Pz/4MoJxHzuBR8W/OYgAKtaYhgtyIbHKNzTgYJEPQ+4KDA65JdtAsnhww9QmBV7mcfcKoPf/ANmEsebWhmtJw5Mqvx0fjBMQlw9E6w4MngMgdxwDjJaQADLlHpd4X/HmsI8fMHEWY3UnRp6yemalH4o7nTk9LjGteoZNnX1NPnRA7zC1eszFvW63KCP85NPfeGCvCr8wh6uCNHr+rE+7AYDD/ZsQn9OFAFNWBnIjo9N6UYDz+3Hy7wcf4XjpWop64qkLTrvSRZgPzj/Hz/O9PY+5gZONz0xA40DJ487IcEKt6PmD/sj6c/Hbwn92ept8Msjw85nCPrT2XQQ+/wCteAw3+DD1u3MTP3u35t1Tkvnm+pLpex3mJJiBxY1KaK508B6OaIfpjUaq9IYQB2p9LPNFVP01vF/1g3M+uOvSB8NGf+PJzPvh5/h1ytx1Hex7p+NHFkTw6PURuDAUplVqD8NP/IvWRrB1WCczhfAbTMHaQLF0v8McT+vCA0RUwSrEcJojdVsHE8gyx0vzcaLI/Q0jhLfwmXdOmX0ysZGZNnlFxMx6AHnDQA2NfG+KQ90cOqVqY25Oajc0nnD3oEiNgoC+ORROQ5vCvhWGI7V7mGjQN+4z/dz1JwZGlCXf/wCGedF+f8IxSyasN385Zg+PzzG5UW8McoS/9T3CCwke/wBs+K0/C7u8+6ukOmHpIf2Vnt491wOCKU7ynE9uOEJbi/TLrmpO5IXFIQEE+Z5zyD/yzcPXTZcVxOUz4CYKbag9zYCwHTQ5bdDIHqhIMACqsmvFQDw0xBvVwcrJi5mj4G7FBCa8xVpg8Momu5+4ggTwmYA2e4LqQUqTHPKpcVQtB/WZDyhObB708n10P/pwP+nInn/rH4T/AIzH/r3/APc36dfsz/8ADub/AOHR/wBe/wDg6fn9eg/9O/8A7G7fH+MJVEDrTcIO5wunZjmho2fj3EpWAUy++dWr+FTuT9sRl2LAemI02y//AAsDIEenFpBBw6MRtyZUBBxVfaWzMnEXenj+9SRCmEH0yiemJMZU0q1URcgwpfRjgcARyYAGplPL7Rg5fOcNqGUXnAai93nSNQKW56ClK4pSAn5kOKCbsb0burNddhmosMb2KkZw4GPwmssFNYXhuV/+IzEUVeARf+HR9v79cVxxUb9zfme/Y3V6y5ddDnJj33DQEOOtP2sTzRh1yJYOIbkfumUxAS/xjF5YvuI/QVhBziS1n03fPcxADIEaYq34euogVnzR6BrCmgPDQTaR2HBrHwrAtX590cRUDncECA/nD11nEf7d+r/flauqyyKyPP50AhHLXohGqFB3vdlFaLlB+ZTu9Irzbzu71HccR/fhFr4Wg81x7XDgZn50x1SW4kpecTLdQPOY7pV6DqPL4+uG8SX8aYQn7dAtZqODgx/Lh1z91hUFcBJCoXcG89z1b81R7Oa/S9yzqz8uAUAlFwBV/rLFUupwegx1Dte+TJXp1BROrwlMNrsYo88eQ7h/jMeH8ZibxSTEAWvkw7X4mfND3BHS6m1dNXf1UyHkOYEPd0cpQF+OFBSs9dX10emN4kavkmZNvy8DpejeIMTkf4Y//t1671+8PfS/N7qA7kCwa9YEes0Vf40SjTHLq8zC/NmPgmfTTPMu72pPMp6f1xfv+4wNfZ/G/e92fP6zfZf+TV95/rC7ZPnML6n+tC90dXZfcAafHhv5DMeQcQ8D7XRcfXIXPaamQ05hewEqYSABfCZJYKOBucRnTMohAUIYuA2frE1BfwmOcn9pnWq/B0QpBVDJOKCA4tC45lD3yZLKs8DJA/pMcCK8FMP0j6TET1gMhdMXPxf0MClBceblAL5kdeqmD14zNMr08wUBZmLCTJ8JHIAMnwy1Vwv5HGQffDFXq+YqKpc9KT1uEE0F4LgfavoTCwXDWQyJPj7oRIOTFFJgQ7OYI4ephIsIeYguDxL70yx49f8AB/joT87gvMPHj/gg4D6aesZNNUXun3Rw++7/AGtN0RF/wrz6GXl+TX7cOujy7vrupuHbpOzWhz3T8PcVJox/iYVd313zH+IdpkvhTA/5JEmMozg5uqLcWJPfd/Xcg0tIKW/cTDhUyLtRK/DMI0NJA5d6E3x0Iqfyaag/BgAPoXKd3+QzspynJIOjiONKschdUHCDvBFgdNyzRKKDxuh0fTcLBEemSjUhdPQBVfmaMTtOOZZHg/GMrfk030M57oYevNEOqfmwh8KifdJDIoA895rSM7gXx1sCq+Z0hAtXMLRBcILiodvdGCc8Vi+DgwN8DKgKz24TE/WD4BzKrmwzQip8NQUqM0w8Ks90lFwBgfclWFbhe/5It/Bjv35k1AwiIz7MIAyIXeIORHRyZHOxk7chqzDKGXnmobfkwf5BQX46odTefTVXHVywwzFoPDVjlAn5zud3fgZH8YXCr5jMZkV7HICuLLrCvRzjH33dcDuxMABKvNOaIwTD4k6B3Q5wuIxQCHuJinWbkmCJgiYhpmkVKyuCtwqNfCmaxJg6BDAeZ7oQSueDnxiCUMHWuDVTjegwdDiRd5vTXqPjxYBKMAqYy4MKYp1CH6ygdzCaVpWszbsSYm6iKZUgDpgJmj8Oo0oxPjEFH3LBqQPxhnNuGMDI1yUG/lqF0LXALQEoYiLkBEfmYmBeuOouvuO9AUM3GnRTFwAcumqbk0BUAcBhJ0TWhAquA2z1aOAvMTQILJMwgVyqtTHurkvHIUwrvXpkDQphJwcyr1EMHlML5TUfTDx03Pww/Qz7Xz6anHBAPXHpMLg3z3BA2x3Pf8F7ioB7kgVJ3ATxcfscqccKKD1wPlwVKU/Gs9E1fQmjEGfy5/LuvXC3u/G5URjhByH5yoKaVJQxxVMlQj249LgnbvTuKPpHRqhJzUtfclWhpkoNfNeNPwYevhy6YU56wRwuM4JEOLKmt7cVcDFwBL/bMDJIry497Ia82iseUrwMGSthcZ5njFMgB5wxgKuTl8AzWx4BwA23RICPDLKNLwMqVWCGeouoY7yfymVdEp7kxEgTKknOFcOVo+1w0HwGogx8aJOuW4ilMP53fwS3F6eXOKqe6QMPuGTk4CYBWhIgwuUPNiBkvwyiHv5NLot5TMAH4mVKSfTKA4vFxZakukw6PjiQzBV4ORJhQamnRXL6ZbkPXE/d+7Qnpj8h/hX5MP5Dm/OmDHh57mrMthy6oquTvXQtMOaQkIm10OUTERADxmFM3L4zwBj2kcN1/wBeipjleH+MUSg+90vFH5dE+m4qAD3KiHRIJlvpl94hliwnH/GIVSddaoOT8XLMoluHfWYgZWMIlxeoM2YDJsGan080rwk7oA0R9uiKHh4bFYvNU9/kdAee015+J9dLOrLF6P8Ar2SffUX/AI9kf+Q0/UT9ZD00A8wp0YB8BMdopcE3jjEnj3O+W+OKADCMQBWCiDpxonxgIzJdDOMC5Jg+K5h3PwOQb00B4mA9v3WH7c0JHzkREOBfTD/TAa0Mfo0/Buzi3ANEN08O4PKQxoIRO5QhbOjUc0wrqcmEl+6OLCAL55xBkPYeZogyfrLCMJRN20j6Gowb/JlgK3hDHUEe8m6PED1wpQ3YvKwxdHwrNNKlOOHxb4mV1e/DPlkO4g51RxQFSUxYwGtIACOgceiGQwR9Lprg5mFeDJkCpRqCMGXCzNHqOABAjw0cIvg52NUAnuHGMYUwY08rq0CD66P/AMDAVdqkqb+DEMiiN2PatDvuEqJ+A4bAH4mohUBciWocTRW8TFMYPpFwBzwQxiJR31nGKWHV37X95+i/vRez+DCnifi75/8AJv8A7GU/92scP775z++YpP75YmuqmCjxz+B/rFpx/rGhR/Wel3dzMnt3QdgNF/HCzHV0h/hkyvmODioKVmg5Db9G/wBugPjov9094/4hvuGR+HM4jZqvhv8AHv6XE8TNUR/y5/vdFTun4cg6Ib4dJqTQc4aId5lbaKnnJhRrSVp/Uu6xzeWIkeN1GB0CLiB+5zJHcIjhUJcQKHi7nOkrnCHxqh8MaidryNKaqyYQmvf/ALwzkOUH/wDQMjEBAdCtADacNvsdAQGvzhl31FXIMj8fVoKqprHSTjmtIGF7EGJHcChnJV4PJo94wDzBT+wfcbAKgLqw92rpbdVD1h+/CH5lo6eUy4mesDSVxYgDCLMqTxKx1gJF2B7l/wAUCwMpJCj8sqGQswMQte5v4peAdTG5leaZ69Lf+3A/T/OL724R1Sui8WgnsFwlMsBwHDYxXEckLVwmJig45KirgyDkQd1f9uGYlmMxWV8wVV6gGJPgV5jICFAG/Ev637/9b/8AmYFw/q0VF4K5CF4oxJBPTgbp8/8AhggPj9NP+np/08nx/Xp/1cwtVs5oaishpVFPAeZWAj3udFZYNAoXfOMO7DK5kIHqOlErzB+f+KHxs8prHJ3j8jbrXR9wDM3ap+5VDQ6YTg364EMA7mqSy8EpEe8lhVPA5iHdL5qGjnJxHFgkqgEHAmqRauOrqUjoJ3R+53Kg4HeXpU8Fx/JrTuUtiqdX6h8Vxx/wdDkqL7jjStH7KMKoVvThwEKjjivYuACmHagSusAA2DWDnvclGhZgaDu/IedHEpoDrrFBEu+OH5xLGGIuKJ5zVP8AlGFzIEjzPMvH+nnuf0u8f+hvz/8AjFeF4ZWFpimLN7n8rTKfxUxwfdMfVwcgmKaFiHbf3+2Pk/3yxKR+OCJDOIqHK4OgIpg5ZUP0uDVFFazHfmhrWEsICGAiXky3nFx8NSVyV6jl1F1qZcAU8TfILIp9z+T/ADNT6/rS+/6xKLQpzIaCDPFE/fNOKjpLfWDJBwc/GPQP9af9TSX/AMGj/wDVmCgCoD3OpUoHnmJSQNAe4EA9MbjKZB5r0AsAwJEvvuzRlJS4A5SGT5FjNPAqYQblgJXD8YVuWECkH4whZRTpMcgXenRSoemTaKv2ZX9G10k8P7yiiYcnPTkPwZqKpjq6Pq4ItA/eKik5crCTCuOlOo+Ya9DjhB4R3Zj1/TKRHq4j2t+GGW97zIkSflNOl1J9zybVVM7DcNXx13EfA6cUIwPmiU6FlQgNnMiSO9GVKw3L1tnoYVEooyCmPYMcC7/GWD3X85wI8U3vaXxcTT4hzHKgFQZASAmjzNHoEUxyIp8bv3HXzLS+PQLm7BKi7/WLWVPgxA3COf71zNIASnzBqIeYGJ9sGKDq0zmVITjjs5P5eI+ZHx1UlucDc6rqaZ+boCm/0tG9xR3/AFuJW4H+GMxMDt+TBOm3eFBcMpzuYSegCZ9l5hQABGAC6EXDqqpf4wTB8G+6G8dStw+bp7uD66P8T8zxOxRTzk4oQLw0GGhV2GiUorBkoFU9sQTn12MSHr5QaVUV5gmhAYBhUdOYGKClmWrBME4VWriCsp3KhzyfMecF4BrgI7WA7F8colV6HzC+0jhj6HLYp8RzvvQucyqqLk/o8Z9AuXiBIcpg3uTo6JaVJOOnyP2OEQJTrjJxmgA3+8IAQ6sT4bD8N25IFReailMrOx/DulQapgdECpx/4URM8mQqPWIIeGfcEAC3mDh44AqwEhqCe255qkRAKwVpNjQkzzzsHfrtT3DFjMBw1/II4WqCDEnDWemnG1mXivAcW8zauE4cKQxXIpHm4GkXEUYCu7FFsxdk5TVWEqsGIW/rAeTffmBRE30jMAzV+K85qyl7AwEgLKzqa2MyUabxmAR0fJggQqM5BFSDMe2DYxL8zpX9GAKfa1gXURNQ9X2sBcPqQ0AtzBcNgD96aR6gz0h7GMcWehPuBPDJ9STLdghhh4z+BjdIIvGiAQDvUQEDCTL6Mjon0TMqQeOaPO/Ae5Ao8x0CJ7MQalw38PSFQss5FeB3KYAOmH7QJlFEIApoDafzmjIU1XtQbgmvyyLu3d0eZD5XlXmnAh7ZXASjosr28UZgQCDGBcaieGBUMOno3O+8MGudEmAN1fmkYBe7hdK7hAha548xLzN/m1GvyQXzlZDlT847SiTGcEQh1VZ17d1kvd2YP8jeQgmfcIGjBcOWxn8wtTwl+biB/wCeOScM8ZXSOg6Od/Udz7zymDi9UDBidbwiXAjjWegZPWDDp9kAw6AQg4s4wRqfGsqc8CBl91UkLPcRQoFZpkvC6w54+tO2tCGQ2gB9dEQk+GWiM5E2tRxMfLODCgmMehA8TfUgm4pn1xOrnH73ckE1IGDiAbQ1UKYnhFLhyp/ysnYe5wig9BEkxhisC4z3IQChcIKOb8p7ocn+80+nbLNWMO+FUOKb+jJgCMID8wOPxmSDfmH+DqPjV3O5HMPiVhqBUsZOk1Df2GIAnGSTQAmEKmYIUA01wPUkHMCtiK4PAi3GMuqaodc0dbHuECcHV4BPOd/KtwoBEMWkTAwHZVcWLDAEPHMPSwfmZM+ByADwwhA+qbgraGZJhkBxhG4OEQ1IOYKR55BAfy3O0pY/GYUO6uDjaYglNcwov4wb5o/HAzhiMMZFgGQgezM4pSJNSB/N0UAEMtFkomDk0Ip6y6+43TUljdfvwkf5mesK+3A7vowCfqYM+xJMaHwsURJ+TCL83HoKRXRPe5H26E/3idb1wKLTUUB5bwsrYSxzlMVYqR9wGFXla0cHgaAvAHAr+rcY08lh6zzOt4kj8xyQw4GVCqqVxZCBDgMKInPwohMQY0RXJEPDFwwtwIzql1EjQccG2uM7l4oxc8JLwbp8dC/cvQDpznoQYBlqQ3KcpB6Jqf0ZC8jB9xafGkD4YZ6Kp/wL6ps/OeyUUYplBK/NHwRxMiahiCAIwaJSqrjH33G0dXMNeUdy2+cxB+b1oNrWBME1bTapL35YtTiqow55BVDuAkAPcqgI9MJFfZj+DAYoXvFwAtnKYU9erOBEpq0cYMDXBJD61iEIhpc71TsBdisEJDmdbUSByOHQb9DCvQDUMdevcMXlVwbQyp9wCatxJuoxrDsDhF8aR6XCXoMSCWADkCv443x6VoiihFrpucJcSxV0uQXlxWDMouQupF1wDD6uTtprXPz19cTsC6kvt8249782T8YdwwEEkVjBU+XP/wB/vNyzPhu9Ig4wArADCSdfkwTHFjGGgUb8Wrt4548IPsDEyICMEgp1mMeGA/c6vHifM6Fy+ZIs+3hnZ/NY44QyFgq53Ev+WZDrtaWlU8yiBsiTXk/+mEAsbRoUMWs050wGn+dEdZXkMzPI2Ospnfozaau/zFGCiXTzZfh3vCygFGRUmfNZ9cmwo+F3D8QsH5HgBdoN74TTwqKGnyBx00ye5iIm9fhme/8A1geG/wAZMaoQGYTFapqav87EvIxcIjoBGBQcdwlWgzMJYkHQiiYTXa+OjYgnruj1aj6xx30fDh4FNVsH43Dvt1feYAX9OsSjeaMiiVhqk3FhkLgSGYNgGrPKNwxMqB+S6md0fniNvfE3rheD1hoaOoMAIZCGcyBEzaKr3jjJA7P0fcHb8VHAWqyC/L8mXWxmYVzvKAjv+eQH5wj4OCeLqc7T8OBKK/TMQ2flyrjxF7qLMqh4xc9LSowKSwBY14cn66Jx9c0i1Oav+hx6dQAtOi6x+5JXYu5FTId2RIFYIphf8ddc54wg/IxL94GfbiLBGf8AMDBTOkjAywaFx+xnVugnmQ3/AA0ef/DjU4ERjdSn46c3HxuJ9j82cyUhWskoRE/jAoDg+nDaGA9MyTlf67vmTukxkLtUUmSZDt+4WlEz9skZIUwNxB6zX5W45ySgcmxECHAD7ZxgSqu25qrgh9yvcBMJ/gXzkxdXV3fzq6tX8v8AguKkKNBwHM60Mx4Pcd04Vizw5ZloReOfYAejgKrfi4WMOjz8DIwCJ9dxkGQ1KEyEB0SunqQxTVPQwRojHCmi3pgZzAU7N8CDPcYlu+IcQkkMMjbNsbraj6wZ1mOVGqtNxQCVn8tAhrJKSrDJBwmIpShdQTK9GrbS6q01vn5uH+Zw7kneeQENGiYVjLCNv+DIFxEz7Hz1M0NBQJjH5ekMVzQAcwAIWX8+NeIDzoACIROCHZ91namXcGSTOWe0bGsG8XGRpYjTG9xaYIIxW8460uVxwXp3VlrN+TWdiGHJ8CvzIdMEx/8AILJzIs9mfptbqAulgY9Kof8AZejPXHLLAs2tckefdq6UQBVNUECeMi2kjIwHEeb+cp66CFzfHrATDcp9/wCvPzZOZcwbfOcuLk/pqo1/A1eBlK9x9th92XHv4hlEJvcutP1OUI/mtH9H+dcadiJiLRZWDMxZZSOV7HounSwejlt09MavIXdep+nEoH95UWYD4PAyf8uBHP78XSxPTMefAeu65/GZWP8AOaN3RDzPgn8Th6/73FRVYMEWVd99PWo4TH5zrkZJm56QaBD8uRIFt0RFZdICrjArFmp3ABJ/fCLT+2DE5le59T/njoJ/bC9Avw7jbH0HFukS+62WPnd0E4/NKqoDzResQ3Bj1dCICflzaXDzuRUrQXXsy1RHDOpR937vmehR0XnafdwcPpvn0v1w9GvnMkEv9A1hP+HDHHXvDJkc+8z7AT4mf/xpkmV/Wp6xdzdAiwTB8nS+MwSM8sLNJJT7gbKW4PqW6/Ym8Oo9YKLvO5BZWIfNsQD6PzBiCH2Ofr6HUFD46VZycMzQ1OC0ypU91lEXlzqEJa5xl3gpgHuEujA37TUdLAmcoABwwfZ/A7oCHdrIEywxzlw4fjKUP0wTfYx+wso6jAI8yAHghhi+vUNxBUfEwSa5ZkPe9OhWdfuw0s9NLindtlE/WK2Bfhn/ACejW+sCGHUEPXO7xPo4vAv+8wH+4cEBk+uEAs+prlzlUd0vjcC8Z6PzhGd9cS2XLxua6w1iQgXuoxGiZ4rgc2iImKkbwZ+P81Jr8DAiQdAL4Kxeq/odxeRB7NdSosHBPx5gIO5DIrK77N85gOdhMQU/HMBQbWcyIdPTTJQFavXOxn3AT/WVEYc7hUSnFy1JfHGABV+OQmitmeK9QauFymzwDIo4Zd4zx3QvUgbHNPWAvWCBW967gxH43f180an3wySrx7vKSLlaMkvXdZ5nCPgmZArhdFOYpbQKly/ivBctiWeLhlVcpcfY4wJFLoMQwsMLDK+DhYADlNU/DDDYrri1mHdA6j9Nzlp0jpK/enpPfNwlEOA61wvMIBycx0F9hmqCD6maNoJcUYECH5yzGODg2rcYWJKMCA5cKwFvUHAy5BA7oXAngzAMYn4wpdvLroyXTgfe7mNTiYcoZKzANx4YvSzxMZgSKo59qOW6gf3u8Fb8HMDYo9xHMeOU81CPciBlC6MJoQX3COI0IhGj3CRFJXJj85DP4B0ZDkfsMxUo9cGLFA9w90mEhB/LhhEfxuf2Fma9fshqRav4MJj5nA0vIjsOn7vlyVw+BgkRElxI0zPSMP4N1SB8OQSpsXkIEXmUA19Wal89zlD55q1VdaMzTrWwJmQDbmBc8uVEmQpWZwgj8nBjkTJCIzrlCcT95oTu/HBgXPtydKv0OhHNw6QR8TJqL05kFqBzC2pMlERcTDA1woKUbh+2qQSduorkBXEwVFzR8Q41C/7Zuk3jjg7w4b9uOOPepIx0LxUyS5n0zEgU7XcBGDWAvoZfIvIYzBeK6b290Yjcehh36q4zuaZBiQ1HKqXq7hoVQrDPkA9YYCtgdwAiZhYGkWOPacK5zZZCWSHjAZTvYI5gvQp3cwbyo6D1YQx38i3EZtisVANtg4Pr+3M0TFpcDBp5gzswjlKGOmal7IUzhUTymuNMYKGdkUnHIBiw8OZl412xWKOKlGQm6KVECBmaAy9hDGGPYieYeAnq5q+LmMjHijEBGUU9TmlIPxZ2EPhqRzVBJTewyuwfmCNHrKYzz1RwVuEiwDJwGg8onEwaWyTDhemKtdHSknQjquS3BhNRDxhCIARMgVWJjqzvyZ2lpijXp8yhAW9wliEbkDcVgSpjXOB2dTSeyCBhPB5qOE7a8wEk8cBsXuEkAHmgGhhUIWaIiImEmFH0ybvxi4z218xnRMJOAC3FDSsWiTyjjVSL5gaKP3ksgeK7ohcRFwX8IHDV4QzEUeGTESXtOcXw/eAECTjlnJ/I3ZpTJaEPZgFWcV5gtDypl1gEasyijQBLDncawFgOJbNlXPIv8DkWY/DkQ1gMghUG4EID1DJhW9mKAKPdAi71cQKc+XFcFe02XcTo6iNUOmMOHqlgyuni0HEJxHDq2roVGJ5pDxtB0YD4Q1qsBI6ip9bDBh3S4CiE6Y/0IYapMAVh4rRDg43mdGWnq4rWnD3dRIX4wigKP4yPk7+Mq3TrzXa/11Vj+hckS/JDXJfSGfAoPplI0OEwif4yYjkh6+G4hb7luqv00njnjU+u+Lgz/wDKYNa/xtAjrZgRBjx18zYpC80nnC/k19ho61hTboZE0OEUKYFQTXYEcVqqHzXAEXl1vqpcH1d/e6X/AJsF+D+cp6CYaCJloGJ5gt9cEwvVDjyMba5dK76zEKAL5h0QDwMOVZ/LuGnqXNZSxXF0RuPQMEIYvRchhHBYVeHHgo8qZtAOKbKNTlmrPEdMu659mCgh+UyaiCduQtI/LgW5ZyYMSE9hhSJDLtNWlAF1CBH9uSFZCqZE6kAmYIS6L3mRBMUOWAWUObL1RPmJZQJTJDKYKBJ6ph2tTgBgiHd9yHtvymKdknNegXProOK/WYG+rwmBk0xVj9HPYY+q5XSLxLunyyjpSh/A4iMxIGyluhRO5JnxAcIPF9poPxfHRAeS+2KMf2wF4frHTjuUiIzZY9umrFyXicG0O+0Ye019wpBcB7sS1luLyyug1dFKDuOcGHUQbvYYFsLgD8Glj65CBGfky2KasQMPdqCr8whKLomOsgfl1Wf4KZOujmX7d39DR/G/Ii7j6OH8wdOgmXlchwPxv3Z9x3JB1Y+joGGafXC9ur+n8OrUo25p8I4H4cyRcFK6Xvb4YNyr2YMA76GPAhNdGHk0eR3Hyn4mVokeoYRmTzAIcv4a7EHrgiofmLnelVwgS0OGLqo6Zmwaz0/wjNHHAw7wqYGKhUhxwAdTDCWdMigQWGBaBEVw4P4IyU5K4LIjaGWKAiN3YktscBVc7zAgIGDHQQgHTJrIApmfgupQcqYFXEphKEmFVQ0JhQKccF4l4XAigwEMeBoi4HBk+kkMoDPGA9cLn+P8y6EcHOGvj1OHZH8nuXl0h9xQdYDxn6vx7aDjHA9xp+tMmk+af4hHRGTRvyyQP4zAKFX3LAIBA4lrQzHuKFKfHVjYx0cF8YSvP9/FTcVhXY6HPqmZRvytSzW5/wAMLUP9O/8AHFipM5+J/wC8V8OgUP8AOuDfgdB5kM7kgxNEIZ/sKpkWeJpY3Q4ZcJS+YAipy14AOrhIEIdfjdFADxwgykwKAgXPTyD1hWAoeGIspkwAv2GFCLMn21ZgedNQ8fMJhuQ8cA7MLzqgMFpbRQ51ByAT5y4xVQ4uApB/OAQMGaBT7ioVGPMVKVX3A6aXjnAsHzOUo+zDmAbMUQ2d0AAU/wAQ+euRxEfJ9xVQFy3Xk7vGnjlRAWTMAUhMJpUCGoCfs37vnH/++4NaqhnPr4GWJUETEY4QdbOljMddY4f4v+H/ABP8KnDJ8+7Kn9ZLyOsjFERlMZuqH74WPna4YliBT3zv4XJkzZ+3OeT/ADix5TaDxhv2Q/PGfnNfcjP/AIUzJ1E+Rn85BPrBik/MjunPy3Ky8mSxEDmRk9eZJqvz7kBajHEuoZvT0C/PNUn8K4zZOQMi9be0MIsXAAP3mAXqPJl+qHuTlQ+5Nf4Awl7hgIdQN1QOiVdaaqvVvAmn1kMRr6wEPg8u5AiDHCi9JMkUlxRkT97ozoe+GgwThg6xTCukQsYdwjRDli+xNJMk3ROjhKVE8ukh0KLN9cKEh+GBQ+241p5cHJkuKsuEPejup64Zvwr5nzrlp6Rz0HIomFKpHKjhUQS44PdZ7M6fyYBwjntJOcH+Tuv+afnIEfAtN3/AhwJA8cGeyNVyEGHgGLkJxxobn+HGuMlchy1y1/VhhKywN7/K16zEZrs0mqa6coB7dUA6THmNTcAc2njBmNhCe4Sx0ojHfoicrp/DcFtCwMARwDQywBXY3u4f7x5f+tMeDJ3enlzz8zQPI/IyLoOYqByKWP06Jb/Gds2aG9nX5A7SkYOmd1nRh9NAHQ8n9uIuG7Wz/ToRSJ90pFHvdcYZPzgByX3LyqH1upIDFTrHBwUPq4+ZWAAFDOESJTCJ6JgQFrBlcC+rmRFL01kan1kaUP5HP2keGrGBy/vAgGK4AQ9QXFoqEiuaQ/ATUVwF9ygYn3hvoecd1QnVwlREfcn2ZmISqGSBffMhgR4XASIRK4wcPhTTDtc6zeRQlwCPAmP8Jju4OBTg5EeYXs1vnvNOAH2GXEWEmmocqZciEtzEwpNH8Oj+NPwcfeZx/j85BOm8GZ4yeikyz8dv+HzPJ+fhmPxHCBQnoYCBqDgs5tO55jhDmdAST6M5PMRfTBnT3/HrxyGTI/QuI9DJCBm85iWdTAqLhXjp9qHK4noB1epdeLxfMAjbx44kSL0O9AbcWbod7wYr5MAETmRMp6x4hV1wKgX4DlCNqGqEoO2xCti4TEyRR07E1rrQf24E09DlwzD45wk4Qz8JUkweoFQuQBCeCOTAWHo3bqpADFZLi/DFA5+cZ4SeB+ahpMjTHnfyYlsTweeY4r00LSsOJKfbkQWoA3xKM+4UZAwR8wq/oHNTSjO4QlCedciU6LTKU+03uPxx/m564VWdSZAHrqb06TH5K5iXRqJxX+bQxlID1M902NTNpVfXQALdM7OngMVJfXxza4dH4Om+5hd2xwNGb7v+8EbpckD+NYSkM1oboaA8RiZSKDDlfxC4pBx2LhEii8cv2vM1gnVERBuVT8njjrAfl3WR+Qw3jh4Ljl1Y8cqi6z7zKYdFMS1N3wADIaFhgMEREdQT6mBp3Ek6nVyIV6lyTv1d79x77jx1b+OE3m1z2QhwzwqL67qwjVcjZfVPNREUANdqaXEcdaWJ1ljFfVTx3rnqCbhjxvMEgIpVwF+ZQMJIhergDqj+dZco43JQhMUdh4ZJSdxnOHug7wn41/XlOC48HIJ53A0PamEI6RMPjFgwPqsz3hkD9xJ4tSaICU5nE6tXiB3huShEUXCFFouEE4AwpVCGR9gGa2RFQd+dz2Vlwp3/AE0bPBzdcUeD5mF7zYArKBhCORkTELx1vsMMq37kDiAfliEvbQRWIMjVqFzTxUSBmfas+GfTT/LnKVwr+uxt7+5whxxvB35mJIlD7h0HGVylPc5YRt1BeDw3DSh6O6yV+dwdIv5MweswJ5FdwRAWGLwUGBlmIUhNTskxYP4y6E19fxqRmentMEjS3FPj1euEo5YnqBYMUgCYuVSkfyZZoYe6cMACNFXff8FEHqZKshniHixLZ+eO5ZLLnENFxwu0AB9cgFOnBxFRNN7tbyL0MHv1w/OAcDBVOgxqAxouGcrOYVB3hqZinuBVkQQ3EyrgzK1XS4NA72GEvUg5lrQsjuUSd4ZZR3xJmQs61WpzehFRq6IgnD5hnV9MZhsyHaL4Yh4EGn0OBkBIke4UtFfDB7feSlvQbuf4YNLP50/R/h0Jx442hU25gkAThhsldyURBHiOX4uavmIgQfJq27DID0nuDffuKk9rjlYKAATpxAB0CDnOgFcOMPB9y+sQff8ACgPwZZfgsTp/e6HmD6PnuBH3CgfrGGszxznyS1cuP6fDDRv5acU9LmIBeph411qKyYQSumoWS50jIzKF0VpmtMqOXrcx0GWEOO+OS8fm75MXy8Vz/8QALBEAAgIBAwIHAAICAwEAAAAAAAECERIDECETMQQUICIyQUIwUUBhI1JxM//aAAgBAgEBCACfM7LkOUjgsUkNikvtTQ5f1BJ8yjThwvicP0e0SEijEoaKE+Cyy47KDY48WJCVnO3YX6IJVUo6iSom4SdkZxSJTi1RGUIfHqp8EJYrh6mSpqSg+PNEGryEMW3YqLMUNfRRhEUYoZ9CaRaOTkW+UmRcl3Tvb9C5dDi0X/VTItim6oyJSfZLPuoyd7Pkh3luxDYnYm7odqImyeo4qiMHLul9HuHYuBOd8y4RD47fobdl8lj7C7H/AGGKVDdkdpdiLG7ILjZi72OTfe6ZlISvtFFElyZSFbZQyPeRVlMcWyMX90/qpmD7jVx5UIoxidtvcXt3KOxez2obEuNrGrEvQ4MURJIpFFbY2dMUaQkUYnRFBRKS2S5JVfKo4Ef+e49w03Egse+yfBdIUiyyxMteikOhfEoW7EWWX6K42xKKHE5Odu3qfIsTjfhlbojHjmSp8NiLEcmVGf8AWQiXBF8CQuEUUXZZfosTL4oS5Ksray2LaxiLL2bH2FtZ9je1lijQ42dI6Z0mKNDiYsUWjFiU0U/uPBcRssuJaoyMkKQ2Jlx3r+sRISZRTK2xKs7b1/BcTgY6ijqHUOqaSnqfFaOu1KSlpa0VFvUWppupdQ6hmxO0XztRSLjvR2KbKZRZN0hSoepJHUOpMzZnM6sxakhauoKc2RlkuY95Df8AyDbvjKRci73Q3RaLE7hEn+RirsYmjqT0nJqHitWOnjF+Lm8TxGvLWcXLFD20/gfoSGclFMqQjk4+1R7ThkJwhzJ63hWZeFfaejozh7dXTcJc2ZGS+lCajbsgpS7QTXePeQ4QbMIGEBwX0oGMTFGKMUYRKiPsan5HyjTVopCQqZUT27T7WONQs0+w/lulIqiitlZyi2Xs6rlqpC47dSf05uXdOz2nYcpEZNj1K4E7VuH63sTMmXIUmN8Cd7vsan5PyaXEB52JMimu9FDbRK1DlzbhiafYfy3blXFuuR9iL5LpCb+99YXezIyLIstDkrMkJxG/eR7CW7ViVFMpmLGrVEY1u+xqdoj7EY1oZC0XLTlJLw8XkzoR7teHjhJi04udD0dK6NTShF0kafbf3Hu9Fel8mttZZGNj4LLLLF/ZD4iHf0svsYn6GpM9wtpLLEwQo8UYIwRghaaOnAWnFcjgjpwFFR7N0cFbUiiyxNfdx3RKKl36UDpxOlAcI1Q9FHSOgdFHQQtEjDEX89l+iy/RJMS4LoykZWXIy4r0LkcSPf8AwLL9Fl/4HdmNGBikYxFE6R0zpmAonuH/AHtRTKKZRRRTKZT2XyLj92j2nt39vpr+XsZGTJTpikZi1BTb7UZL6zFJsvgk6iZSMpGTMpFyLkXIuRyckPiR7yPFTno+MjKRfotCZZiV7SPw/lQ0z/wtnJTEqEtqGv65ontUipFSKmVMqZUxRmVIgLvI8VoLxHhpRXg9SepoRbqZUytQqZUxWcmU6oybVNfHZE5Vwk2KXJY2ZMykZsjK3szJly2XI5EXe12dyL+ixfon8SPcY2LZsscuRMm+SAvkQeLs6ENGUlG6E73ci6QnZ+hP3SEvbsjU7jExEnuuxDvsyjkasjwNfZDbsJc2RKP+xP4ke/DHH7Fs8ipDiJJIkrfEU0V7hzS4KclaeYnJd8zNDq7HOLVEWkZpkvFyhOSUJ9SEX6a9NC2/JzvwixfItIdMURJDI8mk0ny1G7S/0nFPnqaJ1NE6miZQM9Ek4vspV31Jxl2Gk+6bXbqagtTUOrqHV1DqzOpI6kzqSOrIbv8AmYlfoSbE2Wz3bMX8FFepeuv8FoRSEkJCdCLWyeyWy/yFyiiitqK2oora64LPaNIqJXooUSi9/ae3akUt/ae3b9FxLiXEuJcS4lxLiXEuJcSiK9hci2ZMyZkzJmTM2KbM2Rd9/smc7cllyLkWy5CLPyP473tye4WSL3h8RfMl8pFfxL4idQ2qTMZIqRUjkqRRRRpH6JdyrMWYsxkYyMZGMjGRjLb8j+JiYMxkYMwZgxRZiKLMWRVcC+ch/KQo2jAwMDAwMTE6Z2FyhL2RFzMY5MT2sbG6E9l3P0TRDsMixMsb2yiLk7H4H8SLtjHKhc7XtkJjEL5jvMXxJOiLv0NloT2j8RWoiXuslQ1ZFceiUWyKxXLdEe59jU27UVJDjJihJC2a2UaYipHeBi5dlpag4THoTsWnNGEzpzRjIejNi05ocJvsoyXdP3j0ptZJQnQ9ObFoan0tLWOjqHT1Dpah0JmE1wdLUZi48Pw7gn7nzLio2RWlfurw77Y+HHDRrjDS+sdIlGP040asYLszT1Yx08XcaLgR1NJd+ronV0Rz0mKWkZ6VGUSEo/b/AKNKShOLc9XSlOUjq6LI+I01PI87A83Al4vTkqOvA6+mT1U3xnBdtbVjNRSXyI6yUMWp6P31dH6j4iCVHmIHmIHXgdaB14GcLsjqQi7NSeTsXorZfwX/ABr4iYiivWuf4VvfoXoXpW69V7Ie30L+JfzWXEssyLLEyyyy9skZIuJlEuJcS4lxLiJxL3oqQk962ssva/syRkjJGSMkZIyRkjJGSFJMbo1PhY6a4K9dGn8BFe6RRRRRRRRQqNL5jfJlIh7hwbY4DhQlD76em0TguyooRJ8j+Av4odyX52qJUSolMSKiVEqJUSolUI+xcmAomJizBmDMZbQ7jErdC4Jak/pas/tO1YxIcqMpEXkhKjufgivowKS74xMUYoxRikJJjVKyLp0T/Poy+hssXcQ5UJ7o+xfIboTtbVs3Qne0PkPuR7j+IuwuSA+wh/Is0u4xdz8iRIsjxuxyoj/ZL4kFyS/PoxXc9piYiVDin6EVyXWLblBloqBlEyQ2mWvoh8hidPnJUNiZCWmkdSAp6dDq+EQcF3XhtSXbnLlK1R0cXz02+ToMXhtQ8vqnl9Y6Gp9+Wmzy80joTapx8NP5KX52cWLan6KKEtkJMcWzFiTKZgzBmLMWVIimntjbsxMEdNHTQoGBgYHh+lCeU14zQzlItSlaTqVnXvv10PWQvEsXiWeZPMHmUdf6OrBi10oUn/lrf2iPbuu1CQvl/K/8a91tRTop0JFMSHbKF8vWvQvQ3s/RRXoUZMcWu6JNrtcy5GUjNimZoyRlEyiKUXtKVCmzMzMjIzZmzM6hmPtZ2VmZmZ2ZmZmjqI6h1EZkXY/lEaTVDimYIqJQqKRGKfeWkl2hFuVGGHC1U1Hmx0zGBjAwMDAwHBih/bg/rCX2r+5dxbcfXO9loQiXY/Aiyy1tcS/6p7UzTVZEvlE/9SHKhT/tNPtJEVY3RmRf2OUjOTdH+9nwU6MiDX26G6Lb7KVdyz9DdMXKO23tPbv7TgtD5ifgik0VBHtEoFQKgVAdCS+3SRFkvlESt7c2XfBpj+JEb5MlZEfYXcXxIYVbn8rHKjurK2lyhuu12R7bfoljYviN8Wotvf3DE5N8iQ/ifggmOx5WJMreTkaam+81wRJ/KJaXfOA2ZEJJLlzVEZQHTfBD+3lERH/Y0mimu0V7R7Unw3AUD27foWgpLI6YtIj4dSVi8MeWPLs8vYvDnTSI6GXCargjHJUPRUXR0l9rQt0vKSR5WY/CTXItCxeHHoNKx6VkfDvDMkrxpxtRYomAoHTOmzBnSZ0mdJj02fY9qkVM95TEU/SiM3Ht15nXmLXmjrzOvM8xMWtNHmJnWI69EnfInXK67s67I+ImuV5vWPN6g/FajPMTR5mY/EOSp9Y67wlHZb0UhJFf1X9qhFn2Muz6EpbWXve3cXrssva9l67LL2ray4lifBZZ3LLoTt7qcWXEciM2NockZJn5LMhOy6JasI9/MaLF4jT+vMRFr6bOtp0deItbTZ1dOx60Ppa0Dq6QtWD7Jli9dbWhs1nNPjqzQvETPM6h5rUI+JmLxX9+ZR5lHmEPXZpaqnHnPGXFz7l6hlMzmZzFKZnMymZv7lKf1lNd07hylEqJRRiKI4mO1IpEFUrF8CLnJWlObOs7o6x1pC10dZHWgdeB1YC1E3SZ4hXOxK+7OCyijgfB3EuTwy+R3ntT2Q0/pcbrjbVVwF8Bejmj3tFTF29EfkL4mn4XWUePLyXEfLTJeGm3w9HLhR8NJOyXh2+X5fU+uhrHR1SGnNTtyMYPv0tM6GmeX02eW0zy0Dy0DyqZ5aJ5b+vLM09JwUiPzKMUhRbL+ipmMx2u657C57z+PH4F22SsaohpdQ8sPw1cijY41vD5kPyafwieInOELXmdUetJ946+PbzMheKaPNsXi2QnlGzVx6ch99uzHwRlb3lLbO5by7EflI/JJ/1k6HLmzrs8wyWq5IUqXGV7P4yPxHdDVI09RwQ9dsWsyLaP97ckPnEiaS9kTxb/AOElf1+RPZknRF2aK/44mp/85DfJ/8QAJhEBAQABAwQCAQUBAAAAAAAAAgAQEiBAAzAyUCJgcDNCUoKS4v/aAAgBAgEJPwDsrapS5PyjGMcGPo17sxwpS9UXHBwY4Me0eMvpClL1ClKUsmMY3T+MfKPFUpSlKUtyluW79w02jV/K0Wn+stpjGMYxjHuHaYxjGP1hcUzur4znKf8AzPV2j68x4S+qqWF9B/TXx5hj3jv8jeR+O0xj6vxXy9n03F/5g4beg1HTxlhZUpb1tUpS/Pq9wuQYxjGMYxjkxjGMYxjGOUNMhtMYx2KXb12vBjHZr2nB/HKwpXUlyDGP37y9WpSypWuLyYx2nB/Ax5a7CluPpVwjuO47D9VUpZWxSlKWFKWPHC9EY5MREbDERjH6apYUsqUpS4JjGOxds8ExjG6cfX9OOnBjFwhHBjtUpSlxFLtHVdOMY8Yxj2zHh//EAC0RAAICAQQCAQQCAgIDAQAAAAABAhESAxATISIxMiAwQUIEURRhBTMjUnFA/9oACAEDAQEIAH27KZ5Mrdpi/wB2MjGFW0+hvocXVlostFojXstGSMomUSTXtIbLLLLHNIUrdCMkxOLPEboT8xz1IzsenPKzTc4QxctGbdkITj2tVa2oo2tLUXZqR1NR24QnCeS1Yzn742mRc5e26LErHH+r6soorujjZb9MZfxNSaen1QotlUJWVEaSVncmVXuKtFI9EnXZGakRVswF0Rim+6iSbboUFQvGXSaHTF85b2WX0Lsk6Yn4lkpUKF+xoxFaRHO+5eiHrb0zKbZLtiQ/if8AqJV2Tc5KhuUehtsh72n6FKjK13D1s/Y0n04whH0umWz2Q+W0l3ZbPcixs/Miy4jcWiNIcjJjVikkqfhZlEyiLv07LZ5FyLkXIuRbLYmy2X0U6M5mcyVydijXvyyFZ2ODFBlFFNjW3TMUNoT8jplRMBRouiyvySi2zFmLMWjFswZhIinFkk2+sWYuiPSFIyLLRaEzxOjoXZSGx+t8i9kyyxPdD2xSPEqIopmNFbJbX9aV7tfRFElT69n67IpnkWZCGqYvURaUKGq6MTEosRRQlY9LxsSJKiK7PbKKFaG2IXZdEiKyEt0hUPe0L/eyMEPTTOI40LSFChws4mLTo4zBr1xkfVHLXRKSZY2i4mSFJGURyIzSHrfgbGk/aUPxghRQoopGKMUUjGJURJC97XEuJcS4mUTKJlEyRlEziJktTHpcszlmcsxTmzPUqzOa9uc06fJM5Ji1JoTtWN+RVlf34joreiiii2/epKuj16Tm9qZ5FSPIstjZpStdr3ImvMaRSFGyirKRRW1EPRqfMX0fijKVnl9EPhEfsQ/rvbxF8j+boT1IRwWh/MiQ/i/8jKEpKGrrw1anpT5FlGpFlyQ9VXjtGGRGGIvciolRKiV/VP6b31fmIjioRPE8UJxZYizV/XbS+A/ZRSFpocKMEYI8SMLHBo8tl8jUdQk1pfwtSWlyyjral0pRcuyMnFUlObMmObsRnNOhz6og2+2vct26FIbdl9FkX0ZfRq/PZfAitS+5euopr2XEbd0an67Q+A/e8pSrq3XY/iR9mVIjJ/nZfI/gfsaq/wDFM4pqRhqi09UjpTOORLSmmNapxzbJrF96S6F7lvKORGOI42zE4hLqhadOy99b3t+CvyUdbfmtqrbT+A7TLL3tlso7OzsVi7Z/x37DMImMT+V/JjB4w09duEajG15YRMYGMDWllqyZFpwoqh3XSu9mL2XvJWYiSWzgpe+KBxo44HFAwgYQMIHHAwgYQEq6U3TOmYr8UyntZ0Wi0eJ4kPZp609P4/5muf5msT/kas/deVi/lai6S/max/max/maw/5WpKNGCFGvT3oooooravpor6K+mabfSSoboyZlJltmTcKHuuxxVGn0/uvevu+O3ieP1NOzGjBFRMUKCMRwswiYCgYsd+9/HfxLiXEuJcS47J90NpGSMkZoyRkjIssst/ebHIjGxpX0l3Q3QpWR7MEYlMyMrRN1Hbs7LL2ssvbSZ+5PRv8AjZLZIor6FCzFGn6+7L2R022S66XaOzv8xTF0WZRLJq+1FOpGp8SjFmLMWYsxZizFmLKoh0fufxpdyg9XRnHUklhMwmYTMJGEjCZjMS1EW/Th62Y3RbFJlyHJmchObHOaISb9kxSaLErHEsgyxtyY4Mg76GL9iZD5D+iy95vsgfuJtdrVmpvJMsvZuiL6LEXpp+Squhk/Y3Ij72l62yG7NPaXuRW10KRRAqJdGRpr87f+xqEWrsckWshSRlAcoFobX4UlRJp+tOmL2OVEI5en/Gk0R/iSRwTODUJfxdRi0NRKj/FmcUx/w9WTsUHBU/qoqJUSoi2n/ZZZaFW0WkZobgxYCnEyTIK8kaiePWOp+cdT8VqFTKmNTZhqGExRnRjM04u+0vyUn7aKFtci5GUzKYpzM9Qdv39yXoYlf0RT/CbOzsRJkPd7X9L63RdF/WkUV/8Ahfoa7EurEomKEkxdFHW34LsiqGhF97Xu+t2JfeRe1njv4niXE8Sz26GkjoqBURKJ4lRKiYxFGJhEkqW1xLiXEyiXEuJcTKJ0ZRE7P2HNJmcTNHIjkRyI5EciORHIjkQpJjdQFKRkzNmTMmZszZmzNmcyEm/f7Gq+y5FsuRciyy5FllyP0JfHbvbs7LL3s0hfIn7+3o+iXwKkYsqRUipFSKkUUUaR+xNWxRbMGYMwZgzBmLMWYSKP0J/EUbOJmJgzBmDMGYmDY4NGkqPyT9ihZgYHGzjZxs4jE4hxro0ukS9EHbHte72RIifkn7I/Hb/5taPZSEyz9CXxIPsZ1+ULHaZaF/qRD9j8yJ+yHwGxNEXtY2WhMl7NL0SI1Y2hiF8tpErIk/1IH5JPzoUopDlZFpe1KJnAcosyQv8AalEbo/Ql8SN5WNnsTFMzJOxqxEu/UD8kn2RmkqHNMTSFqpHMh6iHqJmURTS9t2zS9bY6mRjMUXfdFDj/AFUypnmeaEqK/JPTlJ9LQmkcUxaep+cNQ4tQ49b8cWsPT1jDVsw1CMfGm1ZweVnCcLuzAwHp2cLOJj050PSkxKil7J6bkzgaOE4GcEjgZwM4Gf45ws4GRjihl72eW/l9H6l/TW9iLEMsZRQkUUUJDYnZ+pYvsIvZ/Ve9jFs0LpCL2vZM8RFHoasSG+y9n9FjViVH+ho9Cf092WWNCW1nieJ47UVEqJRW9xLiXEuJcTxPE8TxPHdtGSRlEUkZL2ZoU4syiyyxuuyMk0XSs5kckTkiciORHIjmRzI5EckRaiY/RqfqP7UPgIVfn6LLL30/mN9l2Y37wRgjBFRMUY/1TPJDfiQfiL/r+3H5RJfApP3jExRijFmMTGJijFGKMEVQh/ISt0cczCRgzCRhI45mEttP2SEtpaqQtUTv1P8Asir7JTozYu0OKIqj9Ch6ZgcRwnCcQ4IwQ9KlYl5Eu4bt0hS7G+y/LZPxMhd7x9DIfMlITuO6+RKVEZXHbT9kvZBdj9EUr7eJpkmmiPxPcjx9EfYxC+AhjlQmI8hjdCkmP4C9kvhvJXGiOmo9jpmBRXjRxfRH1tF07bwl204VRjAuJlAlhL2nCMaRp+yXsUkjkQ9oNKPfVdKUEqH76ItLtq36XsX/AFikPWHOItQ5znOdHImR1F+Hq9UJ+Q/jtUtmfmyy9pK0VIiq2qhRY4tmExRZjIwkYMpmLMZkE77a6HG31g2YSMGYMwZgzExIxV201nkL5DVqjgRwJHAvRwI4DhRwROFC0UcHYtGnYvtL779CRVP6IpFIooXqhJsryGX9qxfaX32UMqVFOhRe1DU7GpCTsSK/IvRQ72p/Qro8hGI6R7PRZZkWWWZFlt+vIT6JTal1yM5GcpzHLE5UcopozQnZ+xLVp0cxzHMcxzHMjmRzI5kcyLtCdI5YnLE5YnKjmRyo5UcsTliciFNN0T9FWOFuxaZRR4lCjZhJCT9DU49R7ru+ilJnEjiRxGBxM45mEzCY4zEpJidmr8vtr4H6fbh8yfosSHKjMRJEVY3RmJJ9lUJ9n4EOVGchTfol/pZpF1G29RkdX+yQiXsjppqzBCijjRxo4omCMUKCZSF8D9Ck2YQQ4oUEcKOFHChwSMUx6aSsS8ok/RFdjfQi0yBL4kfiPuQ6I+yXxF7PwS5M+q/tOKQ/7W2p6ItIlX4TeMR3QvkT7kR+JaQpJ+lsxmaYmUL4n6EV2McqE95+jKhO/T+BH3El8RSSM4DERaSJNMi0PqW0F+RuIlsmNWiiMf7YmSVqhxaFGTKJeheybp2cv9Z2Rn11yM5Zj1mvfK2cotRmQviJdUepd5l/gtoymZtD1SxSocrVEU7sl8Rxb7SgzCYoTMGYSMZGMjFlSFGR+SXyKFkWzKRYmWWWWexehxTZjExiYxOOBxwHpQOPTOKBwwOKCEqGOMW7MIIxgdFIqJhA44GEDjQopehLdIoSX0LZEiz8FSO9nX4vdsQvWy+jx38inshl7r6aGXtQzuvrW9KhRob7Ez8jK3uRTaIx/v0NWVRaP/iWy7MXeyMTxQu0YlFFfXiOkZ0clmUTKJlEyRaPA8BOJcR010zIzMzMzMzlMzMzQpX6l9FsuRUypouRbLkXLaPxOSxaiZyI5EZozRmjJGSMkWiRL5fbXxH9DE/qi+yT6+mEuu+RD1F9UfiKGoiMVFGEBxi+ljDGhQVkoqQ4sraPyiS+I4pmCMDEwMDExkYmMjGR2kP1uoMowZhIxZiyq2j8h/HdKxxaFb9VMqe2Mt2R9bIY4p9tJLa/oRL4jdIja6bdIjKxbOXltlFsYiXxH8dl8hzSG+7M0Zok0zJJE6e0fkP4iaHQpUZWRaQ5pmURdMz2a8do+o7IlKhfAT8t5Soi72RL4n//xAAfEQEBAAICAwEBAQAAAAAAAAACABAwIEASUGBwIjL/2gAIAQMBCT8A6al0v6OD5YPBXhKWle4PTXNSx4SlKXQWkx3mMYxyYxjpMfoFlSwpewXTUpSypdwxjGODGMcqXP8A16ZcA1fzLK9eIQhgwjpUuycGMeY8lDBj1zoMY6FKUuCwvj1lZUpSl9n/AJWg818UpSlKUpajGKj6HzyseehzlOUvw5aF8Ufn1KWF6IxjGMeK4rJypS4KUpcFhYUpSlL9LMY3hGMYxj88pbFKUtS9CdylLgtClLClhfjKl0jGP4CsrsrSualtMeJ3nJ5H8VOlS9AdRjwO1aTH5L//2Q==;" parent="1" vertex="1">
                    <mxGeometry x="242.5" y="140" width="370" height="370" as="geometry"/>
                </mxCell>
                <mxCell id="19" value="" style="rounded=0;whiteSpace=wrap;html=1;fontSize=24;" parent="1" vertex="1">
                    <mxGeometry x="249.5" y="710" width="360" height="150" as="geometry"/>
                </mxCell>
                <mxCell id="21" value="" style="rounded=0;whiteSpace=wrap;html=1;fontSize=24;" parent="1" vertex="1">
                    <mxGeometry x="409.5" y="710" width="200.5" height="50" as="geometry"/>
                </mxCell>
                <mxCell id="22" value="" style="rounded=0;whiteSpace=wrap;html=1;fontSize=24;" parent="1" vertex="1">
                    <mxGeometry x="409.5" y="760" width="200.5" height="50" as="geometry"/>
                </mxCell>
                <mxCell id="23" value="" style="rounded=0;whiteSpace=wrap;html=1;fontSize=24;" parent="1" vertex="1">
                    <mxGeometry x="409.5" y="810" width="200.5" height="50" as="geometry"/>
                </mxCell>
                <mxCell id="25" value="&lt;font size=&quot;3&quot;&gt;Best Musics of 1990&lt;/font&gt;" style="text;html=1;strokeColor=none;fillColor=none;align=center;verticalAlign=middle;whiteSpace=wrap;rounded=0;" parent="1" vertex="1">
                    <mxGeometry x="429.75" y="710" width="160" height="50" as="geometry"/>
                </mxCell>
                <mxCell id="26" value="&lt;font size=&quot;3&quot;&gt;Interpreter&lt;/font&gt;" style="text;html=1;strokeColor=none;fillColor=none;align=center;verticalAlign=middle;whiteSpace=wrap;rounded=0;" parent="1" vertex="1">
                    <mxGeometry x="425" y="760" width="160" height="50" as="geometry"/>
                </mxCell>
                <mxCell id="27" value="&lt;font size=&quot;3&quot;&gt;Author(s)&lt;/font&gt;" style="text;html=1;strokeColor=none;fillColor=none;align=center;verticalAlign=middle;whiteSpace=wrap;rounded=0;" parent="1" vertex="1">
                    <mxGeometry x="429.75" y="810" width="160" height="50" as="geometry"/>
                </mxCell>
                <mxCell id="32" value="" style="rounded=0;whiteSpace=wrap;html=1;fontSize=24;" parent="1" vertex="1">
                    <mxGeometry x="249.5" y="710" width="160.5" height="150" as="geometry"/>
                </mxCell>
                <mxCell id="33" value="Image" style="text;html=1;strokeColor=none;fillColor=none;align=center;verticalAlign=middle;whiteSpace=wrap;rounded=0;fontSize=24;" parent="1" vertex="1">
                    <mxGeometry x="299.75" y="760" width="60" height="30" as="geometry"/>
                </mxCell>
                <mxCell id="35" value="" style="rounded=0;whiteSpace=wrap;html=1;fontSize=24;" parent="1" vertex="1">
                    <mxGeometry x="412" y="910" width="200.5" height="50" as="geometry"/>
                </mxCell>
                <mxCell id="36" value="" style="rounded=0;whiteSpace=wrap;html=1;fontSize=24;" parent="1" vertex="1">
                    <mxGeometry x="412" y="960" width="200.5" height="50" as="geometry"/>
                </mxCell>
                <mxCell id="37" value="" style="rounded=0;whiteSpace=wrap;html=1;fontSize=24;" parent="1" vertex="1">
                    <mxGeometry x="412" y="1010" width="200.5" height="50" as="geometry"/>
                </mxCell>
                <mxCell id="38" value="&lt;font size=&quot;3&quot;&gt;Best Musics of 1991&lt;/font&gt;" style="text;html=1;strokeColor=none;fillColor=none;align=center;verticalAlign=middle;whiteSpace=wrap;rounded=0;" parent="1" vertex="1">
                    <mxGeometry x="432.25" y="910" width="160" height="50" as="geometry"/>
                </mxCell>
                <mxCell id="39" value="&lt;font size=&quot;3&quot;&gt;Interpreter&lt;/font&gt;" style="text;html=1;strokeColor=none;fillColor=none;align=center;verticalAlign=middle;whiteSpace=wrap;rounded=0;" parent="1" vertex="1">
                    <mxGeometry x="427.5" y="960" width="160" height="50" as="geometry"/>
                </mxCell>
                <mxCell id="40" value="&lt;font size=&quot;3&quot;&gt;Author(s)&lt;/font&gt;" style="text;html=1;strokeColor=none;fillColor=none;align=center;verticalAlign=middle;whiteSpace=wrap;rounded=0;" parent="1" vertex="1">
                    <mxGeometry x="432.25" y="1010" width="160" height="50" as="geometry"/>
                </mxCell>
                <mxCell id="41" value="" style="rounded=0;whiteSpace=wrap;html=1;fontSize=24;" parent="1" vertex="1">
                    <mxGeometry x="252" y="910" width="160.5" height="150" as="geometry"/>
                </mxCell>
                <mxCell id="42" value="Image" style="text;html=1;strokeColor=none;fillColor=none;align=center;verticalAlign=middle;whiteSpace=wrap;rounded=0;fontSize=24;" parent="1" vertex="1">
                    <mxGeometry x="302.25" y="960" width="60" height="30" as="geometry"/>
                </mxCell>
                <mxCell id="43" value="" style="rounded=0;whiteSpace=wrap;html=1;fontSize=24;" parent="1" vertex="1">
                    <mxGeometry x="412" y="1110" width="200.5" height="50" as="geometry"/>
                </mxCell>
                <mxCell id="44" value="" style="rounded=0;whiteSpace=wrap;html=1;fontSize=24;" parent="1" vertex="1">
                    <mxGeometry x="412" y="1160" width="200.5" height="50" as="geometry"/>
                </mxCell>
                <mxCell id="45" value="" style="rounded=0;whiteSpace=wrap;html=1;fontSize=24;" parent="1" vertex="1">
                    <mxGeometry x="412" y="1210" width="200.5" height="50" as="geometry"/>
                </mxCell>
                <mxCell id="46" value="&lt;font size=&quot;3&quot;&gt;Best Musics of 1992&lt;/font&gt;" style="text;html=1;strokeColor=none;fillColor=none;align=center;verticalAlign=middle;whiteSpace=wrap;rounded=0;" parent="1" vertex="1">
                    <mxGeometry x="432.25" y="1110" width="160" height="50" as="geometry"/>
                </mxCell>
                <mxCell id="47" value="&lt;font size=&quot;3&quot;&gt;Interpreter&lt;/font&gt;" style="text;html=1;strokeColor=none;fillColor=none;align=center;verticalAlign=middle;whiteSpace=wrap;rounded=0;" parent="1" vertex="1">
                    <mxGeometry x="427.5" y="1160" width="160" height="100" as="geometry"/>
                </mxCell>
                <mxCell id="48" value="&lt;font size=&quot;3&quot;&gt;Author(s)&lt;/font&gt;" style="text;html=1;strokeColor=none;fillColor=none;align=center;verticalAlign=middle;whiteSpace=wrap;rounded=0;" parent="1" vertex="1">
                    <mxGeometry x="432.25" y="1210" width="160" height="50" as="geometry"/>
                </mxCell>
                <mxCell id="49" value="" style="rounded=0;whiteSpace=wrap;html=1;fontSize=24;" parent="1" vertex="1">
                    <mxGeometry x="252" y="1110" width="160.5" height="150" as="geometry"/>
                </mxCell>
                <mxCell id="50" value="Image" style="text;html=1;strokeColor=none;fillColor=none;align=center;verticalAlign=middle;whiteSpace=wrap;rounded=0;fontSize=24;" parent="1" vertex="1">
                    <mxGeometry x="302.25" y="1160" width="60" height="30" as="geometry"/>
                </mxCell>
                <mxCell id="73" value="" style="rounded=0;whiteSpace=wrap;html=1;fontSize=24;" parent="1" vertex="1">
                    <mxGeometry x="412" y="1310" width="200.5" height="50" as="geometry"/>
                </mxCell>
                <mxCell id="74" value="" style="rounded=0;whiteSpace=wrap;html=1;fontSize=24;" parent="1" vertex="1">
                    <mxGeometry x="412" y="1360" width="200.5" height="50" as="geometry"/>
                </mxCell>
                <mxCell id="75" value="" style="rounded=0;whiteSpace=wrap;html=1;fontSize=24;" parent="1" vertex="1">
                    <mxGeometry x="412" y="1410" width="200.5" height="50" as="geometry"/>
                </mxCell>
                <mxCell id="76" value="&lt;font size=&quot;3&quot;&gt;Best Musics of 1993&lt;/font&gt;" style="text;html=1;strokeColor=none;fillColor=none;align=center;verticalAlign=middle;whiteSpace=wrap;rounded=0;" parent="1" vertex="1">
                    <mxGeometry x="432.25" y="1310" width="160" height="50" as="geometry"/>
                </mxCell>
                <mxCell id="77" value="&lt;font size=&quot;3&quot;&gt;Interpreter&lt;/font&gt;" style="text;html=1;strokeColor=none;fillColor=none;align=center;verticalAlign=middle;whiteSpace=wrap;rounded=0;" parent="1" vertex="1">
                    <mxGeometry x="427.5" y="1360" width="160" height="50" as="geometry"/>
                </mxCell>
                <mxCell id="78" value="&lt;font size=&quot;3&quot;&gt;Author(s)&lt;/font&gt;" style="text;html=1;strokeColor=none;fillColor=none;align=center;verticalAlign=middle;whiteSpace=wrap;rounded=0;" parent="1" vertex="1">
                    <mxGeometry x="432.25" y="1410" width="160" height="50" as="geometry"/>
                </mxCell>
                <mxCell id="79" value="" style="rounded=0;whiteSpace=wrap;html=1;fontSize=24;" parent="1" vertex="1">
                    <mxGeometry x="252" y="1310" width="160.5" height="150" as="geometry"/>
                </mxCell>
                <mxCell id="80" value="Image" style="text;html=1;strokeColor=none;fillColor=none;align=center;verticalAlign=middle;whiteSpace=wrap;rounded=0;fontSize=24;" parent="1" vertex="1">
                    <mxGeometry x="302.25" y="1360" width="60" height="30" as="geometry"/>
                </mxCell>
                <mxCell id="81" value="" style="rounded=0;whiteSpace=wrap;html=1;fontSize=24;" parent="1" vertex="1">
                    <mxGeometry x="412" y="1510" width="200.5" height="50" as="geometry"/>
                </mxCell>
                <mxCell id="82" value="" style="rounded=0;whiteSpace=wrap;html=1;fontSize=24;" parent="1" vertex="1">
                    <mxGeometry x="412" y="1560" width="200.5" height="50" as="geometry"/>
                </mxCell>
                <mxCell id="83" value="" style="rounded=0;whiteSpace=wrap;html=1;fontSize=24;" parent="1" vertex="1">
                    <mxGeometry x="412" y="1610" width="200.5" height="50" as="geometry"/>
                </mxCell>
                <mxCell id="84" value="&lt;font size=&quot;3&quot;&gt;Best Musics of 1994&lt;/font&gt;" style="text;html=1;strokeColor=none;fillColor=none;align=center;verticalAlign=middle;whiteSpace=wrap;rounded=0;" parent="1" vertex="1">
                    <mxGeometry x="432.25" y="1510" width="160" height="50" as="geometry"/>
                </mxCell>
                <mxCell id="85" value="&lt;font size=&quot;3&quot;&gt;Interpreter&lt;/font&gt;" style="text;html=1;strokeColor=none;fillColor=none;align=center;verticalAlign=middle;whiteSpace=wrap;rounded=0;" parent="1" vertex="1">
                    <mxGeometry x="427.5" y="1560" width="160" height="50" as="geometry"/>
                </mxCell>
                <mxCell id="86" value="&lt;font size=&quot;3&quot;&gt;Author(s)&lt;/font&gt;" style="text;html=1;strokeColor=none;fillColor=none;align=center;verticalAlign=middle;whiteSpace=wrap;rounded=0;" parent="1" vertex="1">
                    <mxGeometry x="432.25" y="1610" width="160" height="50" as="geometry"/>
                </mxCell>
                <mxCell id="87" value="" style="rounded=0;whiteSpace=wrap;html=1;fontSize=24;" parent="1" vertex="1">
                    <mxGeometry x="252" y="1510" width="160.5" height="150" as="geometry"/>
                </mxCell>
                <mxCell id="88" value="Image" style="text;html=1;strokeColor=none;fillColor=none;align=center;verticalAlign=middle;whiteSpace=wrap;rounded=0;fontSize=24;" parent="1" vertex="1">
                    <mxGeometry x="302.25" y="1560" width="60" height="30" as="geometry"/>
                </mxCell>
                <mxCell id="89" value="" style="rounded=0;whiteSpace=wrap;html=1;fontSize=24;" parent="1" vertex="1">
                    <mxGeometry x="412" y="1710" width="200.5" height="50" as="geometry"/>
                </mxCell>
                <mxCell id="90" value="" style="rounded=0;whiteSpace=wrap;html=1;fontSize=24;" parent="1" vertex="1">
                    <mxGeometry x="412" y="1760" width="200.5" height="50" as="geometry"/>
                </mxCell>
                <mxCell id="91" value="" style="rounded=0;whiteSpace=wrap;html=1;fontSize=24;" parent="1" vertex="1">
                    <mxGeometry x="412" y="1810" width="200.5" height="50" as="geometry"/>
                </mxCell>
                <mxCell id="92" value="&lt;font size=&quot;3&quot;&gt;Best Musics of 1995&lt;/font&gt;" style="text;html=1;strokeColor=none;fillColor=none;align=center;verticalAlign=middle;whiteSpace=wrap;rounded=0;" parent="1" vertex="1">
                    <mxGeometry x="432.25" y="1710" width="160" height="50" as="geometry"/>
                </mxCell>
                <mxCell id="93" value="&lt;font size=&quot;3&quot;&gt;Interpreter&lt;/font&gt;" style="text;html=1;strokeColor=none;fillColor=none;align=center;verticalAlign=middle;whiteSpace=wrap;rounded=0;" parent="1" vertex="1">
                    <mxGeometry x="427.5" y="1760" width="160" height="50" as="geometry"/>
                </mxCell>
                <mxCell id="94" value="&lt;font size=&quot;3&quot;&gt;Author(s)&lt;/font&gt;" style="text;html=1;strokeColor=none;fillColor=none;align=center;verticalAlign=middle;whiteSpace=wrap;rounded=0;" parent="1" vertex="1">
                    <mxGeometry x="432.25" y="1810" width="160" height="50" as="geometry"/>
                </mxCell>
                <mxCell id="95" value="" style="rounded=0;whiteSpace=wrap;html=1;fontSize=24;" parent="1" vertex="1">
                    <mxGeometry x="252" y="1710" width="160.5" height="150" as="geometry"/>
                </mxCell>
                <mxCell id="96" value="Image" style="text;html=1;strokeColor=none;fillColor=none;align=center;verticalAlign=middle;whiteSpace=wrap;rounded=0;fontSize=24;" parent="1" vertex="1">
                    <mxGeometry x="302.25" y="1760" width="60" height="30" as="geometry"/>
                </mxCell>
                <mxCell id="97" value="" style="rounded=0;whiteSpace=wrap;html=1;fontSize=24;" parent="1" vertex="1">
                    <mxGeometry x="412" y="1910" width="200.5" height="50" as="geometry"/>
                </mxCell>
                <mxCell id="98" value="" style="rounded=0;whiteSpace=wrap;html=1;fontSize=24;" parent="1" vertex="1">
                    <mxGeometry x="412" y="1960" width="200.5" height="50" as="geometry"/>
                </mxCell>
                <mxCell id="99" value="" style="rounded=0;whiteSpace=wrap;html=1;fontSize=24;" parent="1" vertex="1">
                    <mxGeometry x="412" y="2010" width="200.5" height="50" as="geometry"/>
                </mxCell>
                <mxCell id="100" value="&lt;font size=&quot;3&quot;&gt;Best Musics of 1996&lt;/font&gt;" style="text;html=1;strokeColor=none;fillColor=none;align=center;verticalAlign=middle;whiteSpace=wrap;rounded=0;" parent="1" vertex="1">
                    <mxGeometry x="432.25" y="1910" width="160" height="50" as="geometry"/>
                </mxCell>
                <mxCell id="101" value="&lt;font size=&quot;3&quot;&gt;Interpreter&lt;/font&gt;" style="text;html=1;strokeColor=none;fillColor=none;align=center;verticalAlign=middle;whiteSpace=wrap;rounded=0;" parent="1" vertex="1">
                    <mxGeometry x="427.5" y="1960" width="160" height="50" as="geometry"/>
                </mxCell>
                <mxCell id="102" value="&lt;font size=&quot;3&quot;&gt;Author(s)&lt;/font&gt;" style="text;html=1;strokeColor=none;fillColor=none;align=center;verticalAlign=middle;whiteSpace=wrap;rounded=0;" parent="1" vertex="1">
                    <mxGeometry x="432.25" y="2010" width="160" height="50" as="geometry"/>
                </mxCell>
                <mxCell id="103" value="" style="rounded=0;whiteSpace=wrap;html=1;fontSize=24;" parent="1" vertex="1">
                    <mxGeometry x="252" y="1910" width="160.5" height="150" as="geometry"/>
                </mxCell>
                <mxCell id="104" value="Image" style="text;html=1;strokeColor=none;fillColor=none;align=center;verticalAlign=middle;whiteSpace=wrap;rounded=0;fontSize=24;" parent="1" vertex="1">
                    <mxGeometry x="302.25" y="1960" width="60" height="30" as="geometry"/>
                </mxCell>
                <mxCell id="105" value="" style="rounded=0;whiteSpace=wrap;html=1;fontSize=24;" parent="1" vertex="1">
                    <mxGeometry x="412" y="2110" width="200.5" height="50" as="geometry"/>
                </mxCell>
                <mxCell id="106" value="" style="rounded=0;whiteSpace=wrap;html=1;fontSize=24;" parent="1" vertex="1">
                    <mxGeometry x="412" y="2160" width="200.5" height="50" as="geometry"/>
                </mxCell>
                <mxCell id="107" value="" style="rounded=0;whiteSpace=wrap;html=1;fontSize=24;" parent="1" vertex="1">
                    <mxGeometry x="412" y="2210" width="200.5" height="50" as="geometry"/>
                </mxCell>
                <mxCell id="108" value="&lt;font size=&quot;3&quot;&gt;Best Musics of 1997&lt;/font&gt;" style="text;html=1;strokeColor=none;fillColor=none;align=center;verticalAlign=middle;whiteSpace=wrap;rounded=0;" parent="1" vertex="1">
                    <mxGeometry x="432.25" y="2110" width="160" height="50" as="geometry"/>
                </mxCell>
                <mxCell id="109" value="&lt;font size=&quot;3&quot;&gt;Interpreter&lt;/font&gt;" style="text;html=1;strokeColor=none;fillColor=none;align=center;verticalAlign=middle;whiteSpace=wrap;rounded=0;" parent="1" vertex="1">
                    <mxGeometry x="427.5" y="2160" width="160" height="50" as="geometry"/>
                </mxCell>
                <mxCell id="110" value="&lt;font size=&quot;3&quot;&gt;Author(s)&lt;/font&gt;" style="text;html=1;strokeColor=none;fillColor=none;align=center;verticalAlign=middle;whiteSpace=wrap;rounded=0;" parent="1" vertex="1">
                    <mxGeometry x="432.25" y="2210" width="160" height="50" as="geometry"/>
                </mxCell>
                <mxCell id="111" value="" style="rounded=0;whiteSpace=wrap;html=1;fontSize=24;" parent="1" vertex="1">
                    <mxGeometry x="252" y="2110" width="160.5" height="150" as="geometry"/>
                </mxCell>
                <mxCell id="112" value="Image" style="text;html=1;strokeColor=none;fillColor=none;align=center;verticalAlign=middle;whiteSpace=wrap;rounded=0;fontSize=24;" parent="1" vertex="1">
                    <mxGeometry x="302.25" y="2160" width="60" height="30" as="geometry"/>
                </mxCell>
                <mxCell id="113" value="" style="rounded=0;whiteSpace=wrap;html=1;fontSize=24;" parent="1" vertex="1">
                    <mxGeometry x="412" y="2310" width="200.5" height="50" as="geometry"/>
                </mxCell>
                <mxCell id="114" value="" style="rounded=0;whiteSpace=wrap;html=1;fontSize=24;" parent="1" vertex="1">
                    <mxGeometry x="412" y="2360" width="200.5" height="50" as="geometry"/>
                </mxCell>
                <mxCell id="115" value="" style="rounded=0;whiteSpace=wrap;html=1;fontSize=24;" parent="1" vertex="1">
                    <mxGeometry x="412" y="2410" width="200.5" height="50" as="geometry"/>
                </mxCell>
                <mxCell id="116" value="&lt;font size=&quot;3&quot;&gt;Best Musics of 1998&lt;/font&gt;" style="text;html=1;strokeColor=none;fillColor=none;align=center;verticalAlign=middle;whiteSpace=wrap;rounded=0;" parent="1" vertex="1">
                    <mxGeometry x="432.25" y="2310" width="160" height="50" as="geometry"/>
                </mxCell>
                <mxCell id="117" value="&lt;font size=&quot;3&quot;&gt;Interpreter&lt;/font&gt;" style="text;html=1;strokeColor=none;fillColor=none;align=center;verticalAlign=middle;whiteSpace=wrap;rounded=0;" parent="1" vertex="1">
                    <mxGeometry x="427.5" y="2360" width="160" height="50" as="geometry"/>
                </mxCell>
                <mxCell id="118" value="&lt;font size=&quot;3&quot;&gt;Author(s)&lt;/font&gt;" style="text;html=1;strokeColor=none;fillColor=none;align=center;verticalAlign=middle;whiteSpace=wrap;rounded=0;" parent="1" vertex="1">
                    <mxGeometry x="432.25" y="2410" width="160" height="50" as="geometry"/>
                </mxCell>
                <mxCell id="119" value="" style="rounded=0;whiteSpace=wrap;html=1;fontSize=24;" parent="1" vertex="1">
                    <mxGeometry x="252" y="2310" width="160.5" height="150" as="geometry"/>
                </mxCell>
                <mxCell id="120" value="Image" style="text;html=1;strokeColor=none;fillColor=none;align=center;verticalAlign=middle;whiteSpace=wrap;rounded=0;fontSize=24;" parent="1" vertex="1">
                    <mxGeometry x="302.25" y="2360" width="60" height="30" as="geometry"/>
                </mxCell>
                <mxCell id="121" value="" style="rounded=0;whiteSpace=wrap;html=1;fontSize=24;" parent="1" vertex="1">
                    <mxGeometry x="412" y="2520" width="200.5" height="50" as="geometry"/>
                </mxCell>
                <mxCell id="122" value="" style="rounded=0;whiteSpace=wrap;html=1;fontSize=24;" parent="1" vertex="1">
                    <mxGeometry x="412" y="2570" width="200.5" height="50" as="geometry"/>
                </mxCell>
                <mxCell id="123" value="" style="rounded=0;whiteSpace=wrap;html=1;fontSize=24;" parent="1" vertex="1">
                    <mxGeometry x="412" y="2620" width="200.5" height="50" as="geometry"/>
                </mxCell>
                <mxCell id="124" value="&lt;font size=&quot;3&quot;&gt;Best Musics of 1999&lt;/font&gt;" style="text;html=1;strokeColor=none;fillColor=none;align=center;verticalAlign=middle;whiteSpace=wrap;rounded=0;" parent="1" vertex="1">
                    <mxGeometry x="432.25" y="2520" width="160" height="50" as="geometry"/>
                </mxCell>
                <mxCell id="125" value="&lt;font size=&quot;3&quot;&gt;Interpreter&lt;/font&gt;" style="text;html=1;strokeColor=none;fillColor=none;align=center;verticalAlign=middle;whiteSpace=wrap;rounded=0;" parent="1" vertex="1">
                    <mxGeometry x="427.5" y="2570" width="160" height="50" as="geometry"/>
                </mxCell>
                <mxCell id="126" value="&lt;font size=&quot;3&quot;&gt;Author(s)&lt;/font&gt;" style="text;html=1;strokeColor=none;fillColor=none;align=center;verticalAlign=middle;whiteSpace=wrap;rounded=0;" parent="1" vertex="1">
                    <mxGeometry x="432.25" y="2620" width="160" height="50" as="geometry"/>
                </mxCell>
                <mxCell id="127" value="" style="rounded=0;whiteSpace=wrap;html=1;fontSize=24;" parent="1" vertex="1">
                    <mxGeometry x="252" y="2520" width="160.5" height="150" as="geometry"/>
                </mxCell>
                <mxCell id="128" value="Image" style="text;html=1;strokeColor=none;fillColor=none;align=center;verticalAlign=middle;whiteSpace=wrap;rounded=0;fontSize=24;" parent="1" vertex="1">
                    <mxGeometry x="302.25" y="2570" width="60" height="30" as="geometry"/>
                </mxCell>
                <mxCell id="129" value="" style="rounded=0;whiteSpace=wrap;html=1;" vertex="1" parent="1">
                    <mxGeometry x="45" y="2760" width="765" height="60" as="geometry"/>
                </mxCell>
                <mxCell id="130" value="Created for Daniel Faria&lt;br&gt;2023" style="text;html=1;strokeColor=none;fillColor=none;align=center;verticalAlign=middle;whiteSpace=wrap;rounded=0;" vertex="1" parent="1">
                    <mxGeometry x="313" y="2775" width="220" height="30" as="geometry"/>
                </mxCell>
            </root>
        </mxGraphModel>
    </diagram>
</mxfile>